<?xml version="1.0" standalone="no"?>
<!DOCTYPE svg PUBLIC "-//W3C//DTD SVG 1.1//EN" "http://www.w3.org/Graphics/SVG/1.1/DTD/svg11.dtd" >
<svg xmlns="http://www.w3.org/2000/svg" xmlns:xlink="http://www.w3.org/1999/xlink" version="1.1">
<metadata>
Created by FontForge 20170910 at Wed Aug 23 11:58:12 2017
 By Jimmy Wärting
Copyright 2017, The Mozilla Foundation
</metadata>
<defs>
<font id="ZillaSlab-BoldItalic" horiz-adv-x="605" >
  <font-face 
    font-family="Zilla Slab"
    font-weight="700"
    font-style="italic"
    font-stretch="normal"
    units-per-em="1000"
    panose-1="0 0 0 0 0 0 0 0 0 0"
    ascent="787"
    descent="-213"
    x-height="451"
    cap-height="650"
    bbox="-175 -248 1317 906"
    underline-thickness="50"
    underline-position="-100"
    slope="-6"
    unicode-range="U+0020-FB04"
  />
    <missing-glyph />
    <glyph glyph-name="uniFB01" unicode="fi" horiz-adv-x="546" 
d="M495 451l-43 -353h57l-9 -73l-30 -25h-154l43 353h-149l-46 -377q-6 -46 -22.5 -91.5t-53 -76t-103.5 -30.5q-65 0 -106.5 36t-41.5 114l97 29q0 -50 15.5 -65.5t30.5 -15.5q32 0 44 35.5t16 66.5l45 375h-77l6 67l34 31h49l9 68q8 69 59 124t160 55q37 0 81.5 -9
t85.5 -32l7 -122l-99 -11l-12 64q-8 4 -21.5 8.5t-40.5 4.5q-59 0 -75 -25t-20 -54l-9 -71h273z" />
    <glyph glyph-name="uniFB02" unicode="fl" horiz-adv-x="543" 
d="M523 688l-72 -590h58l-9 -73l-30 -25h-155l65 536q2 66 -71 66q-35 0 -54 -21t-23 -53l-10 -77h107l-9 -66l-34 -32h-76l-46 -377q-6 -46 -22.5 -91.5t-53 -76t-103.5 -30.5q-65 0 -106.5 36t-41.5 114l97 29q0 -50 15.5 -65.5t30.5 -15.5q32 0 44 35.5t16 66.5l46 375
h-78l6 67l34 31h50l11 82q11 83 61.5 124t113.5 41q42 0 68.5 -16t40.5 -41l6 47h124z" />
    <glyph glyph-name="uni0066_uni0068.liga" unicode="fh" horiz-adv-x="817" 
d="M524 688l-38 -313q22 38 57 61.5t82 23.5q61 0 101.5 -38t30.5 -118l-25 -206h58l-9 -73l-30 -25h-154l31 254q8 58 -8 83t-53 25q-43 0 -65 -27t-30 -71l-32 -264h-124l65 536q2 66 -72 66q-35 0 -54 -21t-23 -53l-10 -77h107l-9 -66l-34 -32h-76l-46 -377
q-6 -46 -22.5 -91.5t-53 -76t-103.5 -30.5q-65 0 -106.5 36t-41.5 114l97 29q0 -50 15.5 -65.5t30.5 -15.5q32 0 44 35.5t16 66.5l46 375h-78l6 67l34 31h50l11 82q11 83 61.5 124t113.5 41q42 0 69 -16t41 -41l6 47h124z" />
    <glyph glyph-name="uni0066_uni0062.liga" unicode="fb" horiz-adv-x="808" 
d="M524 688l-39 -319q21 37 54.5 64t83.5 27q82 0 121 -57.5t39 -133.5q0 -65 -23.5 -129.5t-71.5 -107t-123 -42.5q-94 0 -123 78l-18 -68h-124q11 35 20 70t13 69l48 397q2 66 -72 66q-35 0 -54 -21t-23 -53l-10 -77h107l-9 -66l-34 -32h-76l-46 -377q-6 -46 -22.5 -91.5
t-53 -76t-103.5 -30.5q-65 0 -106.5 36t-41.5 114l97 29q0 -50 15.5 -65.5t30.5 -15.5q32 0 44 35.5t16 66.5l46 375h-78l6 67l34 31h50l11 82q11 83 61.5 124t113.5 41q42 0 69 -16t41 -41l6 47h124zM549 88q47 0 73 54t26 112q0 44 -16.5 76t-54.5 32q-47 0 -74 -41.5
t-35 -88.5l-5 -40q-1 -48 22 -76t64 -28z" />
    <glyph glyph-name="uni0066_uni006A.liga" unicode="fj" horiz-adv-x="525" 
d="M106 519q8 69 59 124t160 55q37 0 81.5 -9t85.5 -32l7 -122l-99 -11l-12 64q-8 4 -21.5 8.5t-40.5 4.5q-59 0 -75 -25t-20 -54l-9 -71h273l-54 -435q-13 -102 -50 -170t-108 -68q-57 0 -100 30l5 83q50 -19 83 -1t47 126l41 337h-149l-46 -377q-6 -46 -22.5 -91.5
t-53 -76t-103.5 -30.5q-65 0 -106.5 36t-41.5 114l97 29q0 -50 15.5 -65.5t30.5 -15.5q32 0 44 35.5t16 66.5l45 375h-77l6 67l34 31h49z" />
    <glyph glyph-name="uni0066_uni006B.liga" unicode="fk" horiz-adv-x="765" 
d="M523 688l-51 -416h55q70 78 83 179h124q2 -60 -35.5 -118t-98.5 -100l73 -135h69l-9 -73l-30 -25h-105l-100 188h-36l-23 -188h-124l65 536q2 66 -71 66q-35 0 -54 -21t-23 -53l-10 -77h107l-9 -66l-34 -32h-76l-46 -377q-6 -46 -22.5 -91.5t-53 -76t-103.5 -30.5
q-65 0 -106.5 36t-41.5 114l97 29q0 -50 15.5 -65.5t30.5 -15.5q32 0 44 35.5t16 66.5l46 375h-78l6 67l34 31h50l11 82q11 83 61.5 124t113.5 41q42 0 68.5 -16t40.5 -41l6 47h124z" />
    <glyph glyph-name="uniFB00" unicode="ff" horiz-adv-x="586" 
d="M8 353l6 67l34 31h50l11 82q11 83 61.5 124t113.5 41q54 0 83 -26t39 -63q26 43 70.5 66t89.5 23q21 0 59.5 -7.5t68.5 -32.5l6 -122l-93 -11l-13 71q-21 6 -35 6q-46 0 -54 -61l-12 -90h107l-9 -66l-34 -32h-76l-46 -377q-5 -46 -22 -91.5t-54 -76t-103 -30.5
q-99 0 -132 71q-20 -31 -53.5 -51t-85.5 -20q-65 0 -106.5 36t-41.5 114l97 29q0 -50 15.5 -65.5t30.5 -15.5q32 0 44 35.5t16 66.5l46 375h-78zM232 528l-10 -77h147l11 82v4q0 65 -71 65q-35 0 -54 -21t-23 -53zM210 353l-46 -377l-5 -33l46 14q0 -50 15.5 -65.5
t30.5 -15.5q31 0 43.5 35.5t16.5 66.5l46 375h-147z" />
    <glyph glyph-name="uniFB03" unicode="ffi" horiz-adv-x="817" 
d="M766 451l-43 -353h57l-9 -73l-30 -25h-154l43 353h-149l-46 -377q-5 -46 -22 -91.5t-54 -76t-103 -30.5q-99 0 -132 71q-20 -31 -53.5 -51t-85.5 -20q-65 0 -106.5 36t-41.5 114l97 29q0 -50 15.5 -65.5t30.5 -15.5q32 0 44 35.5t16 66.5l46 375h-78l6 67l34 31h50l11 82
q11 83 61.5 124t113.5 41q56 0 85 -27t38 -65q24 40 70 66t119 26q37 0 81.5 -9t85.5 -32l7 -122l-99 -11l-12 64q-7 4 -21 8.5t-41 4.5q-59 0 -75 -25t-20 -54l-9 -71h273zM369 451l9 68q0 6 2 16q2 67 -71 67q-35 0 -54 -21t-23 -53l-10 -77h147zM164 -24l-5 -33l46 14
q0 -50 15.5 -65.5t30.5 -15.5q31 0 43.5 35.5t16.5 66.5l46 375h-147z" />
    <glyph glyph-name="uni0066_uni0066_uni006A.liga" unicode="ffj" horiz-adv-x="795" 
d="M711 16q-13 -102 -50 -170t-108 -68q-57 0 -100 30l5 83q50 -19 83 -1t47 126l41 337h-148l-46 -377q-5 -46 -22 -91.5t-54 -76t-103 -30.5q-99 0 -132 71q-20 -31 -53.5 -51t-85.5 -20q-65 0 -106.5 36t-41.5 114l97 29q0 -50 15.5 -65.5t30.5 -15.5q32 0 44 35.5
t16 66.5l46 375h-78l6 67l34 31h50l11 82q11 83 61.5 124t113.5 41q56 0 85 -27t38 -65q24 40 70 66t119 26q37 0 81.5 -9t85.5 -32l7 -122l-99 -11l-12 64q-7 4 -21 8.5t-41 4.5q-59 0 -75 -25t-20 -54l-9 -71h272zM309 602q-35 0 -54 -21t-23 -53l-10 -77h147l9 68
q0 6 2 16q2 67 -71 67zM164 -24l-5 -33l46 14q0 -50 15.5 -65.5t30.5 -15.5q31 0 43.5 35.5t16.5 66.5l46 375h-147z" />
    <glyph glyph-name="uniFB04" unicode="ffl" horiz-adv-x="814" 
d="M794 688l-72 -590h58l-9 -73l-30 -25h-155l65 536q2 66 -71 66q-35 0 -54 -21t-23 -53l-10 -77h107l-9 -66l-34 -32h-76l-46 -377q-5 -46 -22 -91.5t-54 -76t-103 -30.5q-99 0 -132 71q-20 -31 -53.5 -51t-85.5 -20q-65 0 -106.5 36t-41.5 114l97 29q0 -50 15.5 -65.5
t30.5 -15.5q32 0 44 35.5t16 66.5l46 375h-78l6 67l34 31h50l11 82q11 83 61.5 124t113.5 41q52 0 81 -25t40 -60q25 43 64.5 64t85.5 21q42 0 68.5 -16t40.5 -41l6 47h124zM369 451l11 82v4q0 65 -71 65q-35 0 -54 -21t-23 -53l-10 -77h147zM164 -24l-5 -33l46 14
q0 -50 15.5 -65.5t30.5 -15.5q31 0 43.5 35.5t16.5 66.5l46 375h-147z" />
    <glyph glyph-name="uni0066_uni00EC.liga" unicode="f&#xec;" horiz-adv-x="547" 
d="M549 509l-150 133l95 83l104 -177zM106 512q11 92 57 139t113 47q58 0 118 -34l-31 -94q-43 27 -72 27q-50 0 -60 -78l-9 -68h273l-43 -353h57l-9 -73l-30 -25h-154l43 353h-149l-46 -377q-6 -46 -22.5 -91.5t-53 -76t-103.5 -30.5q-65 0 -106.5 36t-41.5 114l97 29
q0 -50 15.5 -65.5t30.5 -15.5q32 0 44 35.5t16 66.5l46 375h-78l6 67l34 31h50z" />
    <glyph glyph-name="uni0066_uni00EF.liga" unicode="f&#xef;" horiz-adv-x="546" 
d="M495 451l-43 -353h57l-9 -73l-30 -25h-154l43 353h-149l-46 -377q-6 -46 -22.5 -91.5t-53 -76t-103.5 -30.5q-65 0 -106.5 36t-41.5 114l97 29q0 -50 15.5 -65.5t30.5 -15.5q32 0 44 35.5t16 66.5l46 375h-78l6 67l34 31h50l8 62q9 71 58.5 128t140.5 57q61 0 105 -25.5
t39 -66.5l-8 -75h-126l5 48q2 15 -12.5 17.5t-24.5 2.5q-43 0 -49 -58l-12 -90h273zM487 531l12 114h126l-12 -114h-126z" />
    <glyph glyph-name="AEmacron.c2sc" horiz-adv-x="712" 
d="M80 675v27h27v-27h-27zM155 675v27h27v-27h-27zM230 675v27h27v-27h-27zM305 675v27h27v-27h-27zM380 675v27h27v-27h-27zM455 675v27h27v-27h-27zM530 675v27h27v-27h-27zM605 675v27h27v-27h-27zM605 600v27h27v-27h-27zM80 600v27h27v-27h-27zM455 525v27h27v-27h-27z
M605 525v27h27v-27h-27zM230 525v27h27v-27h-27zM305 525v27h27v-27h-27zM380 525v27h27v-27h-27zM80 525v27h27v-27h-27zM455 450v27h27v-27h-27zM605 450v27h27v-27h-27zM80 450v27h27v-27h-27zM305 375v27h27v-27h-27zM605 375v27h27v-27h-27zM455 375v27h27v-27h-27z
M380 375v27h27v-27h-27zM80 375v27h27v-27h-27zM605 300v27h27v-27h-27zM305 300v27h27v-27h-27zM80 300v27h27v-27h-27zM605 225v27h27v-27h-27zM80 225v27h27v-27h-27zM605 150v27h27v-27h-27zM305 150v27h27v-27h-27zM80 150v27h27v-27h-27zM605 75v27h27v-27h-27zM80 75
v27h27v-27h-27zM230 0v27h27v-27h-27zM155 0v27h27v-27h-27zM80 0v27h27v-27h-27zM305 0v27h27v-27h-27zM380 0v27h27v-27h-27zM605 0v27h27v-27h-27zM455 0v27h27v-27h-27zM530 0v27h27v-27h-27z" />
    <glyph glyph-name="uni0020" unicode=" " horiz-adv-x="179" 
 />
    <glyph glyph-name="uni0041" unicode="A" horiz-adv-x="660" 
d="M-5 114h57l222 422h-86l12 114h214l169 -536h59l-12 -114h-248l12 114h50l-17 66h-212l-32 -66h58l-12 -114h-246zM351 459l-89 -183h141l-46 183h-6z" />
    <glyph glyph-name="uni0042" unicode="B" horiz-adv-x="600" 
d="M402 650q80 0 127.5 -37.5t47.5 -101.5q0 -53 -33.5 -96t-94.5 -53v-4q59 -10 89 -49t30 -98q0 -82 -57 -146.5t-173 -64.5h-329l12 114h67l44 422h-67l12 114h325zM331 384q61 0 82.5 27t21.5 59q0 40 -22.5 53t-56.5 13h-95l-16 -152h86zM316 114q114 0 114 92
q0 74 -88 74h-108l-17 -166h99z" />
    <glyph glyph-name="uni0043" unicode="C" horiz-adv-x="617" 
d="M559 69q-35 -35 -106.5 -57t-140.5 -22q-136 0 -210 86t-74 210q0 81 35 167.5t114 146.5t210 60q85 0 140 -24.5t83 -53.5v-151l-108 -10l-5 86q-23 17 -58 26t-70 9q-91 0 -146.5 -61t-55.5 -179q0 -194 168 -194q78 0 123 27l25 97l105 -10z" />
    <glyph glyph-name="uni0044" unicode="D" horiz-adv-x="673" 
d="M9 0l12 114h68l44 422h-68l12 114h286q147 0 219.5 -77t72.5 -210q0 -158 -95.5 -260.5t-256.5 -102.5h-294zM305 114q102 0 157 60t55 176q0 186 -168 186h-88l-44 -422h88z" />
    <glyph glyph-name="uni0045" unicode="E" horiz-adv-x="569" 
d="M497 0h-489l12 114h69l44 422h-69l12 114h483v-190l-110 -10l-10 86h-178l-16 -153h272l-12 -113h-272l-16 -156h183l29 86l108 -10z" />
    <glyph glyph-name="uni0046" unicode="F" horiz-adv-x="544" 
d="M550 449l-110 -10l-10 97h-170l-19 -182h262l-12 -113h-262l-13 -127h102l-12 -114h-297l12 114h67l44 422h-68l12 114h474v-201z" />
    <glyph glyph-name="uni0047" unicode="G" horiz-adv-x="656" 
d="M631 246h-32l-26 -246h-101l-5 64q-31 -34 -75.5 -54t-104.5 -20q-123 0 -192 83t-69 214q0 97 40 182t119 138t197 53q77 0 140.5 -23t91.5 -55l3 -141l-107 -10l-10 76q-22 17 -61 26t-71 9q-88 0 -145 -64t-57 -180q0 -100 43 -145t113 -45q123 0 145 132l1 6h-125
l12 113h288z" />
    <glyph glyph-name="uni0048" unicode="H" horiz-adv-x="732" 
d="M21 114h67l44 422h-67l12 114h263l-12 -114h-68l-16 -150h264l16 150h-67l12 114h263l-12 -114h-67l-44 -422h67l-12 -114h-263l12 114h67l16 159h-264l-16 -159h68l-12 -114h-263z" />
    <glyph glyph-name="uni0049" unicode="I" horiz-adv-x="339" 
d="M21 114h67l44 422h-67l12 114h263l-12 -114h-68l-44 -422h68l-12 -114h-263z" />
    <glyph glyph-name="uni004A" unicode="J" horiz-adv-x="465" 
d="M179 650h296l-12 -114h-57l-37 -351q-11 -98 -68 -146.5t-142 -48.5q-80 0 -119.5 37t-54.5 86l97 71q12 -44 33.5 -57t44.5 -13q38 0 57 20t22 50l37 352h-109z" />
    <glyph glyph-name="uni004B" unicode="K" horiz-adv-x="648" 
d="M350 114h57l-97 160h-77l-16 -160h52l-12 -114h-248l12 114h67l44 422h-67l12 114h251l-12 -114h-55l-16 -153h79l126 153h-54l12 114h259l-12 -114h-69l-170 -195l142 -227h64l-12 -114h-272z" />
    <glyph glyph-name="uni004C" unicode="L" horiz-adv-x="535" 
d="M482 0h-475l12 114h69l44 422h-69l12 114h289l-12 -114h-91l-44 -422h169l32 126l108 -10z" />
    <glyph glyph-name="uni004D" unicode="M" horiz-adv-x="865" 
d="M23 114h67l44 422h-77l12 114h184l180 -403h4l250 403h186l-12 -114h-76l-44 -422h67l-12 -114h-251l12 114h55l26 248h-4l-196 -309h-54l-143 321h-4l-27 -260h59l-12 -114h-246z" />
    <glyph glyph-name="uni004E" unicode="N" horiz-adv-x="732" 
d="M23 114h68l44 422h-78l12 114h170l275 -386h3l28 272h-90l12 114h278l-12 -114h-68l-56 -536l-72 -1l-292 413h-3l-31 -298h86l-12 -114h-274z" />
    <glyph glyph-name="uni004F" unicode="O" horiz-adv-x="685" 
d="M381 660q137 0 212.5 -88t75.5 -212q0 -100 -46 -184t-127.5 -135t-185.5 -51q-140 0 -212 88.5t-72 211.5q0 103 47 187t127 133.5t181 49.5zM330 108q101 0 150 75t49 167t-44 142t-118 50q-94 0 -147.5 -71t-53.5 -169q0 -74 36.5 -134t127.5 -60z" />
    <glyph glyph-name="uni0050" unicode="P" horiz-adv-x="578" 
d="M21 114h67l44 422h-67l12 114h286q107 0 162 -53.5t55 -144.5q0 -118 -78.5 -176t-177.5 -58h-96l-11 -104h96l-12 -114h-292zM312 331q74 0 101.5 33.5t27.5 81.5q0 44 -23 67t-83 23h-74l-21 -205h72z" />
    <glyph glyph-name="uni0051" unicode="Q" horiz-adv-x="696" 
d="M382 660q136 0 212 -88t76 -212q0 -153 -101 -259l83 -91l-87 -80l-90 99q-76 -39 -164 -39q-139 0 -211.5 88.5t-72.5 211.5q0 103 47 187t127.5 133.5t180.5 49.5zM301 221l87 80l99 -110q43 65 43 159q0 92 -44 142t-118 50q-94 0 -147.5 -71t-53.5 -169
q0 -74 36.5 -134t127.5 -60q36 0 63 10z" />
    <glyph glyph-name="uni0052" unicode="R" horiz-adv-x="614" 
d="M21 114h67l44 422h-67l12 114h282q222 0 222 -180q0 -75 -38.5 -119.5t-103.5 -66.5l70 -170h76l-12 -114h-160l-98 248h-84l-14 -134h67l-12 -114h-263zM303 354q81 0 110 28.5t29 75.5q0 45 -25 61.5t-93 16.5h-63l-19 -182h61z" />
    <glyph glyph-name="uni0053" unicode="S" horiz-adv-x="538" 
d="M500 204q0 -104 -68.5 -159t-190.5 -55q-67 0 -129.5 17t-96.5 51l37 161l104 -10l-9 -79q31 -18 54 -21.5t36 -3.5q56 0 88.5 17.5t32.5 71.5q0 49 -28 63.5t-83 24.5q-44 8 -86.5 24.5t-70.5 51t-28 99.5q0 75 37.5 119.5t95 64t117.5 19.5q66 0 120.5 -19.5
t82.5 -52.5l-9 -141l-106 -10l-1 76q-23 17 -47 23t-48 6q-42 0 -72 -15.5t-30 -52.5q0 -39 32 -54t74 -24t86.5 -25.5t75 -54.5t30.5 -112z" />
    <glyph glyph-name="uni0054" unicode="T" horiz-adv-x="626" 
d="M626 430l-112 -10l-8 116h-102l-44 -422h103l-12 -114h-329l12 114h98l44 422h-101l-32 -116l-110 10l42 220h555z" />
    <glyph glyph-name="uni0055" unicode="U" horiz-adv-x="690" 
d="M454 650h249l-12 -114h-56l-28 -267q-7 -69 -36.5 -133t-90 -105t-160.5 -41q-142 0 -196.5 81.5t-43.5 186.5l29 278h-55l12 114h257l-12 -114h-73l-29 -274q-7 -67 19.5 -110.5t101.5 -43.5q74 0 112 44t45 117l28 267h-73z" />
    <glyph glyph-name="uni0056" unicode="V" horiz-adv-x="658" 
d="M679 536h-57l-277 -536h-89l-165 536h-59l12 114h258l-12 -114h-56l93 -329h5l159 329h-57l12 114h245z" />
    <glyph glyph-name="uni0057" unicode="W" horiz-adv-x="951" 
d="M966 536h-51l-227 -536h-91l-103 420h-5l-184 -420h-93l-126 536h-54l12 114h248l-12 -114h-57l60 -314h6l144 314h-49l12 114h249l-12 -114h-45l77 -320h6l115 320h-66l12 114h246z" />
    <glyph glyph-name="uni0058" unicode="X" horiz-adv-x="640" 
d="M604 0h-255l12 114h44l-93 133l-113 -133h52l-12 -114h-261l12 114h67l198 218l-149 204h-58l12 114h251l-12 -114h-42l86 -116l102 116h-45l12 114h245l-12 -114h-57l-188 -201l160 -221h56z" />
    <glyph glyph-name="uni0059" unicode="Y" horiz-adv-x="620" 
d="M638 536h-54l-211 -282l-14 -140h101l-12 -114h-326l12 114h96l14 142l-158 280h-55l12 114h258l-12 -114h-52l88 -164h6l120 164h-59l12 114h246z" />
    <glyph glyph-name="uni005A" unicode="Z" horiz-adv-x="566" 
d="M505 0h-504l-3 69l366 466v1h-170l-29 -101l-111 10l41 205h464l1 -61l-368 -473v-2h213l33 120l111 -10z" />
    <glyph glyph-name="uni0061" unicode="a" horiz-adv-x="522" 
d="M492 451q-13 -41 -22.5 -80t-14.5 -80l-24 -193h58l-9 -73l-30 -25h-135l-4 92q-21 -42 -57 -72t-91 -30q-74 0 -111 56t-37 137q0 61 22 125t67.5 108t118.5 44q98 0 128 -84q5 19 9.5 37.5t11.5 37.5h120zM243 362q-48 0 -71 -50.5t-23 -113.5q0 -110 64 -110
q41 0 70 39t38 83l4 34q6 56 -20.5 87t-61.5 31z" />
    <glyph glyph-name="uni0062" unicode="b" horiz-adv-x="514" 
d="M46 661l31 27h153l-39 -319q21 37 54.5 64t83.5 27q82 0 121 -57.5t39 -133.5q0 -65 -23.5 -129.5t-71.5 -107t-123 -42.5q-94 0 -123 78l-18 -68h-124q11 35 20 70t13 69l55 451h-57zM255 88q47 0 73 54t26 112q0 44 -16.5 76t-54.5 32q-47 0 -74 -41.5t-35 -88.5
l-5 -40q-1 -48 22 -76t64 -28z" />
    <glyph glyph-name="uni0063" unicode="c" horiz-adv-x="439" 
d="M243 362q-41 0 -67.5 -41.5t-26.5 -120.5q0 -51 15.5 -81.5t58.5 -30.5q37 0 55.5 25.5t31.5 74.5l101 -20q-13 -64 -62 -121t-147 -57q-88 0 -137.5 54t-49.5 151q0 64 23.5 125t75 100.5t134.5 39.5q34 0 78 -8.5t80 -29.5l5 -137l-103 -11l-6 80q-17 6 -30.5 7
t-28.5 1z" />
    <glyph glyph-name="uni0064" unicode="d" horiz-adv-x="522" 
d="M297 661l31 27h178l-72 -590h58l-9 -73l-30 -25h-135l-2 99q-22 -44 -61.5 -76.5t-96.5 -32.5q-74 0 -109 56t-35 134q0 63 23 127.5t70 108.5t119 44q86 0 120 -66l24 196h-82zM246 362q-48 0 -73 -50t-25 -118q0 -47 14 -76.5t47 -29.5q40 0 71.5 37.5t42.5 80.5l6 53
q1 49 -25 76t-58 27z" />
    <glyph glyph-name="uni0065" unicode="e" horiz-adv-x="444" 
d="M227 88q51 0 66 28.5t20 45.5l101 -20q-10 -59 -63.5 -105.5t-142.5 -46.5q-80 0 -137 48t-57 154q0 108 64 188t180 80q72 0 118 -34t46 -90q0 -50 -35 -85.5t-126 -54.5q-52 -11 -112 -17q3 -43 20 -67t58 -24zM196 261q60 11 78 29t18 38q0 25 -16 35t-35 10
q-42 0 -62.5 -36.5t-26.5 -82.5q12 2 23 3.5t21 3.5z" />
    <glyph glyph-name="uni0066" unicode="f" horiz-adv-x="315" 
d="M295 698q21 0 59.5 -7.5t68.5 -32.5l6 -122l-93 -11l-13 71q-21 6 -35 6q-46 0 -54 -61l-12 -90h107l-9 -66l-34 -32h-76l-46 -377q-6 -46 -22.5 -91.5t-53 -76t-103.5 -30.5q-65 0 -106.5 36t-41.5 114l97 29q0 -50 15.5 -65.5t30.5 -15.5q32 0 44 35.5t16 66.5l46 375
h-78l6 67l34 31h50l11 82q10 80 67.5 122.5t118.5 42.5z" />
    <glyph glyph-name="uni0067" unicode="g" horiz-adv-x="526" 
d="M375 451h163l-9 -73l-30 -25h-32l-41 -330q-12 -96 -66 -170.5t-179 -74.5q-64 0 -120.5 31.5t-73.5 109.5l88 50q33 -84 114 -84q96 0 113 138l7 62q-23 -39 -60 -67t-90 -28q-74 0 -109 56t-35 134q0 63 23 127.5t69.5 108.5t119.5 44q97 0 126 -80zM247 362
q-48 0 -73 -50t-25 -118q0 -47 14 -76.5t47 -29.5q40 0 72 38t42 81l6 48q2 52 -24 79.5t-59 27.5z" />
    <glyph glyph-name="uni0068" unicode="h" horiz-adv-x="522" 
d="M43 661l31 27h154l-38 -313q22 38 57 61.5t82 23.5q61 0 101.5 -38t30.5 -118l-25 -206h58l-9 -73l-30 -25h-154l31 254q8 58 -8 83t-53 25q-43 0 -65 -27t-30 -71l-32 -264h-124l72 590h-58z" />
    <glyph glyph-name="uni0069" unicode="i" horiz-adv-x="274" 
d="M111 531l14 134h120l-14 -134h-120zM32 424l31 27h159l-43 -353h57l-9 -73l-30 -25h-154l43 353h-63z" />
    <glyph glyph-name="uni006A" unicode="j" horiz-adv-x="254" 
d="M110 531l14 134h120l-14 -134h-120zM24 424l31 27h169l-54 -435q-13 -102 -50 -170t-108 -68q-57 0 -100 30l5 83q50 -19 83.5 -1t46.5 126l41 337h-73z" />
    <glyph glyph-name="uni006B" unicode="k" horiz-adv-x="470" 
d="M43 661l31 27h154l-51 -416h55q70 78 83 179h124q1 -60 -36 -118t-98 -100l73 -135h69l-9 -73l-30 -25h-105l-100 188h-36l-23 -188h-124l72 590h-58z" />
    <glyph glyph-name="uni006C" unicode="l" horiz-adv-x="257" 
d="M47 661l31 27h158l-72 -590h58l-9 -73l-30 -25h-155l72 590h-62z" />
    <glyph glyph-name="uni006D" unicode="m" horiz-adv-x="803" 
d="M61 451h139l4 -87q23 43 59 69.5t87 26.5q49 0 82 -24.5t40 -75.5q23 44 59.5 72t88.5 28q61 0 96.5 -38t25.5 -118l-25 -206h58l-9 -73l-30 -25h-154l31 254q7 58 -7 83t-51 25q-45 0 -64 -30t-25 -77l-31 -255h-123l31 254q7 58 -7 83t-51 25q-45 0 -64 -30t-25 -77
l-31 -255h-124l43 353h-63l9 71z" />
    <glyph glyph-name="uni006E" unicode="n" horiz-adv-x="541" 
d="M61 451h139l5 -86q23 43 59 69t86 26q61 0 101.5 -38t30.5 -118l-25 -206h58l-9 -73l-30 -25h-154l31 254q7 58 -8.5 83t-52.5 25q-42 0 -65 -26t-30 -69l-32 -267h-124l43 353h-63l9 71z" />
    <glyph glyph-name="uni006F" unicode="o" horiz-adv-x="483" 
d="M14 194q0 103 60 184.5t185 81.5q103 0 151 -59t48 -150q0 -117 -68.5 -189t-179.5 -72q-92 0 -144 52.5t-52 151.5zM149 205q0 -54 14.5 -85.5t58.5 -31.5q57 0 80 47t23 112q0 115 -79 115q-97 0 -97 -157z" />
    <glyph glyph-name="uni0070" unicode="p" horiz-adv-x="532" 
d="M200 451l4 -92q20 41 55 71t88 30q82 0 121 -57.5t39 -133.5q0 -65 -23.5 -129.5t-71.5 -107t-123 -42.5q-85 0 -118 65l-21 -170h87l-9 -71l-31 -27h-241l9 71l31 27h30l58 468h-63l9 71l31 27h139zM273 88q47 0 73 54t26 112q0 44 -16.5 76t-54.5 32q-46 0 -72.5 -38.5
t-35.5 -84.5l-6 -51q0 -100 86 -100z" />
    <glyph glyph-name="uni0071" unicode="q" horiz-adv-x="510" 
d="M456 -186l-31 -27h-241l9 71l31 27h60l25 201q-23 -40 -61 -68t-90 -28q-74 0 -109 56t-35 134q0 63 23 127.5t70 108.5t119 44q98 0 128 -84q4 19 9 37.5t12 37.5h120q-13 -41 -22.5 -80t-14.5 -80l-50 -406h57zM246 362q-48 0 -73 -50t-25 -118q0 -47 14 -76.5
t47 -29.5q41 0 74 40.5t42 84.5l5 45q1 50 -25 77t-59 27z" />
    <glyph glyph-name="uni0072" unicode="r" horiz-adv-x="357" 
d="M72 451h129l7 -124q15 47 41.5 90t67.5 43q28 0 49 -18l-20 -133q-28 15 -52 15q-68 0 -84 -70l-22 -156h86l-9 -71l-31 -27h-241l9 71l31 27h30l31 255h-62l9 71z" />
    <glyph glyph-name="uni0073" unicode="s" horiz-adv-x="440" 
d="M198 88q32 0 52 11t20 32q0 29 -35.5 38.5t-78.5 21.5q-44 12 -80.5 37.5t-36.5 86.5q0 80 62 112.5t133 32.5q37 0 85 -9t88 -32l-1 -115l-99 -11l-2 56q-37 13 -71 13q-20 0 -43 -9t-23 -31q0 -21 26 -29t69 -19q45 -12 91 -38t46 -97q0 -77 -58 -113t-138 -36
q-43 0 -102 10.5t-101 33.5l31 126l97 -11l-5 -52q17 -6 40.5 -7.5t33.5 -1.5z" />
    <glyph glyph-name="uni0074" unicode="t" horiz-adv-x="360" 
d="M24 420l34 31h29l12 97l39 40h90l-17 -137h135l-9 -66l-34 -32h-104l-25 -206q-7 -59 30 -59q16 0 31.5 14.5t28.5 66.5l87 -29q-19 -78 -56 -114t-104 -36q-72 0 -111.5 37.5t-31.5 107.5l27 218h-60z" />
    <glyph glyph-name="uni0075" unicode="u" horiz-adv-x="543" 
d="M511 98l-9 -71l-31 -27h-139l-5 87q-23 -43 -59 -69.5t-86 -26.5q-61 0 -101.5 38t-30.5 118l25 206h-58l9 73l30 25h154l-31 -254q-7 -59 8.5 -83.5t52.5 -24.5q45 0 67.5 30t28.5 77v-1l31 256h124l-43 -353h63z" />
    <glyph glyph-name="uni0076" unicode="v" horiz-adv-x="482" 
d="M245 380l-31 -27h-27l67 -205h6q46 64 67 111t21 99q0 44 -20 93h139q11 -56 -1.5 -122t-68.5 -140q-25 -34 -75 -90t-94 -99h-55l-119 353h-47l9 71l31 27h207z" />
    <glyph glyph-name="uni0077" unicode="w" horiz-adv-x="734" 
d="M511 148h5q46 64 65.5 110.5t19.5 95.5q0 48 -20 97h139q11 -61 -3 -126t-67 -136q-26 -34 -74 -90t-92 -99h-52l-66 260h-6l-146 -260h-66l-96 353h-44l9 71l31 27h203l-9 -71l-31 -27h-31l35 -178h6l144 276h74z" />
    <glyph glyph-name="uni0078" unicode="x" horiz-adv-x="510" 
d="M485 27l-31 -27h-233l9 71l31 27h26l-63 81q-59 -41 -71.5 -86.5t1.5 -92.5h-139q-26 71 29.5 119t136.5 103l-114 131h-52l9 71l31 27h225l-9 -71l-31 -27h-28l55 -71q51 44 65 84.5t3 84.5h139q16 -47 -11 -85t-71 -70t-78 -57l118 -141h62z" />
    <glyph glyph-name="uni0079" unicode="y" horiz-adv-x="480" 
d="M254 148h6q46 64 67 111t21 99q0 44 -20 93h139q11 -56 -1.5 -122t-68.5 -140q-19 -25 -51 -62t-67 -75l-26 -167h63l-9 -71l-31 -27h-231l9 71l31 27h44l26 168l-101 300h-47l9 71l31 27h207l-9 -71l-31 -27h-27z" />
    <glyph glyph-name="uni007A" unicode="z" horiz-adv-x="450" 
d="M388 0h-381l-10 68l273 285h-127l-26 -70l-90 10l31 158h361l15 -68l-272 -285h143l29 70l98 -10z" />
    <glyph glyph-name="uni0030.zero" horiz-adv-x="566" 
d="M26 222q0 129 74 218t210 89q112 0 168.5 -65.5t56.5 -180.5q0 -145 -79.5 -219t-201.5 -74q-101 0 -164.5 54.5t-63.5 177.5zM169 236q0 -66 19.5 -97t75.5 -31q52 0 91.5 35t39.5 142q0 68 -21.5 97t-77.5 29q-62 0 -94.5 -38t-32.5 -137zM336 319l-12 -111h-96l12 111
h96z" />
    <glyph glyph-name="uni0030" unicode="0" horiz-adv-x="566" 
d="M26 222q0 129 74 218t210 89q112 0 168.5 -65.5t56.5 -180.5q0 -145 -79.5 -219t-201.5 -74q-101 0 -164.5 54.5t-63.5 177.5zM169 236q0 -66 19.5 -97t75.5 -31q52 0 91.5 35t39.5 142q0 68 -21.5 97t-77.5 29q-62 0 -94.5 -38t-32.5 -137z" />
    <glyph glyph-name="uni0031" unicode="1" horiz-adv-x="394" 
d="M25 114h108l31 293h-108l12 114h239l-12 -114l-31 -293h98l-12 -114h-337z" />
    <glyph glyph-name="uni0032" unicode="2" horiz-adv-x="525" 
d="M154 328l-100 11l38 153q58 24 112 31.5t89 7.5q107 0 148 -41.5t41 -97.5q0 -70 -48 -119.5t-119 -86.5t-140 -72h194l11 73l103 -10l-22 -177h-445l-1 106q85 51 158.5 93.5t119 82.5t45.5 81q0 30 -23.5 42t-56.5 12q-17 0 -41 -3.5t-40 -11.5z" />
    <glyph glyph-name="uni0033" unicode="3" horiz-adv-x="523" 
d="M155 328l-100 11l37 153q59 24 113.5 31.5t87.5 7.5q82 0 135.5 -35t53.5 -112q0 -50 -28 -93t-98 -72l-1 -4q117 -26 117 -147q0 -104 -71 -156.5t-178 -52.5q-106 0 -162.5 48.5t-49.5 130.5l110 33q-4 -35 20.5 -66.5t82.5 -31.5q60 0 83.5 34.5t23.5 69.5
q0 47 -35 66t-105 22l9 88q68 0 97 21.5t35 45.5t6 30q0 67 -77 67q-17 0 -42 -3.5t-41 -11.5z" />
    <glyph glyph-name="uni0034" unicode="4" horiz-adv-x="558" 
d="M400 -130h-131l18 171h-282l-1 111l231 369h233l-39 -369h98l-22 -111h-87zM298 152l27 255h-46l-153 -255h172z" />
    <glyph glyph-name="uni0035" unicode="5" horiz-adv-x="511" 
d="M467 86q0 -119 -74.5 -173t-180.5 -54q-103 0 -159.5 46.5t-48.5 132.5l110 33q-4 -35 19 -66.5t81 -31.5q62 0 86 34.5t24 72.5q0 57 -42 74.5t-97 17.5q-24 0 -48 -2t-46 -3l-38 41l33 313h392l-1 -183l-112 -10l-10 79h-160l-13 -127q9 1 18.5 1h18.5
q103 0 175.5 -38.5t72.5 -156.5z" />
    <glyph glyph-name="uni0036" unicode="6" horiz-adv-x="527" 
d="M492 238q0 -105 -66 -176.5t-179 -71.5q-110 0 -162.5 73t-52.5 205q0 88 26.5 179t90.5 152t176 61q55 0 107 -20t80 -70l-83 -77q-34 53 -112 53q-65 0 -98 -50.5t-44 -156.5q21 31 60 56t97 25q88 0 124 -56t36 -126zM356 224q0 41 -17.5 64t-61.5 23
q-47 0 -73.5 -25.5t-33.5 -64.5q-1 -58 17 -85.5t66 -27.5q55 0 79 33t24 83z" />
    <glyph glyph-name="uni0037" unicode="7" horiz-adv-x="486" 
d="M49 521h441l10 -63l-287 -588h-130l269 538h-200l-11 -109h-115z" />
    <glyph glyph-name="uni0038" unicode="8" horiz-adv-x="528" 
d="M227 -10q-95 0 -153 39.5t-58 119.5q0 72 44 109t102 61q-40 25 -69 61t-29 91q0 83 67.5 136t173.5 53q89 0 143.5 -40t54.5 -111q0 -61 -37.5 -95t-89.5 -57q46 -26 80.5 -65.5t34.5 -103.5q0 -93 -75.5 -145.5t-188.5 -52.5zM207 489q0 -34 33 -56t77 -44
q23 17 37.5 39.5t14.5 54.5q0 42 -22.5 55.5t-51.5 13.5q-88 0 -88 -63zM248 98q48 0 74.5 22t26.5 53q0 40 -40.5 64.5t-90.5 50.5q-28 -18 -46.5 -42.5t-18.5 -61.5q0 -86 95 -86z" />
    <glyph glyph-name="uni0039" unicode="9" horiz-adv-x="527" 
d="M32 282q0 105 66 176.5t179 71.5q110 0 162.5 -73t52.5 -205q0 -88 -26.5 -179t-90.5 -152t-176 -61q-55 0 -107 20t-80 70l83 77q34 -53 112 -53q65 0 98 50.5t44 156.5q-21 -31 -60 -56t-97 -25q-88 0 -124 56t-36 126zM168 296q0 -41 17.5 -64t61.5 -23
q47 0 73.5 25.5t33.5 64.5q1 58 -17 85.5t-66 27.5q-55 0 -79 -33t-24 -83z" />
    <glyph glyph-name="uni00C1" unicode="&#xc1;" horiz-adv-x="660" 
d="M551 716l-223 -28l-13 57l210 88zM-5 114h57l222 422h-86l12 114h214l169 -536h59l-12 -114h-248l12 114h50l-17 66h-212l-32 -66h58l-12 -114h-246zM351 459l-89 -183h141l-46 183h-6z" />
    <glyph glyph-name="uni00C2" unicode="&#xc2;" horiz-adv-x="660" 
d="M406 844l122 -107l-33 -52l-125 60l-129 -60l-24 52l145 107h44zM-5 114h57l222 422h-86l12 114h214l169 -536h59l-12 -114h-248l12 114h50l-17 66h-212l-32 -66h58l-12 -114h-246zM351 459l-89 -183h141l-46 183h-6z" />
    <glyph glyph-name="uni00C4" unicode="&#xc4;" horiz-adv-x="660" 
d="M219 705l14 134h127l-14 -134h-127zM400 705l14 134h127l-14 -134h-127zM-5 114h57l222 422h-86l12 114h214l169 -536h59l-12 -114h-248l12 114h50l-17 66h-212l-32 -66h58l-12 -114h-246zM351 459l-89 -183h141l-46 183h-6z" />
    <glyph glyph-name="uni00C5" unicode="&#xc5;" horiz-adv-x="660" 
d="M372 689q-93 0 -93 82q0 44 28.5 73t85.5 29q93 0 93 -81q0 -42 -28 -72.5t-86 -30.5zM378 749q30 0 30 39q0 25 -22 25q-28 0 -28 -40q0 -24 20 -24zM-5 114h57l222 422h-86l12 114h214l169 -536h59l-12 -114h-248l12 114h50l-17 66h-212l-32 -66h58l-12 -114h-246z
M351 459l-89 -183h141l-46 183h-6z" />
    <glyph glyph-name="uni00C0" unicode="&#xc0;" horiz-adv-x="660" 
d="M441 688l-223 28l26 117l210 -88zM-5 114h57l222 422h-86l12 114h214l169 -536h59l-12 -114h-248l12 114h50l-17 66h-212l-32 -66h58l-12 -114h-246zM351 459l-89 -183h141l-46 183h-6z" />
    <glyph glyph-name="uni00C3" unicode="&#xc3;" horiz-adv-x="660" 
d="M257 698l-47 16q1 28 23.5 69t72.5 41q33 0 58.5 -15.5t50.5 -15.5q14 0 28 8t23 30l52 -11q-4 -44 -24.5 -82t-70.5 -38q-36 0 -61.5 15.5t-59.5 15.5q-32 0 -45 -33zM-5 114h57l222 422h-86l12 114h214l169 -536h59l-12 -114h-248l12 114h50l-17 66h-212l-32 -66h58
l-12 -114h-246zM351 459l-89 -183h141l-46 183h-6z" />
    <glyph glyph-name="uni0102" unicode="&#x102;" horiz-adv-x="660" 
d="M433 833h100q-7 -71 -48.5 -104.5t-103.5 -33.5q-137 0 -122 138h100q-7 -61 30 -61q20 0 30.5 18.5t13.5 42.5zM-5 114h57l222 422h-86l12 114h214l169 -536h59l-12 -114h-248l12 114h50l-17 66h-212l-32 -66h58l-12 -114h-246zM351 459l-89 -183h141l-46 183h-6z" />
    <glyph glyph-name="uni0100" unicode="&#x100;" horiz-adv-x="660" 
d="M232 819h302l-10 -98h-302zM-5 114h57l222 422h-86l12 114h214l169 -536h59l-12 -114h-248l12 114h50l-17 66h-212l-32 -66h58l-12 -114h-246zM351 459l-89 -183h141l-46 183h-6z" />
    <glyph glyph-name="uni0104" unicode="&#x104;" horiz-adv-x="660" 
d="M-5 114h57l222 422h-86l12 114h214l169 -536h59l-12 -114h-41q-35 -22 -43 -43t-8 -35q0 -24 11 -32t27 -8q26 0 46 12v-82q-17 -8 -39.5 -14t-50.5 -6q-45 0 -76 19.5t-31 63.5q0 40 25 72.5t60 52.5h-128l12 114h50l-17 66h-212l-32 -66h58l-12 -114h-246zM351 459
l-89 -183h141l-46 183h-6z" />
    <glyph glyph-name="uni00C6" unicode="&#xc6;" horiz-adv-x="916" 
d="M840 0h-495l12 114h69l7 66h-212l-37 -66h55l-12 -114h-251l12 114h62l253 422h-80l12 114h668l-1 -190l-110 -10l-10 86h-181l-16 -153h269l-12 -113h-269l-16 -156h186l29 86l108 -10zM443 276l27 260h-47l-147 -260h167z" />
    <glyph glyph-name="uni01FC" unicode="&#x1fc;" horiz-adv-x="916" 
d="M828 716l-223 -28l-13 57l210 88zM840 0h-495l12 114h69l7 66h-212l-37 -66h55l-12 -114h-251l12 114h62l253 422h-80l12 114h668l-1 -190l-110 -10l-10 86h-181l-16 -153h269l-12 -113h-269l-16 -156h186l29 86l108 -10zM443 276l27 260h-47l-147 -260h167z" />
    <glyph glyph-name="uni01E2" unicode="&#x1e2;" horiz-adv-x="917" 
d="M522 819h302l-10 -98h-302zM840 0h-495l12 114h69l7 66h-212l-37 -66h55l-12 -114h-251l12 114h62l253 422h-80l12 114h668l-1 -190l-110 -10l-10 86h-181l-16 -153h269l-12 -113h-269l-16 -156h186l29 86l108 -10zM443 276l27 260h-47l-147 -260h167z" />
    <glyph glyph-name="uni00C7" unicode="&#xc7;" horiz-adv-x="617" 
d="M559 69q-33 -33 -99 -54.5t-132 -24.5l-4 -31h8q44 0 61.5 -22.5t17.5 -50.5q0 -53 -44.5 -74t-93.5 -21q-78 0 -110 30l29 70q10 -7 29 -15t46 -8q37 0 37 23q0 10 -6.5 16.5t-28.5 6.5h-36l12 83q-105 20 -161 100t-56 189q0 81 35 167.5t114 146.5t210 60
q85 0 140 -24.5t83 -53.5v-151l-108 -10l-5 86q-23 17 -58 26t-70 9q-91 0 -146.5 -61t-55.5 -179q0 -194 168 -194q78 0 123 27l25 97l105 -10z" />
    <glyph glyph-name="uni0106" unicode="&#x106;" horiz-adv-x="617" 
d="M535 716l-223 -28l-13 57l210 88zM559 69q-35 -35 -106.5 -57t-140.5 -22q-136 0 -210 86t-74 210q0 81 35 167.5t114 146.5t210 60q85 0 140 -24.5t83 -53.5v-151l-108 -10l-5 86q-23 17 -58 26t-70 9q-91 0 -146.5 -61t-55.5 -179q0 -194 168 -194q78 0 123 27l25 97
l105 -10z" />
    <glyph glyph-name="uni010C" unicode="&#x10c;" horiz-adv-x="617" 
d="M353 685l-122 107l32 52l126 -62l128 62l24 -53l-144 -106h-44zM559 69q-35 -35 -106.5 -57t-140.5 -22q-136 0 -210 86t-74 210q0 81 35 167.5t114 146.5t210 60q85 0 140 -24.5t83 -53.5v-151l-108 -10l-5 86q-23 17 -58 26t-70 9q-91 0 -146.5 -61t-55.5 -179
q0 -194 168 -194q78 0 123 27l25 97l105 -10z" />
    <glyph glyph-name="uni0108" unicode="&#x108;" horiz-adv-x="617" 
d="M415 844l122 -107l-33 -52l-125 60l-129 -60l-24 52l145 107h44zM559 69q-35 -35 -106.5 -57t-140.5 -22q-136 0 -210 86t-74 210q0 81 35 167.5t114 146.5t210 60q85 0 140 -24.5t83 -53.5v-151l-108 -10l-5 86q-23 17 -58 26t-70 9q-91 0 -146.5 -61t-55.5 -179
q0 -194 168 -194q78 0 123 27l25 97l105 -10z" />
    <glyph glyph-name="uni010A" unicode="&#x10a;" horiz-adv-x="617" 
d="M313 705l14 134h127l-14 -134h-127zM559 69q-35 -35 -106.5 -57t-140.5 -22q-136 0 -210 86t-74 210q0 81 35 167.5t114 146.5t210 60q85 0 140 -24.5t83 -53.5v-151l-108 -10l-5 86q-23 17 -58 26t-70 9q-91 0 -146.5 -61t-55.5 -179q0 -194 168 -194q78 0 123 27l25 97
l105 -10z" />
    <glyph glyph-name="uni010E" unicode="&#x10e;" horiz-adv-x="673" 
d="M355 685l-122 107l32 52l126 -62l128 62l24 -53l-144 -106h-44zM363 650q147 0 219.5 -77t72.5 -210q0 -158 -95.5 -260.5t-256.5 -102.5h-294l12 114h68l44 422h-68l12 114h286zM305 114q102 0 157 60t55 176q0 186 -168 186h-88l-44 -422h88z" />
    <glyph glyph-name="uni0110" unicode="&#x110;" horiz-adv-x="676" 
d="M46 393h75l15 143h-68l12 114h286q147 0 219.5 -77t72.5 -210q0 -158 -95.5 -260.5t-256.5 -102.5h-294l12 114h68l18 179h-75zM308 114q102 0 157 60t55 176q0 186 -168 186h-88l-15 -143h112l-11 -100h-112l-18 -179h88z" />
    <glyph glyph-name="uni00C9" unicode="&#xc9;" horiz-adv-x="569" 
d="M515 716l-223 -28l-13 57l210 88zM497 0h-489l12 114h69l44 422h-69l12 114h483v-190l-110 -10l-10 86h-178l-16 -153h272l-12 -113h-272l-16 -156h183l29 86l108 -10z" />
    <glyph glyph-name="uni00CA" unicode="&#xca;" horiz-adv-x="569" 
d="M394 844l122 -107l-33 -52l-125 60l-129 -60l-24 52l145 107h44zM497 0h-489l12 114h69l44 422h-69l12 114h483v-190l-110 -10l-10 86h-178l-16 -153h272l-12 -113h-272l-16 -156h183l29 86l108 -10z" />
    <glyph glyph-name="uni00CB" unicode="&#xcb;" horiz-adv-x="569" 
d="M204 705l14 134h127l-14 -134h-127zM385 705l14 134h127l-14 -134h-127zM497 0h-489l12 114h69l44 422h-69l12 114h483v-190l-110 -10l-10 86h-178l-16 -153h272l-12 -113h-272l-16 -156h183l29 86l108 -10z" />
    <glyph glyph-name="uni00C8" unicode="&#xc8;" horiz-adv-x="569" 
d="M445 688l-223 28l26 117l210 -88zM497 0h-489l12 114h69l44 422h-69l12 114h483v-190l-110 -10l-10 86h-178l-16 -153h272l-12 -113h-272l-16 -156h183l29 86l108 -10z" />
    <glyph glyph-name="uni0114" unicode="&#x114;" horiz-adv-x="569" 
d="M410 833h100q-8 -71 -49 -104.5t-103 -33.5q-137 0 -122 138h100q-7 -61 30 -61q20 0 30.5 18.5t13.5 42.5zM497 0h-489l12 114h69l44 422h-69l12 114h483v-190l-110 -10l-10 86h-178l-16 -153h272l-12 -113h-272l-16 -156h183l29 86l108 -10z" />
    <glyph glyph-name="uni011A" unicode="&#x11a;" horiz-adv-x="569" 
d="M329 685l-122 107l32 52l126 -62l128 62l24 -53l-144 -106h-44zM497 0h-489l12 114h69l44 422h-69l12 114h483v-190l-110 -10l-10 86h-178l-16 -153h272l-12 -113h-272l-16 -156h183l29 86l108 -10z" />
    <glyph glyph-name="uni0116" unicode="&#x116;" horiz-adv-x="569" 
d="M294 705l14 134h127l-14 -134h-127zM497 0h-489l12 114h69l44 422h-69l12 114h483v-190l-110 -10l-10 86h-178l-16 -153h272l-12 -113h-272l-16 -156h183l29 86l108 -10z" />
    <glyph glyph-name="uni0112" unicode="&#x112;" horiz-adv-x="569" 
d="M220 819h302l-10 -98h-302zM497 0h-489l12 114h69l44 422h-69l12 114h483v-190l-110 -10l-10 86h-178l-16 -153h272l-12 -113h-272l-16 -156h183l29 86l108 -10z" />
    <glyph glyph-name="uni0118" unicode="&#x118;" horiz-adv-x="569" 
d="M497 0h-45q-34 -22 -42.5 -43t-8.5 -35q0 -24 10.5 -32t27.5 -8q27 0 46 12v-82q-17 -8 -39.5 -14t-50.5 -6q-45 0 -76 19.5t-31 63.5q0 40 25 72.5t60 52.5h-365l12 114h69l44 422h-69l12 114h483v-190l-110 -10l-10 86h-178l-16 -153h272l-12 -113h-272l-16 -156h183
l29 86l108 -10z" />
    <glyph glyph-name="uni1EBC" unicode="&#x1ebc;" horiz-adv-x="569" 
d="M251 698l-47 16q1 28 23.5 69t72.5 41q33 0 58.5 -15.5t50.5 -15.5q14 0 28 8t23 30l52 -11q-4 -44 -24.5 -82t-70.5 -38q-36 0 -61.5 15.5t-59.5 15.5q-32 0 -45 -33zM497 0h-489l12 114h69l44 422h-69l12 114h483v-190l-110 -10l-10 86h-178l-16 -153h272l-12 -113
h-272l-16 -156h183l29 86l108 -10z" />
    <glyph glyph-name="uni011E" unicode="&#x11e;" horiz-adv-x="656" 
d="M421 833h100q-7 -71 -48.5 -104.5t-103.5 -33.5q-137 0 -122 138h100q-7 -61 30 -61q20 0 30.5 18.5t13.5 42.5zM631 246h-32l-26 -246h-101l-5 64q-31 -34 -75.5 -54t-104.5 -20q-123 0 -192 83t-69 214q0 97 40 182t119 138t197 53q77 0 140.5 -23t91.5 -55l3 -141
l-107 -10l-10 76q-22 17 -61 26t-71 9q-88 0 -145 -64t-57 -180q0 -100 43 -145t113 -45q123 0 145 132l1 6h-125l12 113h288z" />
    <glyph glyph-name="uni0122" unicode="&#x122;" horiz-adv-x="656" 
d="M631 246h-32l-26 -246h-101l-5 64q-31 -34 -75.5 -54t-104.5 -20q-123 0 -192 83t-69 214q0 97 40 182t119 138t197 53q77 0 140.5 -23t91.5 -55l3 -141l-107 -10l-10 76q-22 17 -61 26t-71 9q-88 0 -145 -64t-57 -180q0 -100 43 -145t113 -45q123 0 145 132l1 6h-125
l12 113h288zM371 -58l-42 -155h-96l19 155h119z" />
    <glyph glyph-name="uni011C" unicode="&#x11c;" horiz-adv-x="656" 
d="M411 844l122 -107l-33 -52l-125 60l-129 -60l-24 52l145 107h44zM631 246h-32l-26 -246h-101l-5 64q-31 -34 -75.5 -54t-104.5 -20q-123 0 -192 83t-69 214q0 97 40 182t119 138t197 53q77 0 140.5 -23t91.5 -55l3 -141l-107 -10l-10 76q-22 17 -61 26t-71 9
q-88 0 -145 -64t-57 -180q0 -100 43 -145t113 -45q123 0 145 132l1 6h-125l12 113h288z" />
    <glyph glyph-name="uni0120" unicode="&#x120;" horiz-adv-x="656" 
d="M313 705l14 134h127l-14 -134h-127zM631 246h-32l-26 -246h-101l-5 64q-31 -34 -75.5 -54t-104.5 -20q-123 0 -192 83t-69 214q0 97 40 182t119 138t197 53q77 0 140.5 -23t91.5 -55l3 -141l-107 -10l-10 76q-22 17 -61 26t-71 9q-88 0 -145 -64t-57 -180q0 -100 43 -145
t113 -45q123 0 145 132l1 6h-125l12 113h288z" />
    <glyph glyph-name="uni0126" unicode="&#x126;" horiz-adv-x="732" 
d="M414 114h67l16 159h-264l-16 -159h68l-12 -114h-263l12 114h67l32 310h-72l8 77h72l4 35h-67l12 114h263l-12 -114h-68l-4 -35h264l4 35h-67l12 114h263l-12 -114h-67l-4 -35h73l-8 -77h-73l-32 -310h67l-12 -114h-263zM245 386h264l4 38h-264z" />
    <glyph glyph-name="uni0124" unicode="&#x124;" horiz-adv-x="732" 
d="M448 844l122 -107l-33 -52l-125 60l-129 -60l-24 52l145 107h44zM21 114h67l44 422h-67l12 114h263l-12 -114h-68l-16 -150h264l16 150h-67l12 114h263l-12 -114h-67l-44 -422h67l-12 -114h-263l12 114h67l16 159h-264l-16 -159h68l-12 -114h-263z" />
    <glyph glyph-name="uni00CD" unicode="&#xcd;" horiz-adv-x="339" 
d="M365 716l-223 -28l-13 57l210 88zM21 114h67l44 422h-67l12 114h263l-12 -114h-68l-44 -422h68l-12 -114h-263z" />
    <glyph glyph-name="uni00CE" unicode="&#xce;" horiz-adv-x="339" 
d="M249 844l122 -107l-33 -52l-125 60l-129 -60l-24 52l145 107h44zM21 114h67l44 422h-67l12 114h263l-12 -114h-68l-44 -422h68l-12 -114h-263z" />
    <glyph glyph-name="uni00CF" unicode="&#xcf;" horiz-adv-x="339" 
d="M240 705l14 134h127l-14 -134h-127zM59 705l14 134h127l-14 -134h-127zM21 114h67l44 422h-67l12 114h263l-12 -114h-68l-44 -422h68l-12 -114h-263z" />
    <glyph glyph-name="uni00CC" unicode="&#xcc;" horiz-adv-x="339" 
d="M284 688l-223 28l26 117l210 -88zM21 114h67l44 422h-67l12 114h263l-12 -114h-68l-44 -422h68l-12 -114h-263z" />
    <glyph glyph-name="uni012C" unicode="&#x12c;" horiz-adv-x="339" 
d="M260 833h100q-8 -71 -49 -104.5t-103 -33.5q-137 0 -122 138h100q-7 -61 30 -61q20 0 30.5 18.5t13.5 42.5zM21 114h67l44 422h-67l12 114h263l-12 -114h-68l-44 -422h68l-12 -114h-263z" />
    <glyph glyph-name="uni0130" unicode="&#x130;" horiz-adv-x="339" 
d="M151 705l14 134h127l-14 -134h-127zM21 114h67l44 422h-67l12 114h263l-12 -114h-68l-44 -422h68l-12 -114h-263z" />
    <glyph glyph-name="uni012A" unicode="&#x12a;" horiz-adv-x="339" 
d="M76 819h302l-10 -98h-302zM21 114h67l44 422h-67l12 114h263l-12 -114h-68l-44 -422h68l-12 -114h-263z" />
    <glyph glyph-name="uni012E" unicode="&#x12e;" horiz-adv-x="340" 
d="M218 -188q-17 -8 -39.5 -14t-50.5 -6q-45 0 -76 19.5t-31 63.5q0 40 25 72.5t60 52.5h-96l12 114h67l44 422h-67l12 114h263l-12 -114h-68l-44 -422h68l-12 -114h-88q-35 -22 -43 -43t-8 -35q0 -24 11 -32t27 -8q26 0 46 12v-82z" />
    <glyph glyph-name="uni0128" unicode="&#x128;" horiz-adv-x="339" 
d="M117 698l-47 16q1 28 23.5 69t72.5 41q33 0 58.5 -15.5t50.5 -15.5q14 0 28 8t23 30l52 -11q-4 -44 -24.5 -82t-70.5 -38q-36 0 -61.5 15.5t-59.5 15.5q-32 0 -45 -33zM21 114h67l44 422h-67l12 114h263l-12 -114h-68l-44 -422h68l-12 -114h-263z" />
    <glyph glyph-name="uni0134" unicode="&#x134;" horiz-adv-x="465" 
d="M366 844l122 -107l-33 -52l-125 60l-129 -60l-24 52l145 107h44zM179 650h296l-12 -114h-57l-37 -351q-11 -98 -68 -146.5t-142 -48.5q-80 0 -119.5 37t-54.5 86l97 71q12 -44 33.5 -57t44.5 -13q38 0 57 20t22 50l37 352h-109z" />
    <glyph glyph-name="uni0136" unicode="&#x136;" horiz-adv-x="648" 
d="M350 114h57l-97 160h-77l-16 -160h52l-12 -114h-248l12 114h67l44 422h-67l12 114h251l-12 -114h-55l-16 -153h79l126 153h-54l12 114h259l-12 -114h-69l-170 -195l142 -227h64l-12 -114h-272zM352 -58l-42 -155h-96l19 155h119z" />
    <glyph glyph-name="uni0139" unicode="&#x139;" horiz-adv-x="535" 
d="M360 716l-223 -28l-13 57l210 88zM482 0h-475l12 114h69l44 422h-69l12 114h289l-12 -114h-91l-44 -422h169l32 126l108 -10z" />
    <glyph glyph-name="uni013D" unicode="&#x13d;" horiz-adv-x="536" 
d="M537 681l-59 -224h-96l36 224h119zM482 0h-475l12 114h69l44 422h-69l12 114h289l-12 -114h-91l-44 -422h169l32 126l108 -10z" />
    <glyph glyph-name="uni013B" unicode="&#x13b;" horiz-adv-x="535" 
d="M482 0h-475l12 114h69l44 422h-69l12 114h289l-12 -114h-91l-44 -422h169l32 126l108 -10zM308 -58l-42 -155h-96l19 155h119z" />
    <glyph glyph-name="uni013F" unicode="&#x13f;" horiz-adv-x="535" 
d="M482 0h-475l12 114h69l44 422h-69l12 114h289l-12 -114h-91l-44 -422h169l32 126l108 -10zM295 271l14 134h127l-14 -134h-127z" />
    <glyph glyph-name="uni0141" unicode="&#x141;" horiz-adv-x="538" 
d="M485 0h-475l12 114h69l15 147l-85 -26l11 100l85 26l18 175h-69l12 114h289l-12 -114h-91l-14 -133l136 42l-10 -100l-137 -42l-19 -189h169l32 126l108 -10z" />
    <glyph glyph-name="uni00D1" unicode="&#xd1;" horiz-adv-x="732" 
d="M294 698l-47 16q1 28 24 69t72 41q33 0 58.5 -15.5t50.5 -15.5q14 0 28 8t23 30l52 -11q-5 -44 -25 -82t-70 -38q-36 0 -61.5 15.5t-59.5 15.5q-32 0 -45 -33zM23 114h68l44 422h-78l12 114h170l275 -386h3l28 272h-90l12 114h278l-12 -114h-68l-56 -536l-72 -1l-292 413
h-3l-31 -298h86l-12 -114h-274z" />
    <glyph glyph-name="uni0143" unicode="&#x143;" horiz-adv-x="732" 
d="M572 716l-223 -28l-13 57l210 88zM23 114h68l44 422h-78l12 114h170l275 -386h3l28 272h-90l12 114h278l-12 -114h-68l-56 -536l-72 -1l-292 413h-3l-31 -298h86l-12 -114h-274z" />
    <glyph glyph-name="uni0147" unicode="&#x147;" horiz-adv-x="732" 
d="M383 685l-122 107l32 52l126 -62l128 62l24 -53l-144 -106h-44zM467 650h278l-12 -114h-68l-56 -536l-72 -1l-292 413h-3l-31 -298h86l-12 -114h-274l12 114h68l44 422h-78l12 114h170l275 -386h3l28 272h-90z" />
    <glyph glyph-name="uni0145" unicode="&#x145;" horiz-adv-x="732" 
d="M23 114h68l44 422h-78l12 114h170l275 -386h3l28 272h-90l12 114h278l-12 -114h-68l-56 -536l-72 -1l-292 413h-3l-31 -298h86l-12 -114h-274zM405 -58l-42 -155h-96l19 155h119z" />
    <glyph glyph-name="uni014A" unicode="&#x14a;" horiz-adv-x="732" 
d="M285 0h-274l12 114h68l44 422h-78l12 114h170l275 -386h3l28 272h-90l12 114h278l-12 -114h-68l-57 -553q-9 -95 -67 -145t-147 -50q-82 0 -122.5 37t-55.5 86l99 71q13 -44 34.5 -57t44.5 -13q40 0 59.5 20t22.5 50l9 90l-240 340h-3l-31 -298h86z" />
    <glyph glyph-name="uni1E46" unicode="&#x1e46;" horiz-adv-x="732" 
d="M23 114h68l44 422h-78l12 114h170l275 -386h3l28 272h-90l12 114h278l-12 -114h-68l-56 -536l-72 -1l-292 413h-3l-31 -298h86l-12 -114h-274zM268 -197l14 134h127l-14 -134h-127z" />
    <glyph glyph-name="uni00D2" unicode="&#xd2;" horiz-adv-x="686" 
d="M455 688l-223 28l26 117l210 -88zM382 660q136 0 212 -88t76 -212q0 -100 -46 -184t-127 -135t-186 -51q-139 0 -211.5 88.5t-72.5 211.5q0 103 47 187t127.5 133.5t180.5 49.5zM331 108q101 0 150 75t49 167t-44 142t-118 50q-94 0 -147.5 -71t-53.5 -169
q0 -74 36.5 -134t127.5 -60z" />
    <glyph glyph-name="uni00D6" unicode="&#xd6;" horiz-adv-x="686" 
d="M242 705l14 134h127l-14 -134h-127zM423 705l14 134h127l-14 -134h-127zM382 660q136 0 212 -88t76 -212q0 -100 -46 -184t-127 -135t-186 -51q-139 0 -211.5 88.5t-72.5 211.5q0 103 47 187t127.5 133.5t180.5 49.5zM331 108q101 0 150 75t49 167t-44 142t-118 50
q-94 0 -147.5 -71t-53.5 -169q0 -74 36.5 -134t127.5 -60z" />
    <glyph glyph-name="uni00D5" unicode="&#xd5;" horiz-adv-x="686" 
d="M300 698l-47 16q1 28 24 69t72 41q33 0 58.5 -15.5t50.5 -15.5q14 0 28 8t23 30l52 -11q-5 -44 -25 -82t-70 -38q-36 0 -61.5 15.5t-59.5 15.5q-32 0 -45 -33zM382 660q136 0 212 -88t76 -212q0 -100 -46 -184t-127 -135t-186 -51q-139 0 -211.5 88.5t-72.5 211.5
q0 103 47 187t127.5 133.5t180.5 49.5zM331 108q101 0 150 75t49 167t-44 142t-118 50q-94 0 -147.5 -71t-53.5 -169q0 -74 36.5 -134t127.5 -60z" />
    <glyph glyph-name="uni014E" unicode="&#x14e;" horiz-adv-x="686" 
d="M453 833h100q-7 -71 -48.5 -104.5t-103.5 -33.5q-137 0 -122 138h100q-7 -61 30 -61q20 0 30.5 18.5t13.5 42.5zM382 660q136 0 212 -88t76 -212q0 -100 -46 -184t-127 -135t-186 -51q-139 0 -211.5 88.5t-72.5 211.5q0 103 47 187t127.5 133.5t180.5 49.5zM331 108
q101 0 150 75t49 167t-44 142t-118 50q-94 0 -147.5 -71t-53.5 -169q0 -74 36.5 -134t127.5 -60z" />
    <glyph glyph-name="uni00D3" unicode="&#xd3;" horiz-adv-x="686" 
d="M544 716l-223 -28l-13 57l210 88zM382 660q136 0 212 -88t76 -212q0 -100 -46 -184t-127 -135t-186 -51q-139 0 -211.5 88.5t-72.5 211.5q0 103 47 187t127.5 133.5t180.5 49.5zM331 108q101 0 150 75t49 167t-44 142t-118 50q-94 0 -147.5 -71t-53.5 -169
q0 -74 36.5 -134t127.5 -60z" />
    <glyph glyph-name="uni00D4" unicode="&#xd4;" horiz-adv-x="686" 
d="M436 844l122 -107l-33 -52l-125 60l-129 -60l-24 52l145 107h44zM382 660q136 0 212 -88t76 -212q0 -100 -46 -184t-127 -135t-186 -51q-139 0 -211.5 88.5t-72.5 211.5q0 103 47 187t127.5 133.5t180.5 49.5zM331 108q101 0 150 75t49 167t-44 142t-118 50
q-94 0 -147.5 -71t-53.5 -169q0 -74 36.5 -134t127.5 -60z" />
    <glyph glyph-name="uni0150" unicode="&#x150;" horiz-adv-x="686" 
d="M505 821l-180 -134l-38 40l145 179zM645 716l-208 -28l-15 57l197 85zM382 660q136 0 212 -88t76 -212q0 -100 -46 -184t-127 -135t-186 -51q-139 0 -211.5 88.5t-72.5 211.5q0 103 47 187t127.5 133.5t180.5 49.5zM331 108q101 0 150 75t49 167t-44 142t-118 50
q-94 0 -147.5 -71t-53.5 -169q0 -74 36.5 -134t127.5 -60z" />
    <glyph glyph-name="uni014C" unicode="&#x14c;" horiz-adv-x="686" 
d="M264 819h302l-10 -98h-302zM382 660q136 0 212 -88t76 -212q0 -100 -46 -184t-127 -135t-186 -51q-139 0 -211.5 88.5t-72.5 211.5q0 103 47 187t127.5 133.5t180.5 49.5zM331 108q101 0 150 75t49 167t-44 142t-118 50q-94 0 -147.5 -71t-53.5 -169q0 -74 36.5 -134
t127.5 -60z" />
    <glyph glyph-name="uni00D8" unicode="&#xd8;" horiz-adv-x="682" 
d="M380 660q82 0 146 -36l21 26h124l-71 -87q68 -82 68 -203q0 -100 -46 -184t-127 -135t-186 -51q-86 0 -149 37l-22 -27h-113l67 84q-67 82 -67 206q0 103 47 187t127.5 133.5t180.5 49.5zM165 302q0 -58 19 -103l261 324q-32 19 -79 19q-94 0 -147.5 -71t-53.5 -169z
M329 108q101 0 150 75t49 167q0 58 -19 102l-266 -323q35 -21 86 -21z" />
    <glyph glyph-name="uni01FE" unicode="&#x1fe;" horiz-adv-x="682" 
d="M562 716l-223 -28l-13 57l210 88zM380 660q82 0 146 -36l21 26h124l-71 -87q68 -82 68 -203q0 -100 -46 -184t-127 -135t-186 -51q-86 0 -149 37l-22 -27h-113l67 84q-67 82 -67 206q0 103 47 187t127.5 133.5t180.5 49.5zM165 302q0 -58 19 -103l261 324q-32 19 -79 19
q-94 0 -147.5 -71t-53.5 -169zM329 108q101 0 150 75t49 167q0 58 -19 102l-266 -323q35 -21 86 -21z" />
    <glyph glyph-name="uni0154" unicode="&#x154;" horiz-adv-x="614" 
d="M504 716l-223 -28l-13 57l210 88zM21 114h67l44 422h-67l12 114h282q222 0 222 -180q0 -75 -38.5 -119.5t-103.5 -66.5l70 -170h76l-12 -114h-160l-98 248h-84l-14 -134h67l-12 -114h-263zM303 354q81 0 110 28.5t29 75.5q0 45 -25 61.5t-93 16.5h-63l-19 -182h61z" />
    <glyph glyph-name="uni0158" unicode="&#x158;" horiz-adv-x="614" 
d="M311 685l-122 107l32 52l126 -62l128 62l24 -53l-144 -106h-44zM21 114h67l44 422h-67l12 114h282q222 0 222 -180q0 -75 -38.5 -119.5t-103.5 -66.5l70 -170h76l-12 -114h-160l-98 248h-84l-14 -134h67l-12 -114h-263zM303 354q81 0 110 28.5t29 75.5q0 45 -25 61.5
t-93 16.5h-63l-19 -182h61z" />
    <glyph glyph-name="uni0156" unicode="&#x156;" horiz-adv-x="614" 
d="M21 114h67l44 422h-67l12 114h282q222 0 222 -180q0 -75 -38.5 -119.5t-103.5 -66.5l70 -170h76l-12 -114h-160l-98 248h-84l-14 -134h67l-12 -114h-263zM303 354q81 0 110 28.5t29 75.5q0 45 -25 61.5t-93 16.5h-63l-19 -182h61zM362 -58l-42 -155h-96l19 155h119z" />
    <glyph glyph-name="uni015A" unicode="&#x15a;" horiz-adv-x="538" 
d="M458 716l-223 -28l-13 57l210 88zM500 204q0 -104 -68.5 -159t-190.5 -55q-67 0 -129.5 17t-96.5 51l37 161l104 -10l-9 -79q31 -18 54 -21.5t36 -3.5q56 0 88.5 17.5t32.5 71.5q0 49 -28 63.5t-83 24.5q-44 8 -86.5 24.5t-70.5 51t-28 99.5q0 75 37.5 119.5t95 64
t117.5 19.5q66 0 120.5 -19.5t82.5 -52.5l-9 -141l-106 -10l-1 76q-23 17 -47 23t-48 6q-42 0 -72 -15.5t-30 -52.5q0 -39 32 -54t74 -24t86.5 -25.5t75 -54.5t30.5 -112z" />
    <glyph glyph-name="uni015E" unicode="&#x15e;" horiz-adv-x="538" 
d="M500 204q0 -93 -55 -147t-154 -64l-5 -34h8q44 0 61.5 -22.5t17.5 -50.5q0 -53 -44.5 -74t-93.5 -21q-78 0 -110 30l29 70q10 -7 29 -15t46 -8q37 0 37 23q0 10 -6.5 16.5t-28.5 6.5h-36l11 77q-58 4 -110 20.5t-81 46.5l37 161l104 -10l-9 -79q31 -18 54 -21.5t36 -3.5
q56 0 88.5 17.5t32.5 71.5q0 49 -28 63.5t-83 24.5q-44 8 -86.5 24.5t-70.5 51t-28 99.5q0 75 37.5 119.5t95 64t117.5 19.5q66 0 120.5 -19.5t82.5 -52.5l-9 -141l-106 -10l-1 76q-23 17 -47 23t-48 6q-42 0 -72 -15.5t-30 -52.5q0 -39 32 -54t74 -24t86.5 -25.5t75 -54.5
t30.5 -112z" />
    <glyph glyph-name="uni0160" unicode="&#x160;" horiz-adv-x="538" 
d="M277 685l-122 107l32 52l126 -62l128 62l24 -53l-144 -106h-44zM500 204q0 -104 -68.5 -159t-190.5 -55q-67 0 -129.5 17t-96.5 51l37 161l104 -10l-9 -79q31 -18 54 -21.5t36 -3.5q56 0 88.5 17.5t32.5 71.5q0 49 -28 63.5t-83 24.5q-44 8 -86.5 24.5t-70.5 51t-28 99.5
q0 75 37.5 119.5t95 64t117.5 19.5q66 0 120.5 -19.5t82.5 -52.5l-9 -141l-106 -10l-1 76q-23 17 -47 23t-48 6q-42 0 -72 -15.5t-30 -52.5q0 -39 32 -54t74 -24t86.5 -25.5t75 -54.5t30.5 -112z" />
    <glyph glyph-name="uni015C" unicode="&#x15c;" horiz-adv-x="538" 
d="M346 844l122 -107l-33 -52l-125 60l-129 -60l-24 52l145 107h44zM500 204q0 -104 -68.5 -159t-190.5 -55q-67 0 -129.5 17t-96.5 51l37 161l104 -10l-9 -79q31 -18 54 -21.5t36 -3.5q56 0 88.5 17.5t32.5 71.5q0 49 -28 63.5t-83 24.5q-44 8 -86.5 24.5t-70.5 51
t-28 99.5q0 75 37.5 119.5t95 64t117.5 19.5q66 0 120.5 -19.5t82.5 -52.5l-9 -141l-106 -10l-1 76q-23 17 -47 23t-48 6q-42 0 -72 -15.5t-30 -52.5q0 -39 32 -54t74 -24t86.5 -25.5t75 -54.5t30.5 -112z" />
    <glyph glyph-name="uni0218" unicode="&#x218;" horiz-adv-x="538" 
d="M500 204q0 -104 -68.5 -159t-190.5 -55q-67 0 -129.5 17t-96.5 51l37 161l104 -10l-9 -79q31 -18 54 -21.5t36 -3.5q56 0 88.5 17.5t32.5 71.5q0 49 -28 63.5t-83 24.5q-44 8 -86.5 24.5t-70.5 51t-28 99.5q0 75 37.5 119.5t95 64t117.5 19.5q66 0 120.5 -19.5
t82.5 -52.5l-9 -141l-106 -10l-1 76q-23 17 -47 23t-48 6q-42 0 -72 -15.5t-30 -52.5q0 -39 32 -54t74 -24t86.5 -25.5t75 -54.5t30.5 -112zM289 -58l-42 -155h-96l19 155h119z" />
    <glyph glyph-name="uni1E62" unicode="&#x1e62;" horiz-adv-x="538" 
d="M500 204q0 -104 -68.5 -159t-190.5 -55q-67 0 -129.5 17t-96.5 51l37 161l104 -10l-9 -79q31 -18 54 -21.5t36 -3.5q56 0 88.5 17.5t32.5 71.5q0 49 -28 63.5t-83 24.5q-44 8 -86.5 24.5t-70.5 51t-28 99.5q0 75 37.5 119.5t95 64t117.5 19.5q66 0 120.5 -19.5
t82.5 -52.5l-9 -141l-106 -10l-1 76q-23 17 -47 23t-48 6q-42 0 -72 -15.5t-30 -52.5q0 -39 32 -54t74 -24t86.5 -25.5t75 -54.5t30.5 -112zM156 -197l14 134h127l-14 -134h-127z" />
    <glyph glyph-name="uni0166" unicode="&#x166;" horiz-adv-x="624" 
d="M625 430l-112 -10l-8 116h-102l-20 -190h117l-8 -77h-117l-16 -155h103l-12 -114h-329l12 114h98l16 155h-128l8 77h128l20 190h-101l-32 -116l-110 10l42 220h555z" />
    <glyph glyph-name="uni0164" unicode="&#x164;" horiz-adv-x="626" 
d="M327 685l-122 107l32 52l126 -62l128 62l24 -53l-144 -106h-44zM626 430l-112 -10l-8 116h-102l-44 -422h103l-12 -114h-329l12 114h98l44 422h-101l-32 -116l-110 10l42 220h555z" />
    <glyph glyph-name="uni0162" unicode="&#x162;" horiz-adv-x="626" 
d="M626 430l-112 -10l-8 116h-102l-44 -422h103l-12 -114h-329l12 114h98l44 422h-101l-32 -116l-110 10l42 220h555zM333 -58l-42 -155h-96l19 155h119z" />
    <glyph glyph-name="uni021A" unicode="&#x21a;" horiz-adv-x="626" 
d="M626 430l-112 -10l-8 116h-102l-44 -422h103l-12 -114h-329l12 114h98l44 422h-101l-32 -116l-110 10l42 220h555zM333 -58l-42 -155h-96l19 155h119z" />
    <glyph glyph-name="uni00DA" unicode="&#xda;" horiz-adv-x="690" 
d="M566 716l-223 -28l-13 57l210 88zM454 650h249l-12 -114h-56l-28 -267q-7 -69 -36.5 -133t-90 -105t-160.5 -41q-142 0 -196.5 81.5t-43.5 186.5l29 278h-55l12 114h257l-12 -114h-73l-29 -274q-7 -67 19.5 -110.5t101.5 -43.5q74 0 112 44t45 117l28 267h-73z" />
    <glyph glyph-name="uni00DB" unicode="&#xdb;" horiz-adv-x="690" 
d="M427 844l122 -107l-33 -52l-125 60l-129 -60l-24 52l145 107h44zM454 650h249l-12 -114h-56l-28 -267q-7 -69 -36.5 -133t-90 -105t-160.5 -41q-142 0 -196.5 81.5t-43.5 186.5l29 278h-55l12 114h257l-12 -114h-73l-29 -274q-7 -67 19.5 -110.5t101.5 -43.5q74 0 112 44
t45 117l28 267h-73z" />
    <glyph glyph-name="uni00D9" unicode="&#xd9;" horiz-adv-x="690" 
d="M451 688l-223 28l26 117l210 -88zM454 650h249l-12 -114h-56l-28 -267q-7 -69 -36.5 -133t-90 -105t-160.5 -41q-142 0 -196.5 81.5t-43.5 186.5l29 278h-55l12 114h257l-12 -114h-73l-29 -274q-7 -67 19.5 -110.5t101.5 -43.5q74 0 112 44t45 117l28 267h-73z" />
    <glyph glyph-name="uni00DC" unicode="&#xdc;" horiz-adv-x="690" 
d="M424 705l14 134h127l-14 -134h-127zM243 705l14 134h127l-14 -134h-127zM454 650h249l-12 -114h-56l-28 -267q-7 -69 -36.5 -133t-90 -105t-160.5 -41q-142 0 -196.5 81.5t-43.5 186.5l29 278h-55l12 114h257l-12 -114h-73l-29 -274q-7 -67 19.5 -110.5t101.5 -43.5
q74 0 112 44t45 117l28 267h-73z" />
    <glyph glyph-name="uni016C" unicode="&#x16c;" horiz-adv-x="690" 
d="M445 833h100q-7 -71 -48.5 -104.5t-103.5 -33.5q-137 0 -122 138h100q-7 -61 30 -61q20 0 30.5 18.5t13.5 42.5zM454 650h249l-12 -114h-56l-28 -267q-7 -69 -36.5 -133t-90 -105t-160.5 -41q-142 0 -196.5 81.5t-43.5 186.5l29 278h-55l12 114h257l-12 -114h-73
l-29 -274q-7 -67 19.5 -110.5t101.5 -43.5q74 0 112 44t45 117l28 267h-73z" />
    <glyph glyph-name="uni0170" unicode="&#x170;" horiz-adv-x="690" 
d="M484 821l-180 -134l-38 40l145 179zM624 716l-208 -28l-15 57l197 85zM454 650h249l-12 -114h-56l-28 -267q-7 -69 -36.5 -133t-90 -105t-160.5 -41q-142 0 -196.5 81.5t-43.5 186.5l29 278h-55l12 114h257l-12 -114h-73l-29 -274q-7 -67 19.5 -110.5t101.5 -43.5
q74 0 112 44t45 117l28 267h-73z" />
    <glyph glyph-name="uni016A" unicode="&#x16a;" horiz-adv-x="690" 
d="M266 819h302l-10 -98h-302zM454 650h249l-12 -114h-56l-28 -267q-7 -69 -36.5 -133t-90 -105t-160.5 -41q-142 0 -196.5 81.5t-43.5 186.5l29 278h-55l12 114h257l-12 -114h-73l-29 -274q-7 -67 19.5 -110.5t101.5 -43.5q74 0 112 44t45 117l28 267h-73z" />
    <glyph glyph-name="uni0172" unicode="&#x172;" horiz-adv-x="690" 
d="M66 650h257l-12 -114h-73l-29 -274q-7 -67 19.5 -110.5t101.5 -43.5q74 0 112 44t45 117l28 267h-73l12 114h249l-12 -114h-56l-28 -267q-10 -91 -58.5 -170.5t-158.5 -101.5q-31 -21 -38.5 -41.5t-7.5 -33.5q0 -24 11 -32t27 -8q26 0 46 12v-82q-17 -8 -39.5 -14
t-50.5 -6q-45 0 -76 19.5t-31 63.5q0 35 20 65t49 51q-131 6 -181 86t-39 181l29 278h-55z" />
    <glyph glyph-name="uni016E" unicode="&#x16e;" horiz-adv-x="690" 
d="M394 689q-93 0 -93 82q0 44 28.5 73t85.5 29q93 0 93 -81q0 -42 -28 -72.5t-86 -30.5zM400 749q30 0 30 39q0 25 -22 25q-28 0 -28 -40q0 -24 20 -24zM454 650h249l-12 -114h-56l-28 -267q-7 -69 -36.5 -133t-90 -105t-160.5 -41q-142 0 -196.5 81.5t-43.5 186.5l29 278
h-55l12 114h257l-12 -114h-73l-29 -274q-7 -67 19.5 -110.5t101.5 -43.5q74 0 112 44t45 117l28 267h-73z" />
    <glyph glyph-name="uni0168" unicode="&#x168;" horiz-adv-x="690" 
d="M291 698l-47 16q1 28 23.5 69t72.5 41q33 0 58.5 -15.5t50.5 -15.5q14 0 28 8t23 30l52 -11q-4 -44 -24.5 -82t-70.5 -38q-36 0 -61.5 15.5t-59.5 15.5q-32 0 -45 -33zM454 650h249l-12 -114h-56l-28 -267q-7 -69 -36.5 -133t-90 -105t-160.5 -41q-142 0 -196.5 81.5
t-43.5 186.5l29 278h-55l12 114h257l-12 -114h-73l-29 -274q-7 -67 19.5 -110.5t101.5 -43.5q74 0 112 44t45 117l28 267h-73z" />
    <glyph glyph-name="uni01D3" unicode="&#x1d3;" horiz-adv-x="690" 
d="M366 685l-122 107l32 52l126 -62l128 62l24 -53l-144 -106h-44zM454 650h249l-12 -114h-56l-28 -267q-7 -69 -36.5 -133t-90 -105t-160.5 -41q-142 0 -196.5 81.5t-43.5 186.5l29 278h-55l12 114h257l-12 -114h-73l-29 -274q-7 -67 19.5 -110.5t101.5 -43.5q74 0 112 44
t45 117l28 267h-73z" />
    <glyph glyph-name="uni1E82" unicode="&#x1e82;" horiz-adv-x="950" 
d="M664 716l-223 -28l-13 57l210 88zM965 536h-51l-227 -536h-91l-103 420h-5l-184 -420h-93l-126 536h-54l12 114h248l-12 -114h-57l60 -314h6l144 314h-49l12 114h249l-12 -114h-45l77 -320h6l115 320h-66l12 114h246z" />
    <glyph glyph-name="uni0174" unicode="&#x174;" horiz-adv-x="950" 
d="M560 844l122 -107l-33 -52l-125 60l-129 -60l-24 52l145 107h44zM965 536h-51l-227 -536h-91l-103 420h-5l-184 -420h-93l-126 536h-54l12 114h248l-12 -114h-57l60 -314h6l144 314h-49l12 114h249l-12 -114h-45l77 -320h6l115 320h-66l12 114h246z" />
    <glyph glyph-name="uni1E84" unicode="&#x1e84;" horiz-adv-x="950" 
d="M548 705l14 134h127l-14 -134h-127zM367 705l14 134h127l-14 -134h-127zM965 536h-51l-227 -536h-91l-103 420h-5l-184 -420h-93l-126 536h-54l12 114h248l-12 -114h-57l60 -314h6l144 314h-49l12 114h249l-12 -114h-45l77 -320h6l115 320h-66l12 114h246z" />
    <glyph glyph-name="uni1E80" unicode="&#x1e80;" horiz-adv-x="950" 
d="M618 688l-223 28l26 117l210 -88zM965 536h-51l-227 -536h-91l-103 420h-5l-184 -420h-93l-126 536h-54l12 114h248l-12 -114h-57l60 -314h6l144 314h-49l12 114h249l-12 -114h-45l77 -320h6l115 320h-66l12 114h246z" />
    <glyph glyph-name="uni0178" unicode="&#x178;" horiz-adv-x="621" 
d="M384 705l14 134h127l-14 -134h-127zM203 705l14 134h127l-14 -134h-127zM639 536h-54l-211 -282l-14 -140h101l-12 -114h-326l12 114h96l14 142l-158 280h-55l12 114h258l-12 -114h-52l88 -164h6l120 164h-59l12 114h246z" />
    <glyph glyph-name="uni0176" unicode="&#x176;" horiz-adv-x="621" 
d="M393 844l122 -107l-33 -52l-125 60l-129 -60l-24 52l145 107h44zM639 536h-54l-211 -282l-14 -140h101l-12 -114h-326l12 114h96l14 142l-158 280h-55l12 114h258l-12 -114h-52l88 -164h6l120 164h-59l12 114h246z" />
    <glyph glyph-name="uni1EF2" unicode="&#x1ef2;" horiz-adv-x="621" 
d="M410 688l-223 28l26 117l210 -88zM639 536h-54l-211 -282l-14 -140h101l-12 -114h-326l12 114h96l14 142l-158 280h-55l12 114h258l-12 -114h-52l88 -164h6l120 164h-59l12 114h246z" />
    <glyph glyph-name="uni00DD" unicode="&#xdd;" horiz-adv-x="621" 
d="M518 716l-223 -28l-13 57l210 88zM639 536h-54l-211 -282l-14 -140h101l-12 -114h-326l12 114h96l14 142l-158 280h-55l12 114h258l-12 -114h-52l88 -164h6l120 164h-59l12 114h246z" />
    <glyph glyph-name="uni0232" unicode="&#x232;" horiz-adv-x="621" 
d="M220 819h302l-10 -98h-302zM639 536h-54l-211 -282l-14 -140h101l-12 -114h-326l12 114h96l14 142l-158 280h-55l12 114h258l-12 -114h-52l88 -164h6l120 164h-59l12 114h246z" />
    <glyph glyph-name="uni0179" unicode="&#x179;" horiz-adv-x="566" 
d="M502 716l-223 -28l-13 57l210 88zM505 0h-504l-3 69l366 466v1h-170l-29 -101l-111 10l41 205h464l1 -61l-368 -473v-2h213l33 120l111 -10z" />
    <glyph glyph-name="uni017D" unicode="&#x17d;" horiz-adv-x="566" 
d="M298 685l-122 107l32 52l126 -62l128 62l24 -53l-144 -106h-44zM505 0h-504l-3 69l366 466v1h-170l-29 -101l-111 10l41 205h464l1 -61l-368 -473v-2h213l33 120l111 -10z" />
    <glyph glyph-name="uni017B" unicode="&#x17b;" horiz-adv-x="566" 
d="M264 705l14 134h127l-14 -134h-127zM505 0h-504l-3 69l366 466v1h-170l-29 -101l-111 10l41 205h464l1 -61l-368 -473v-2h213l33 120l111 -10z" />
    <glyph glyph-name="uni018F" unicode="&#x18f;" horiz-adv-x="674" 
d="M163 437l-100 11l40 173q59 17 112.5 28t118.5 11q117 0 188.5 -42t103.5 -109t32 -143q0 -96 -40 -182t-120 -140t-199 -54q-133 0 -207 73t-63 208l10 97h474q-6 95 -60 133.5t-128 38.5q-65 0 -139 -24zM508 275h-336v-3q-2 -22 2 -61.5t35 -71t110 -31.5q97 0 138 51
t51 116z" />
    <glyph glyph-name="uni00DE" unicode="&#xde;" horiz-adv-x="571" 
d="M21 114h67l44 422h-67l12 114h263l-12 -114h-68l-2 -21h86q224 0 224 -161q0 -115 -78 -163t-180 -48h-91l-3 -29h68l-12 -114h-263zM294 226q76 0 104 34t28 85q0 41 -24.5 63.5t-83.5 22.5h-69l-22 -205h67z" />
    <glyph glyph-name="uni00D0" unicode="&#xd0;" horiz-adv-x="676" 
d="M46 393h75l15 143h-68l12 114h286q147 0 219.5 -77t72.5 -210q0 -158 -95.5 -260.5t-256.5 -102.5h-294l12 114h68l18 179h-75zM308 114q102 0 157 60t55 176q0 186 -168 186h-88l-15 -143h112l-11 -100h-112l-18 -179h88z" />
    <glyph glyph-name="uni0132" unicode="&#x132;" horiz-adv-x="804" 
d="M518 650h296l-12 -114h-57l-37 -351q-10 -98 -67.5 -146.5t-142.5 -48.5q-80 0 -119.5 37t-54.5 86l97 71q12 -44 33.5 -57t44.5 -13q38 0 57 20t22 50l37 352h-109zM21 114h67l44 422h-67l12 114h263l-12 -114h-68l-44 -422h68l-12 -114h-263z" />
    <glyph glyph-name="Iacute_Jacute" horiz-adv-x="804" 
d="M365 716l-223 -28l-13 57l210 88zM821 716l-223 -28l-13 57l210 88zM518 650h296l-12 -114h-57l-37 -351q-10 -98 -67.5 -146.5t-142.5 -48.5q-80 0 -119.5 37t-54.5 86l97 71q12 -44 33.5 -57t44.5 -13q38 0 57 20t22 50l37 352h-109zM21 114h67l44 422h-67l12 114h263
l-12 -114h-68l-44 -422h68l-12 -114h-263z" />
    <glyph glyph-name="uni0152" unicode="&#x152;" horiz-adv-x="977" 
d="M919 0h-445l3 29q-31 -18 -69 -28.5t-85 -10.5q-143 0 -219.5 92t-76.5 218q0 102 47 183.5t128.5 129t186.5 47.5q48 0 84 -10.5t66 -29.5l3 30h439v-190l-110 -10l-10 86h-199l-16 -153h268l-12 -113h-268l-16 -156h204l29 86l108 -10zM344 108q98 0 147 57l33 319
q-52 58 -142 58q-111 0 -161.5 -71t-50.5 -164q0 -80 40 -139.5t134 -59.5z" />
    <glyph glyph-name="uni01C4" unicode="&#x1c4;" horiz-adv-x="1239" 
d="M971 685l-122 107l32 52l126 -62l128 62l24 -53l-144 -106h-44zM363 650q147 0 219.5 -77t72.5 -210q0 -158 -95.5 -260.5t-256.5 -102.5h-294l12 114h68l44 422h-68l12 114h286zM1178 0h-504l-3 69l366 466v1h-170l-29 -101l-111 10l41 205h464l1 -61l-368 -473v-2h213
l33 120l111 -10zM305 114q102 0 157 60t55 176q0 186 -168 186h-88l-44 -422h88z" />
    <glyph glyph-name="uni01C5" unicode="&#x1c5;" horiz-adv-x="1124" 
d="M903 507l-120 127l38 49l119 -70l123 71l30 -51l-146 -126h-44zM363 650q147 0 219.5 -77t72.5 -210q0 -158 -95.5 -260.5t-256.5 -102.5h-294l12 114h68l44 422h-68l12 114h286zM305 114q102 0 157 60t55 176q0 186 -168 186h-88l-44 -422h88zM1061 0h-381l-10 68
l273 285h-127l-26 -70l-90 10l31 158h361l15 -68l-272 -285h143l29 70l98 -10z" />
    <glyph glyph-name="uni01C7" unicode="&#x1c7;" horiz-adv-x="1000" 
d="M482 0h-475l12 114h69l44 422h-69l12 114h289l-12 -114h-91l-44 -422h169l32 126l108 -10zM714 650h296l-12 -114h-57l-37 -351q-10 -98 -67.5 -146.5t-142.5 -48.5q-80 0 -119.5 37t-54.5 86l97 71q12 -44 33.5 -57t44.5 -13q38 0 57 20t22 50l37 352h-109z" />
    <glyph glyph-name="uni01CA" unicode="&#x1ca;" horiz-adv-x="1186" 
d="M23 114h68l44 422h-78l12 114h170l275 -386h3l28 272h-90l12 114h278l-12 -114h-68l-56 -536l-72 -1l-292 413h-3l-31 -298h86l-12 -114h-274zM900 650h296l-12 -114h-57l-37 -351q-10 -98 -67.5 -146.5t-142.5 -48.5q-80 0 -119.5 37t-54.5 86l97 71q12 -44 33.5 -57
t44.5 -13q38 0 57 20t22 50l37 352h-109z" />
    <glyph glyph-name="uni01F1" unicode="&#x1f1;" horiz-adv-x="1233" 
d="M363 650q147 0 219.5 -77t72.5 -210q0 -158 -95.5 -260.5t-256.5 -102.5h-294l12 114h68l44 422h-68l12 114h286zM1172 0h-504l-3 69l366 466v1h-170l-29 -101l-111 10l41 205h464l1 -61l-368 -473v-2h213l33 120l111 -10zM305 114q102 0 157 60t55 176q0 186 -168 186
h-88l-44 -422h88z" />
    <glyph glyph-name="uni01F2" unicode="&#x1f2;" horiz-adv-x="1123" 
d="M363 650q147 0 219.5 -77t72.5 -210q0 -158 -95.5 -260.5t-256.5 -102.5h-294l12 114h68l44 422h-68l12 114h286zM305 114q102 0 157 60t55 176q0 186 -168 186h-88l-44 -422h88zM1061 0h-381l-10 68l273 285h-127l-26 -70l-90 10l31 158h361l15 -68l-272 -285h143l29 70
l98 -10z" />
    <glyph glyph-name="uni01C8" unicode="&#x1c8;" horiz-adv-x="789" 
d="M645 531l14 134h120l-14 -134h-120zM482 0h-475l12 114h69l44 422h-69l12 114h289l-12 -114h-91l-44 -422h169l32 126l108 -10zM559 424l31 27h169l-54 -435q-13 -102 -50 -170t-108 -68q-57 0 -100 30l5 83q50 -19 83 -1t47 126l41 337h-73z" />
    <glyph glyph-name="uni01CB" unicode="&#x1cb;" horiz-adv-x="986" 
d="M842 531l14 134h120l-14 -134h-120zM23 114h68l44 422h-78l12 114h170l275 -386h3l28 272h-90l12 114h278l-12 -114h-68l-56 -536l-72 -1l-292 413h-3l-31 -298h86l-12 -114h-274zM756 424l31 27h169l-54 -435q-13 -102 -50 -170t-108 -68q-57 0 -100 30l5 83
q50 -19 83.5 -1t46.5 126l41 337h-73z" />
    <glyph glyph-name="uni00E1" unicode="&#xe1;" horiz-adv-x="521" 
d="M467 600l-204 -92l-29 49l174 143zM491 451q-13 -41 -22.5 -80t-14.5 -80l-24 -193h58l-9 -73l-30 -25h-135l-4 92q-21 -42 -57 -72t-91 -30q-74 0 -111 56t-37 137q0 61 22 125t68 108t118 44q98 0 128 -84q4 19 9 37.5t12 37.5h120zM242 362q-48 0 -71 -50.5
t-23 -113.5q0 -110 64 -110q40 0 69.5 39t38.5 83l4 34q6 56 -20.5 87t-61.5 31z" />
    <glyph glyph-name="uni00E0" unicode="&#xe0;" horiz-adv-x="521" 
d="M324 508l-204 92l59 100l174 -143zM491 451q-13 -41 -22.5 -80t-14.5 -80l-24 -193h58l-9 -73l-30 -25h-135l-4 92q-21 -42 -57 -72t-91 -30q-74 0 -111 56t-37 137q0 61 22 125t68 108t118 44q98 0 128 -84q4 19 9 37.5t12 37.5h120zM242 362q-48 0 -71 -50.5
t-23 -113.5q0 -110 64 -110q40 0 69.5 39t38.5 83l4 34q6 56 -20.5 87t-61.5 31z" />
    <glyph glyph-name="uni00E2" unicode="&#xe2;" horiz-adv-x="521" 
d="M335 684l122 -129l-40 -47l-119 69l-123 -70l-32 48l148 129h44zM491 451q-13 -41 -22.5 -80t-14.5 -80l-24 -193h58l-9 -73l-30 -25h-135l-4 92q-21 -42 -57 -72t-91 -30q-74 0 -111 56t-37 137q0 61 22 125t68 108t118 44q98 0 128 -84q4 19 9 37.5t12 37.5h120z
M242 362q-48 0 -71 -50.5t-23 -113.5q0 -110 64 -110q40 0 69.5 39t38.5 83l4 34q6 56 -20.5 87t-61.5 31z" />
    <glyph glyph-name="uni00E4" unicode="&#xe4;" horiz-adv-x="521" 
d="M332 531l14 134h127l-14 -134h-127zM151 531l14 134h126l-14 -134h-126zM491 451q-13 -41 -22.5 -80t-14.5 -80l-24 -193h58l-9 -73l-30 -25h-135l-4 92q-21 -42 -57 -72t-91 -30q-74 0 -111 56t-37 137q0 61 22 125t68 108t118 44q98 0 128 -84q4 19 9 37.5t12 37.5h120
zM242 362q-48 0 -71 -50.5t-23 -113.5q0 -110 64 -110q40 0 69.5 39t38.5 83l4 34q6 56 -20.5 87t-61.5 31z" />
    <glyph glyph-name="uni00E3" unicode="&#xe3;" horiz-adv-x="521" 
d="M203 515l-47 16q1 29 24.5 76.5t72.5 47.5q33 0 59 -19t51 -19q33 0 50 41l52 -11q-5 -43 -25 -86.5t-69 -43.5q-37 0 -63.5 20.5t-55.5 20.5q-33 0 -49 -43zM491 451q-13 -41 -22.5 -80t-14.5 -80l-24 -193h58l-9 -73l-30 -25h-135l-4 92q-21 -42 -57 -72t-91 -30
q-74 0 -111 56t-37 137q0 61 22 125t68 108t118 44q98 0 128 -84q4 19 9 37.5t12 37.5h120zM242 362q-48 0 -71 -50.5t-23 -113.5q0 -110 64 -110q40 0 69.5 39t38.5 83l4 34q6 56 -20.5 87t-61.5 31z" />
    <glyph glyph-name="uni00E5" unicode="&#xe5;" horiz-adv-x="521" 
d="M302 514q-93 0 -93 82q0 44 28.5 73t85.5 29q93 0 93 -81q0 -42 -28 -72.5t-86 -30.5zM308 574q30 0 30 39q0 25 -22 25q-28 0 -28 -39q0 -25 20 -25zM491 451q-13 -41 -22.5 -80t-14.5 -80l-24 -193h58l-9 -73l-30 -25h-135l-4 92q-21 -42 -57 -72t-91 -30
q-74 0 -111 56t-37 137q0 61 22 125t68 108t118 44q98 0 128 -84q4 19 9 37.5t12 37.5h120zM242 362q-48 0 -71 -50.5t-23 -113.5q0 -110 64 -110q40 0 69.5 39t38.5 83l4 34q6 56 -20.5 87t-61.5 31z" />
    <glyph glyph-name="uni0103" unicode="&#x103;" horiz-adv-x="521" 
d="M345 653h100q-7 -71 -50 -104.5t-104 -33.5q-134 0 -119 138h100q-7 -61 29 -61q20 0 30.5 18.5t13.5 42.5zM491 451q-13 -41 -22.5 -80t-14.5 -80l-24 -193h58l-9 -73l-30 -25h-135l-4 92q-21 -42 -57 -72t-91 -30q-74 0 -111 56t-37 137q0 61 22 125t68 108t118 44
q98 0 128 -84q4 19 9 37.5t12 37.5h120zM242 362q-48 0 -71 -50.5t-23 -113.5q0 -110 64 -110q40 0 69.5 39t38.5 83l4 34q6 56 -20.5 87t-61.5 31z" />
    <glyph glyph-name="uni0101" unicode="&#x101;" horiz-adv-x="521" 
d="M179 634h263l-10 -98h-263zM491 451q-13 -41 -22.5 -80t-14.5 -80l-24 -193h58l-9 -73l-30 -25h-135l-4 92q-21 -42 -57 -72t-91 -30q-74 0 -111 56t-37 137q0 61 22 125t68 108t118 44q98 0 128 -84q4 19 9 37.5t12 37.5h120zM242 362q-48 0 -71 -50.5t-23 -113.5
q0 -110 64 -110q40 0 69.5 39t38.5 83l4 34q6 56 -20.5 87t-61.5 31z" />
    <glyph glyph-name="uni0105" unicode="&#x105;" horiz-adv-x="521" 
d="M463 -188q-17 -8 -39.5 -14t-50.5 -6q-45 0 -76 19.5t-31 63.5q0 40 25 72.5t60 52.5h-37l-4 92q-21 -42 -57 -72t-91 -30q-74 0 -111 56t-37 137q0 61 22 125t68 108t118 44q98 0 128 -84q4 19 9 37.5t12 37.5h120q-13 -41 -22.5 -80t-14.5 -80l-24 -193h58l-9 -73
l-30 -25h-19q-34 -22 -42.5 -43t-8.5 -35q0 -24 10.5 -32t27.5 -8q27 0 46 12v-82zM242 362q-48 0 -71 -50.5t-23 -113.5q0 -110 64 -110q40 0 69.5 39t38.5 83l4 34q6 56 -20.5 87t-61.5 31z" />
    <glyph glyph-name="uni00E6" unicode="&#xe6;" horiz-adv-x="711" 
d="M227 372q-19 0 -33.5 -5t-30.5 -13l-24 -64l-100 11l32 117q48 26 89 34t76 8q97 0 147 -45q61 45 142 45q72 0 118 -34t46 -94q0 -47 -36 -82t-125 -54q-41 -9 -112 -17q3 -43 20.5 -67t57.5 -24q51 0 66 28.5t20 45.5l101 -20q-11 -59 -64 -105.5t-142 -46.5
q-53 0 -97 20.5t-70 64.5q-23 -34 -61.5 -59.5t-96.5 -25.5q-52 0 -96 27.5t-44 92.5q0 78 63 112t146 34q15 0 33 -1t34 -3q2 8 2 10l1 5q4 35 -1.5 70t-60.5 35zM508 373q-42 0 -62.5 -36.5t-26.5 -82.5q22 1 40 6q59 11 79.5 27.5t20.5 39.5q0 25 -15.5 35.5t-35.5 10.5z
M190 82q28 0 55.5 24.5t35.5 80.5v3q-15 2 -30.5 4t-28.5 2q-74 0 -74 -66q0 -48 42 -48z" />
    <glyph glyph-name="uni01FD" unicode="&#x1fd;" horiz-adv-x="711" 
d="M590 600l-204 -92l-29 49l174 143zM227 372q-19 0 -33.5 -5t-30.5 -13l-24 -64l-100 11l32 117q48 26 89 34t76 8q97 0 147 -45q61 45 142 45q72 0 118 -34t46 -94q0 -47 -36 -82t-125 -54q-41 -9 -112 -17q3 -43 20.5 -67t57.5 -24q51 0 66 28.5t20 45.5l101 -20
q-11 -59 -64 -105.5t-142 -46.5q-53 0 -97 20.5t-70 64.5q-23 -34 -61.5 -59.5t-96.5 -25.5q-52 0 -96 27.5t-44 92.5q0 78 63 112t146 34q15 0 33 -1t34 -3q2 8 2 10l1 5q4 35 -1.5 70t-60.5 35zM508 373q-42 0 -62.5 -36.5t-26.5 -82.5q22 1 40 6q59 11 79.5 27.5
t20.5 39.5q0 25 -15.5 35.5t-35.5 10.5zM190 82q28 0 55.5 24.5t35.5 80.5v3q-15 2 -30.5 4t-28.5 2q-74 0 -74 -66q0 -48 42 -48z" />
    <glyph glyph-name="uni01E3" unicode="&#x1e3;" horiz-adv-x="711" 
d="M273 634h263l-10 -98h-263zM227 372q-19 0 -33.5 -5t-30.5 -13l-24 -64l-100 11l32 117q48 26 89 34t76 8q97 0 147 -45q61 45 142 45q72 0 118 -34t46 -94q0 -47 -36 -82t-125 -54q-41 -9 -112 -17q3 -43 20.5 -67t57.5 -24q51 0 66 28.5t20 45.5l101 -20
q-11 -59 -64 -105.5t-142 -46.5q-53 0 -97 20.5t-70 64.5q-23 -34 -61.5 -59.5t-96.5 -25.5q-52 0 -96 27.5t-44 92.5q0 78 63 112t146 34q15 0 33 -1t34 -3q2 8 2 10l1 5q4 35 -1.5 70t-60.5 35zM508 373q-42 0 -62.5 -36.5t-26.5 -82.5q22 1 40 6q59 11 79.5 27.5
t20.5 39.5q0 25 -15.5 35.5t-35.5 10.5zM190 82q28 0 55.5 24.5t35.5 80.5v3q-15 2 -30.5 4t-28.5 2q-74 0 -74 -66q0 -48 42 -48z" />
    <glyph glyph-name="uni00E7" unicode="&#xe7;" horiz-adv-x="439" 
d="M243 362q-41 0 -67.5 -41.5t-26.5 -120.5q0 -51 15.5 -81.5t58.5 -30.5q37 0 55.5 25.5t31.5 74.5l101 -20q-13 -59 -55 -113t-124 -63l-5 -33h8q44 0 61.5 -22.5t17.5 -50.5q0 -53 -44 -74t-94 -21q-78 0 -110 30l29 70q11 -7 29.5 -15t45.5 -8q37 0 37 23
q0 10 -6.5 16.5t-28.5 6.5h-36l12 82q-133 31 -133 199q0 64 23.5 125t75 100.5t134.5 39.5q34 0 78 -8.5t80 -29.5l5 -137l-103 -11l-6 80q-17 6 -30.5 7t-28.5 1z" />
    <glyph glyph-name="uni0107" unicode="&#x107;" horiz-adv-x="439" 
d="M432 600l-204 -92l-29 49l174 143zM243 362q-41 0 -67.5 -41.5t-26.5 -120.5q0 -51 15.5 -81.5t58.5 -30.5q37 0 55.5 25.5t31.5 74.5l101 -20q-13 -64 -62 -121t-147 -57q-88 0 -137.5 54t-49.5 151q0 64 23.5 125t75 100.5t134.5 39.5q34 0 78 -8.5t80 -29.5l5 -137
l-103 -11l-6 80q-17 6 -30.5 7t-28.5 1z" />
    <glyph glyph-name="uni010D" unicode="&#x10d;" horiz-adv-x="439" 
d="M231 507l-120 127l38 49l119 -70l123 71l30 -51l-146 -126h-44zM243 362q-41 0 -67.5 -41.5t-26.5 -120.5q0 -51 15.5 -81.5t58.5 -30.5q37 0 55.5 25.5t31.5 74.5l101 -20q-13 -64 -62 -121t-147 -57q-88 0 -137.5 54t-49.5 151q0 64 23.5 125t75 100.5t134.5 39.5
q34 0 78 -8.5t80 -29.5l5 -137l-103 -11l-6 80q-17 6 -30.5 7t-28.5 1z" />
    <glyph glyph-name="uni0109" unicode="&#x109;" horiz-adv-x="439" 
d="M299 684l122 -129l-40 -47l-119 69l-123 -70l-32 48l148 129h44zM243 362q-41 0 -67.5 -41.5t-26.5 -120.5q0 -51 15.5 -81.5t58.5 -30.5q37 0 55.5 25.5t31.5 74.5l101 -20q-13 -64 -62 -121t-147 -57q-88 0 -137.5 54t-49.5 151q0 64 23.5 125t75 100.5t134.5 39.5
q34 0 78 -8.5t80 -29.5l5 -137l-103 -11l-6 80q-17 6 -30.5 7t-28.5 1z" />
    <glyph glyph-name="uni010B" unicode="&#x10b;" horiz-adv-x="439" 
d="M203 531l14 134h127l-14 -134h-127zM243 362q-41 0 -67.5 -41.5t-26.5 -120.5q0 -51 15.5 -81.5t58.5 -30.5q37 0 55.5 25.5t31.5 74.5l101 -20q-13 -64 -62 -121t-147 -57q-88 0 -137.5 54t-49.5 151q0 64 23.5 125t75 100.5t134.5 39.5q34 0 78 -8.5t80 -29.5l5 -137
l-103 -11l-6 80q-17 6 -30.5 7t-28.5 1z" />
    <glyph glyph-name="uni010F" unicode="&#x10f;" horiz-adv-x="532" 
d="M297 661l31 27h178l-72 -590h58l-9 -73l-30 -25h-135l-2 99q-22 -44 -61.5 -76.5t-96.5 -32.5q-74 0 -109 56t-35 134q0 63 23 127.5t70 108.5t119 44q86 0 120 -66l24 196h-82zM684 681l-59 -224h-96l36 224h119zM246 362q-48 0 -73 -50t-25 -118q0 -47 14 -76.5
t47 -29.5q40 0 71.5 37.5t42.5 80.5l6 53q1 49 -25 76t-58 27z" />
    <glyph glyph-name="uni0111" unicode="&#x111;" horiz-adv-x="521" 
d="M297 661l31 27h178l-16 -129h64l-8 -40l-34 -32h-31l-47 -389h58l-9 -73l-30 -25h-135l-2 99q-22 -44 -61.5 -76.5t-96.5 -32.5q-74 0 -109 56t-35 134q0 63 23 127.5t70 108.5t119 44q86 0 120 -66l11 93h-163l5 41l34 31h133l4 31h-82zM246 362q-48 0 -73 -50t-25 -118
q0 -47 14 -76.5t47 -29.5q40 0 71.5 37.5t42.5 80.5l6 53q1 49 -25 76t-58 27z" />
    <glyph glyph-name="uni00E9" unicode="&#xe9;" horiz-adv-x="444" 
d="M459 600l-204 -92l-29 49l174 143zM227 88q51 0 66 28.5t20 45.5l101 -20q-10 -59 -63.5 -105.5t-142.5 -46.5q-80 0 -137 48t-57 154q0 108 64 188t180 80q72 0 118 -34t46 -90q0 -50 -35 -85.5t-126 -54.5q-52 -11 -112 -17q3 -43 20 -67t58 -24zM196 261q60 11 78 29
t18 38q0 25 -16 35t-35 10q-42 0 -62.5 -36.5t-26.5 -82.5q12 2 23 3.5t21 3.5z" />
    <glyph glyph-name="uni00E8" unicode="&#xe8;" horiz-adv-x="444" 
d="M325 508l-204 92l59 100l174 -143zM227 88q51 0 66 28.5t20 45.5l101 -20q-10 -59 -63.5 -105.5t-142.5 -46.5q-80 0 -137 48t-57 154q0 108 64 188t180 80q72 0 118 -34t46 -90q0 -50 -35 -85.5t-126 -54.5q-52 -11 -112 -17q3 -43 20 -67t58 -24zM196 261q60 11 78 29
t18 38q0 25 -16 35t-35 10q-42 0 -62.5 -36.5t-26.5 -82.5q12 2 23 3.5t21 3.5z" />
    <glyph glyph-name="uni00EA" unicode="&#xea;" horiz-adv-x="444" 
d="M315 684l122 -129l-40 -47l-119 69l-123 -70l-32 48l148 129h44zM227 88q51 0 66 28.5t20 45.5l101 -20q-10 -59 -63.5 -105.5t-142.5 -46.5q-80 0 -137 48t-57 154q0 108 64 188t180 80q72 0 118 -34t46 -90q0 -50 -35 -85.5t-126 -54.5q-52 -11 -112 -17q3 -43 20 -67
t58 -24zM196 261q60 11 78 29t18 38q0 25 -16 35t-35 10q-42 0 -62.5 -36.5t-26.5 -82.5q12 2 23 3.5t21 3.5z" />
    <glyph glyph-name="uni00EB" unicode="&#xeb;" horiz-adv-x="444" 
d="M308 531l14 134h127l-14 -134h-127zM127 531l14 134h126l-14 -134h-126zM227 88q51 0 66 28.5t20 45.5l101 -20q-10 -59 -63.5 -105.5t-142.5 -46.5q-80 0 -137 48t-57 154q0 108 64 188t180 80q72 0 118 -34t46 -90q0 -50 -35 -85.5t-126 -54.5q-52 -11 -112 -17
q3 -43 20 -67t58 -24zM196 261q60 11 78 29t18 38q0 25 -16 35t-35 10q-42 0 -62.5 -36.5t-26.5 -82.5q12 2 23 3.5t21 3.5z" />
    <glyph glyph-name="uni0115" unicode="&#x115;" horiz-adv-x="444" 
d="M326 653h100q-8 -71 -50 -104.5t-104 -33.5q-134 0 -119 138h100q-7 -61 29 -61q20 0 30.5 18.5t13.5 42.5zM227 88q51 0 66 28.5t20 45.5l101 -20q-10 -59 -63.5 -105.5t-142.5 -46.5q-80 0 -137 48t-57 154q0 108 64 188t180 80q72 0 118 -34t46 -90q0 -50 -35 -85.5
t-126 -54.5q-52 -11 -112 -17q3 -43 20 -67t58 -24zM196 261q60 11 78 29t18 38q0 25 -16 35t-35 10q-42 0 -62.5 -36.5t-26.5 -82.5q12 2 23 3.5t21 3.5z" />
    <glyph glyph-name="uni011B" unicode="&#x11b;" horiz-adv-x="444" 
d="M247 507l-120 127l38 49l119 -70l123 71l30 -51l-146 -126h-44zM227 88q51 0 66 28.5t20 45.5l101 -20q-10 -59 -63.5 -105.5t-142.5 -46.5q-80 0 -137 48t-57 154q0 108 64 188t180 80q72 0 118 -34t46 -90q0 -50 -35 -85.5t-126 -54.5q-52 -11 -112 -17q3 -43 20 -67
t58 -24zM196 261q60 11 78 29t18 38q0 25 -16 35t-35 10q-42 0 -62.5 -36.5t-26.5 -82.5q12 2 23 3.5t21 3.5z" />
    <glyph glyph-name="uni0117" unicode="&#x117;" horiz-adv-x="444" 
d="M203 531l14 134h127l-14 -134h-127zM227 88q51 0 66 28.5t20 45.5l101 -20q-10 -59 -63.5 -105.5t-142.5 -46.5q-80 0 -137 48t-57 154q0 108 64 188t180 80q72 0 118 -34t46 -90q0 -50 -35 -85.5t-126 -54.5q-52 -11 -112 -17q3 -43 20 -67t58 -24zM196 261q60 11 78 29
t18 38q0 25 -16 35t-35 10q-42 0 -62.5 -36.5t-26.5 -82.5q12 2 23 3.5t21 3.5z" />
    <glyph glyph-name="uni0113" unicode="&#x113;" horiz-adv-x="444" 
d="M156 634h263l-10 -98h-263zM227 88q51 0 66 28.5t20 45.5l101 -20q-10 -59 -63.5 -105.5t-142.5 -46.5q-80 0 -137 48t-57 154q0 108 64 188t180 80q72 0 118 -34t46 -90q0 -50 -35 -85.5t-126 -54.5q-52 -11 -112 -17q3 -43 20 -67t58 -24zM196 261q60 11 78 29t18 38
q0 25 -16 35t-35 10q-42 0 -62.5 -36.5t-26.5 -82.5q12 2 23 3.5t21 3.5z" />
    <glyph glyph-name="uni1EBD" unicode="&#x1ebd;" horiz-adv-x="444" 
d="M170 515l-47 16q1 29 24.5 76.5t72.5 47.5q33 0 59 -19t51 -19q33 0 50 41l52 -11q-4 -43 -24.5 -86.5t-69.5 -43.5q-38 0 -64 20.5t-55 20.5q-33 0 -49 -43zM227 88q51 0 66 28.5t20 45.5l101 -20q-10 -59 -63.5 -105.5t-142.5 -46.5q-80 0 -137 48t-57 154
q0 108 64 188t180 80q72 0 118 -34t46 -90q0 -50 -35 -85.5t-126 -54.5q-52 -11 -112 -17q3 -43 20 -67t58 -24zM196 261q60 11 78 29t18 38q0 25 -16 35t-35 10q-42 0 -62.5 -36.5t-26.5 -82.5q12 2 23 3.5t21 3.5z" />
    <glyph glyph-name="uni0119" unicode="&#x119;" horiz-adv-x="444" 
d="M315 -188q-17 -8 -39.5 -14t-50.5 -6q-45 0 -76 19.5t-31 63.5q0 36 20 66t50 50q-74 5 -124 53t-50 148q0 108 64 188t180 80q72 0 118 -34t46 -90q0 -50 -35 -85.5t-126 -54.5q-52 -11 -112 -17q3 -43 20 -67t58 -24q51 0 66 28.5t20 45.5l101 -20q-8 -46 -41.5 -85
t-89.5 -56q-35 -23 -43.5 -44t-8.5 -35q0 -24 10.5 -32t27.5 -8q27 0 46 12v-82zM196 261q60 11 78 29t18 38q0 25 -16 35t-35 10q-42 0 -62.5 -36.5t-26.5 -82.5q12 2 23 3.5t21 3.5z" />
    <glyph glyph-name="uni011F" unicode="&#x11f;" horiz-adv-x="526" 
d="M348 653h100q-8 -71 -50 -104.5t-104 -33.5q-134 0 -119 138h100q-7 -61 29 -61q20 0 30.5 18.5t13.5 42.5zM374 451h163l-9 -73l-30 -25h-32l-41 -330q-12 -96 -66.5 -170.5t-178.5 -74.5q-64 0 -120.5 31.5t-73.5 109.5l88 50q33 -84 114 -84q96 0 113 138l7 62
q-23 -39 -60.5 -67t-89.5 -28q-74 0 -109 56t-35 134q0 63 23 127.5t70 108.5t119 44q97 0 126 -80zM246 362q-48 0 -73 -50t-25 -118q0 -47 14 -76.5t47 -29.5q40 0 71.5 38t42.5 81l6 48q2 52 -24 79.5t-59 27.5z" />
    <glyph glyph-name="uni011D" unicode="&#x11d;" horiz-adv-x="526" 
d="M336 684l122 -129l-40 -47l-119 69l-123 -70l-32 48l148 129h44zM374 451h163l-9 -73l-30 -25h-32l-41 -330q-12 -96 -66.5 -170.5t-178.5 -74.5q-64 0 -120.5 31.5t-73.5 109.5l88 50q33 -84 114 -84q96 0 113 138l7 62q-23 -39 -60.5 -67t-89.5 -28q-74 0 -109 56
t-35 134q0 63 23 127.5t70 108.5t119 44q97 0 126 -80zM246 362q-48 0 -73 -50t-25 -118q0 -47 14 -76.5t47 -29.5q40 0 71.5 38t42.5 81l6 48q2 52 -24 79.5t-59 27.5z" />
    <glyph glyph-name="uni0123" unicode="&#x123;" horiz-adv-x="526" 
d="M233 538l42 155h96l-19 -155h-119zM374 451h163l-9 -73l-30 -25h-32l-41 -330q-12 -96 -66.5 -170.5t-178.5 -74.5q-64 0 -120.5 31.5t-73.5 109.5l88 50q33 -84 114 -84q96 0 113 138l7 62q-23 -39 -60.5 -67t-89.5 -28q-74 0 -109 56t-35 134q0 63 23 127.5t70 108.5
t119 44q97 0 126 -80zM246 362q-48 0 -73 -50t-25 -118q0 -47 14 -76.5t47 -29.5q40 0 71.5 38t42.5 81l6 48q2 52 -24 79.5t-59 27.5z" />
    <glyph glyph-name="uni0121" unicode="&#x121;" horiz-adv-x="526" 
d="M240 531l14 134h127l-14 -134h-127zM374 451h163l-9 -73l-30 -25h-32l-41 -330q-12 -96 -66.5 -170.5t-178.5 -74.5q-64 0 -120.5 31.5t-73.5 109.5l88 50q33 -84 114 -84q96 0 113 138l7 62q-23 -39 -60.5 -67t-89.5 -28q-74 0 -109 56t-35 134q0 63 23 127.5t70 108.5
t119 44q97 0 126 -80zM246 362q-48 0 -73 -50t-25 -118q0 -47 14 -76.5t47 -29.5q40 0 71.5 38t42.5 81l6 48q2 52 -24 79.5t-59 27.5z" />
    <glyph glyph-name="uni0127" unicode="&#x127;" horiz-adv-x="522" 
d="M43 661l31 27h154l-16 -129h160l-8 -40l-34 -32h-127l-13 -112q22 38 57 61.5t82 23.5q61 0 101.5 -38t30.5 -118l-25 -206h58l-9 -73l-30 -25h-154l31 254q8 58 -8 83t-53 25q-42 0 -64.5 -26t-29.5 -67l-1 -4l-32 -265h-124l59 487h-67l5 41l34 31h37l4 31h-58z" />
    <glyph glyph-name="uni0125" unicode="&#x125;" horiz-adv-x="522" 
d="M201 880l122 -129l-40 -47l-119 69l-123 -70l-32 48l148 129h44zM43 661l31 27h154l-38 -313q22 38 57 61.5t82 23.5q61 0 101.5 -38t30.5 -118l-25 -206h58l-9 -73l-30 -25h-154l31 254q8 58 -8 83t-53 25q-43 0 -65 -27t-30 -71l-32 -264h-124l72 590h-58z" />
    <glyph glyph-name="uni00ED" unicode="&#xed;" horiz-adv-x="274" 
d="M317 600l-204 -92l-29 49l174 143zM32 424l31 27h159l-43 -353h57l-9 -73l-30 -25h-154l43 353h-63z" />
    <glyph glyph-name="uni00EC" unicode="&#xec;" horiz-adv-x="274" 
d="M214 508l-204 92l59 100l174 -143zM32 424l31 27h159l-43 -353h57l-9 -73l-30 -25h-154l43 353h-63z" />
    <glyph glyph-name="uni00EE" unicode="&#xee;" horiz-adv-x="274" 
d="M203 684l122 -129l-40 -47l-119 69l-123 -70l-32 48l148 129h44zM32 424l31 27h159l-43 -353h57l-9 -73l-30 -25h-154l43 353h-63z" />
    <glyph glyph-name="uni00EF" unicode="&#xef;" horiz-adv-x="274" 
d="M188 531l14 134h127l-14 -134h-127zM7 531l14 134h126l-14 -134h-126zM32 424l31 27h159l-43 -353h57l-9 -73l-30 -25h-154l43 353h-63z" />
    <glyph glyph-name="uni012D" unicode="&#x12d;" horiz-adv-x="274" 
d="M213 653h100q-7 -71 -50 -104.5t-104 -33.5q-134 0 -119 138h100q-7 -61 29 -61q20 0 30.5 18.5t13.5 42.5zM32 424l31 27h159l-43 -353h57l-9 -73l-30 -25h-154l43 353h-63z" />
    <glyph glyph-name="uni0131" unicode="&#x131;" horiz-adv-x="274" 
d="M32 424l31 27h159l-43 -353h57l-9 -73l-30 -25h-154l43 353h-63z" />
    <glyph glyph-name="uni012B" unicode="&#x12b;" horiz-adv-x="274" 
d="M31 634h263l-10 -98h-263zM32 424l31 27h159l-43 -353h57l-9 -73l-30 -25h-154l43 353h-63z" />
    <glyph glyph-name="uni012F" unicode="&#x12f;" horiz-adv-x="274" 
d="M111 531l14 134h120l-14 -134h-120zM199 -188q-17 -8 -39.5 -14t-50.5 -6q-45 0 -76 19.5t-31 63.5q0 40 25 72.5t60 52.5h-44l43 353h-63l9 71l31 27h159l-43 -353h57l-9 -73l-30 -25h-31q-34 -22 -42.5 -43t-8.5 -35q0 -24 10.5 -32t27.5 -8q27 0 46 12v-82z" />
    <glyph glyph-name="uni0129" unicode="&#x129;" horiz-adv-x="274" 
d="M64 515l-47 16q1 29 24.5 76.5t72.5 47.5q33 0 59 -19t51 -19q33 0 50 41l52 -11q-4 -43 -24.5 -86.5t-69.5 -43.5q-38 0 -64 20.5t-55 20.5q-33 0 -49 -43zM32 424l31 27h159l-43 -353h57l-9 -73l-30 -25h-154l43 353h-63z" />
    <glyph glyph-name="uni0135" unicode="&#x135;" horiz-adv-x="256" 
d="M198 684l122 -129l-40 -47l-119 69l-123 -70l-32 48l148 129h44zM26 424l31 27h169l-54 -435q-13 -102 -50 -170t-108 -68q-57 0 -100 30l5 83q50 -19 83.5 -1t46.5 126l41 337h-73z" />
    <glyph glyph-name="uni0237" unicode="&#x237;" horiz-adv-x="256" 
d="M26 424l31 27h169l-54 -435q-13 -102 -50 -170t-108 -68q-57 0 -100 30l5 83q50 -19 83.5 -1t46.5 126l41 337h-73z" />
    <glyph glyph-name="uni0137" unicode="&#x137;" horiz-adv-x="470" 
d="M43 661l31 27h154l-51 -416h55q70 78 83 179h124q1 -60 -36 -118t-98 -100l73 -135h69l-9 -73l-30 -25h-105l-100 188h-36l-23 -188h-124l72 590h-58zM278 -58l-42 -155h-96l19 155h119z" />
    <glyph glyph-name="uni013A" unicode="&#x13a;" horiz-adv-x="257" 
d="M309 744l-223 -28l-13 57l210 88zM47 661l31 27h158l-72 -590h58l-9 -73l-30 -25h-155l72 590h-62z" />
    <glyph glyph-name="uni013E" unicode="&#x13e;" horiz-adv-x="269" 
d="M47 661l31 27h158l-72 -590h58l-9 -73l-30 -25h-155l72 590h-62zM414 681l-59 -224h-96l36 224h119z" />
    <glyph glyph-name="uni013C" unicode="&#x13c;" horiz-adv-x="257" 
d="M47 661l31 27h158l-72 -590h58l-9 -73l-30 -25h-155l72 590h-62zM155 -58l-42 -155h-96l19 155h119z" />
    <glyph glyph-name="uni0140" unicode="&#x140;" horiz-adv-x="376" 
d="M47 661l31 27h158l-72 -590h58l-9 -73l-30 -25h-155l72 590h-62zM228 271l14 134h127l-14 -134h-127z" />
    <glyph glyph-name="uni0142" unicode="&#x142;" horiz-adv-x="284" 
d="M19 325l73 33l29 232h-62l9 71l31 27h158l-33 -272l75 34l-11 -100l-77 -34l-26 -218h58l-9 -73l-30 -25h-155l31 257l-72 -32z" />
    <glyph glyph-name="uni00F1" unicode="&#xf1;" horiz-adv-x="541" 
d="M198 515l-47 16q1 29 24.5 76.5t72.5 47.5q33 0 59 -19t51 -19q33 0 50 41l52 -11q-4 -43 -24.5 -86.5t-69.5 -43.5q-38 0 -64 20.5t-55 20.5q-33 0 -49 -43zM61 451h139l5 -86q23 43 59 69t86 26q61 0 101.5 -38t30.5 -118l-25 -206h58l-9 -73l-30 -25h-154l31 254
q7 58 -8.5 83t-52.5 25q-42 0 -65 -26t-30 -69l-32 -267h-124l43 353h-63l9 71z" />
    <glyph glyph-name="uni0144" unicode="&#x144;" horiz-adv-x="541" 
d="M501 600l-204 -92l-29 49l174 143zM61 451h139l5 -86q23 43 59 69t86 26q61 0 101.5 -38t30.5 -118l-25 -206h58l-9 -73l-30 -25h-154l31 254q7 58 -8.5 83t-52.5 25q-42 0 -65 -26t-30 -69l-32 -267h-124l43 353h-63l9 71z" />
    <glyph glyph-name="uni0149" unicode="&#x149;" horiz-adv-x="541" 
d="M28 503l77 214h112l-76 -214h-113zM61 451h139l5 -86q23 43 59 69t86 26q61 0 101.5 -38t30.5 -118l-25 -206h58l-9 -73l-30 -25h-154l31 254q7 58 -8.5 83t-52.5 25q-42 0 -65 -26t-30 -69l-32 -267h-124l43 353h-63l9 71z" />
    <glyph glyph-name="uni0148" unicode="&#x148;" horiz-adv-x="541" 
d="M291 507l-120 127l38 49l119 -70l123 71l30 -51l-146 -126h-44zM61 451h139l5 -86q23 43 59 69t86 26q61 0 101.5 -38t30.5 -118l-25 -206h58l-9 -73l-30 -25h-154l31 254q7 58 -8.5 83t-52.5 25q-42 0 -65 -26t-30 -69l-32 -267h-124l43 353h-63l9 71z" />
    <glyph glyph-name="uni0146" unicode="&#x146;" horiz-adv-x="541" 
d="M61 451h139l5 -86q23 43 59 69t86 26q61 0 101.5 -38t30.5 -118l-25 -206h58l-9 -73l-30 -25h-154l31 254q7 58 -8.5 83t-52.5 25q-42 0 -65 -26t-30 -69l-32 -267h-124l43 353h-63l9 71zM299 -58l-42 -155h-96l19 155h119z" />
    <glyph glyph-name="uni1E47" unicode="&#x1e47;" horiz-adv-x="541" 
d="M61 451h139l5 -86q23 43 59 69t86 26q61 0 101.5 -38t30.5 -118l-25 -206h58l-9 -73l-30 -25h-154l31 254q7 58 -8.5 83t-52.5 25q-42 0 -65 -26t-30 -69l-32 -267h-124l43 353h-63l9 71zM166 -197l14 134h127l-14 -134h-127z" />
    <glyph glyph-name="uni014B" unicode="&#x14b;" horiz-adv-x="524" 
d="M30 424l31 27h139l5 -86q23 43 59 69t86 26q61 0 101.5 -38t30.5 -118l-37 -307q-12 -102 -48.5 -160.5t-107.5 -58.5q-57 0 -100 30l5 83q34 -13 59 -15.5t42 23.5t26 98l32 257q7 58 -8.5 83t-52.5 25q-42 0 -65 -26t-30 -69l-32 -267h-124l43 353h-63z" />
    <glyph glyph-name="uni00F3" unicode="&#xf3;" horiz-adv-x="484" 
d="M443 600l-204 -92l-29 49l174 143zM15 194q0 103 60 184.5t185 81.5q104 0 151.5 -59t47.5 -150q0 -117 -68.5 -189t-179.5 -72q-92 0 -144 52.5t-52 151.5zM150 205q0 -54 14.5 -85.5t58.5 -31.5q57 0 80 47t23 112q0 115 -79 115q-97 0 -97 -157z" />
    <glyph glyph-name="uni00F2" unicode="&#xf2;" horiz-adv-x="484" 
d="M310 508l-204 92l59 100l174 -143zM15 194q0 103 60 184.5t185 81.5q104 0 151.5 -59t47.5 -150q0 -117 -68.5 -189t-179.5 -72q-92 0 -144 52.5t-52 151.5zM150 205q0 -54 14.5 -85.5t58.5 -31.5q57 0 80 47t23 112q0 115 -79 115q-97 0 -97 -157z" />
    <glyph glyph-name="uni00F4" unicode="&#xf4;" horiz-adv-x="484" 
d="M299 684l122 -129l-40 -47l-119 69l-123 -70l-32 48l148 129h44zM15 194q0 103 60 184.5t185 81.5q104 0 151.5 -59t47.5 -150q0 -117 -68.5 -189t-179.5 -72q-92 0 -144 52.5t-52 151.5zM150 205q0 -54 14.5 -85.5t58.5 -31.5q57 0 80 47t23 112q0 115 -79 115
q-97 0 -97 -157z" />
    <glyph glyph-name="uni00F6" unicode="&#xf6;" horiz-adv-x="484" 
d="M120 531l14 134h126l-14 -134h-126zM301 531l14 134h127l-14 -134h-127zM15 194q0 103 60 184.5t185 81.5q104 0 151.5 -59t47.5 -150q0 -117 -68.5 -189t-179.5 -72q-92 0 -144 52.5t-52 151.5zM150 205q0 -54 14.5 -85.5t58.5 -31.5q57 0 80 47t23 112q0 115 -79 115
q-97 0 -97 -157z" />
    <glyph glyph-name="uni00F5" unicode="&#xf5;" horiz-adv-x="484" 
d="M161 515l-47 16q1 29 24.5 76.5t72.5 47.5q33 0 59 -19t51 -19q33 0 50 41l52 -11q-5 -43 -25 -86.5t-69 -43.5q-37 0 -63.5 20.5t-55.5 20.5q-33 0 -49 -43zM15 194q0 103 60 184.5t185 81.5q104 0 151.5 -59t47.5 -150q0 -117 -68.5 -189t-179.5 -72q-92 0 -144 52.5
t-52 151.5zM150 205q0 -54 14.5 -85.5t58.5 -31.5q57 0 80 47t23 112q0 115 -79 115q-97 0 -97 -157z" />
    <glyph glyph-name="uni014F" unicode="&#x14f;" horiz-adv-x="484" 
d="M315 653h100q-7 -71 -50 -104.5t-104 -33.5q-134 0 -119 138h100q-7 -61 29 -61q20 0 30.5 18.5t13.5 42.5zM15 194q0 103 60 184.5t185 81.5q104 0 151.5 -59t47.5 -150q0 -117 -68.5 -189t-179.5 -72q-92 0 -144 52.5t-52 151.5zM150 205q0 -54 14.5 -85.5t58.5 -31.5
q57 0 80 47t23 112q0 115 -79 115q-97 0 -97 -157z" />
    <glyph glyph-name="uni0151" unicode="&#x151;" horiz-adv-x="484" 
d="M366 662l-164 -154l-44 34l119 191zM521 599l-201 -91l-28 49l174 143zM15 194q0 103 60 184.5t185 81.5q104 0 151.5 -59t47.5 -150q0 -117 -68.5 -189t-179.5 -72q-92 0 -144 52.5t-52 151.5zM150 205q0 -54 14.5 -85.5t58.5 -31.5q57 0 80 47t23 112q0 115 -79 115
q-97 0 -97 -157z" />
    <glyph glyph-name="uni014D" unicode="&#x14d;" horiz-adv-x="484" 
d="M158 634h263l-10 -98h-263zM15 194q0 103 60 184.5t185 81.5q104 0 151.5 -59t47.5 -150q0 -117 -68.5 -189t-179.5 -72q-92 0 -144 52.5t-52 151.5zM150 205q0 -54 14.5 -85.5t58.5 -31.5q57 0 80 47t23 112q0 115 -79 115q-97 0 -97 -157z" />
    <glyph glyph-name="uni00F8" unicode="&#xf8;" horiz-adv-x="482" 
d="M13 194q0 103 60 184.5t185 81.5q60 0 104 -22l11 13h84l-44 -55q44 -53 44 -145q0 -117 -68.5 -189t-179.5 -72q-61 0 -105 23l-10 -13h-83l43 54q-41 52 -41 140zM148 205v-17t1 -16l142 177q-17 13 -46 13q-97 0 -97 -157zM221 88q57 0 80 47t23 112q0 10 -0.5 19
t-1.5 17l-146 -181q17 -14 45 -14z" />
    <glyph glyph-name="uni01FF" unicode="&#x1ff;" horiz-adv-x="482" 
d="M445 600l-204 -92l-29 49l174 143zM13 194q0 103 60 184.5t185 81.5q60 0 104 -22l11 13h84l-44 -55q44 -53 44 -145q0 -117 -68.5 -189t-179.5 -72q-61 0 -105 23l-10 -13h-83l43 54q-41 52 -41 140zM148 205v-17t1 -16l142 177q-17 13 -46 13q-97 0 -97 -157zM221 88
q57 0 80 47t23 112q0 10 -0.5 19t-1.5 17l-146 -181q17 -14 45 -14z" />
    <glyph glyph-name="uni0155" unicode="&#x155;" horiz-adv-x="357" 
d="M412 600l-204 -92l-29 49l174 143zM72 451h129l7 -124q15 47 41.5 90t67.5 43q28 0 49 -18l-20 -133q-28 15 -52 15q-68 0 -84 -70l-22 -156h86l-9 -71l-31 -27h-241l9 71l31 27h30l31 255h-62l9 71z" />
    <glyph glyph-name="uni0159" unicode="&#x159;" horiz-adv-x="357" 
d="M207 507l-120 127l38 49l119 -70l123 71l30 -51l-146 -126h-44zM72 451h129l7 -124q15 47 41.5 90t67.5 43q28 0 49 -18l-20 -133q-28 15 -52 15q-68 0 -84 -70l-22 -156h86l-9 -71l-31 -27h-241l9 71l31 27h30l31 255h-62l9 71z" />
    <glyph glyph-name="uni0157" unicode="&#x157;" horiz-adv-x="357" 
d="M72 451h129l7 -124q15 47 41.5 90t67.5 43q28 0 49 -18l-20 -133q-28 15 -52 15q-68 0 -84 -70l-22 -156h86l-9 -71l-31 -27h-241l9 71l31 27h30l31 255h-62l9 71zM158 -58l-42 -155h-96l19 155h119z" />
    <glyph glyph-name="uni015B" unicode="&#x15b;" horiz-adv-x="441" 
d="M411 600l-204 -92l-29 49l174 143zM198 88q32 0 52 11t20 32q0 29 -35.5 38.5t-78.5 21.5q-44 12 -80.5 37.5t-36.5 86.5q0 80 62 112.5t133 32.5q37 0 85 -9t88 -32l-1 -115l-99 -11l-2 56q-37 13 -71 13q-20 0 -43 -9t-23 -31q0 -21 26 -29t69 -19q45 -12 91 -38
t46 -97q0 -77 -58 -113t-138 -36q-43 0 -102 10.5t-101 33.5l31 126l97 -11l-5 -52q17 -6 40.5 -7.5t33.5 -1.5z" />
    <glyph glyph-name="uni015F" unicode="&#x15f;" horiz-adv-x="441" 
d="M198 88q32 0 52 11t20 32q0 29 -35.5 38.5t-78.5 21.5q-44 12 -80.5 37.5t-36.5 86.5q0 80 62 112.5t133 32.5q37 0 85 -9t88 -32l-1 -115l-99 -11l-2 56q-37 13 -71 13q-20 0 -43 -9t-23 -31q0 -21 26 -29t69 -19q45 -12 91 -38t46 -97q0 -70 -48.5 -105.5t-117.5 -41.5
l-5 -33h8q44 0 61.5 -22.5t17.5 -50.5q0 -53 -44 -74t-94 -21q-78 0 -110 30l29 70q11 -7 29.5 -15t45.5 -8q37 0 37 23q0 10 -6.5 16.5t-28.5 6.5h-36l12 79q-38 5 -78.5 14.5t-70.5 26.5l31 126l97 -11l-5 -52q17 -6 40.5 -7.5t33.5 -1.5z" />
    <glyph glyph-name="uni0161" unicode="&#x161;" horiz-adv-x="441" 
d="M219 507l-120 127l38 49l119 -70l123 71l30 -51l-146 -126h-44zM198 88q32 0 52 11t20 32q0 29 -35.5 38.5t-78.5 21.5q-44 12 -80.5 37.5t-36.5 86.5q0 80 62 112.5t133 32.5q37 0 85 -9t88 -32l-1 -115l-99 -11l-2 56q-37 13 -71 13q-20 0 -43 -9t-23 -31q0 -21 26 -29
t69 -19q45 -12 91 -38t46 -97q0 -77 -58 -113t-138 -36q-43 0 -102 10.5t-101 33.5l31 126l97 -11l-5 -52q17 -6 40.5 -7.5t33.5 -1.5z" />
    <glyph glyph-name="uni015D" unicode="&#x15d;" horiz-adv-x="441" 
d="M279 684l122 -129l-40 -47l-119 69l-123 -70l-32 48l148 129h44zM198 88q32 0 52 11t20 32q0 29 -35.5 38.5t-78.5 21.5q-44 12 -80.5 37.5t-36.5 86.5q0 80 62 112.5t133 32.5q37 0 85 -9t88 -32l-1 -115l-99 -11l-2 56q-37 13 -71 13q-20 0 -43 -9t-23 -31
q0 -21 26 -29t69 -19q45 -12 91 -38t46 -97q0 -77 -58 -113t-138 -36q-43 0 -102 10.5t-101 33.5l31 126l97 -11l-5 -52q17 -6 40.5 -7.5t33.5 -1.5z" />
    <glyph glyph-name="uni1E63" unicode="&#x1e63;" horiz-adv-x="441" 
d="M198 88q32 0 52 11t20 32q0 29 -35.5 38.5t-78.5 21.5q-44 12 -80.5 37.5t-36.5 86.5q0 80 62 112.5t133 32.5q37 0 85 -9t88 -32l-1 -115l-99 -11l-2 56q-37 13 -71 13q-20 0 -43 -9t-23 -31q0 -21 26 -29t69 -19q45 -12 91 -38t46 -97q0 -77 -58 -113t-138 -36
q-43 0 -102 10.5t-101 33.5l31 126l97 -11l-5 -52q17 -6 40.5 -7.5t33.5 -1.5zM109 -197l14 134h127l-14 -134h-127z" />
    <glyph glyph-name="uni0219" unicode="&#x219;" horiz-adv-x="441" 
d="M198 88q32 0 52 11t20 32q0 29 -35.5 38.5t-78.5 21.5q-44 12 -80.5 37.5t-36.5 86.5q0 80 62 112.5t133 32.5q37 0 85 -9t88 -32l-1 -115l-99 -11l-2 56q-37 13 -71 13q-20 0 -43 -9t-23 -31q0 -21 26 -29t69 -19q45 -12 91 -38t46 -97q0 -77 -58 -113t-138 -36
q-43 0 -102 10.5t-101 33.5l31 126l97 -11l-5 -52q17 -6 40.5 -7.5t33.5 -1.5zM252 -58l-42 -155h-96l19 155h119z" />
    <glyph glyph-name="uni00DF" unicode="&#xdf;" horiz-adv-x="650" 
d="M8 353l6 67l34 31h50l6 42q15 119 88 162t176 43q124 0 172.5 -44.5t48.5 -107.5q0 -58 -29 -90t-67 -50t-67 -34t-29 -43q0 -21 20 -31t49 -18q36 -10 73.5 -22t63.5 -39t26 -80q0 -77 -54.5 -113t-131.5 -36q-58 0 -114.5 10.5t-98.5 33.5l31 126l97 -11l-5 -52
q17 -6 40 -7.5t34 -1.5q31 0 51.5 11t20.5 32q0 23 -22.5 33t-53.5 17q-51 13 -103 36.5t-52 97.5q0 55 29 82t67 43t67 36t29 60q0 27 -21 46.5t-81 19.5q-70 0 -97 -30.5t-35 -90.5l-62 -505q-6 -46 -22.5 -91.5t-53 -76t-103.5 -30.5q-65 0 -106.5 36t-41.5 114l97 29
q0 -50 15.5 -65.5t30.5 -15.5q32 0 44 35.5t16 66.5l46 375h-78z" />
    <glyph glyph-name="uni0167" unicode="&#x167;" horiz-adv-x="364" 
d="M27 420l34 31h29l12 97l39 40h90l-17 -137h135l-9 -66l-34 -32h-104l-7 -62h142l-8 -40l-34 -32h-109l-9 -72q-7 -59 30 -59q16 0 31.5 14.5t28.5 66.5l87 -29q-19 -78 -55.5 -114t-104.5 -36q-72 0 -111.5 37.5t-31.5 107.5l10 84h-54l5 41l34 31h24l8 62h-60z" />
    <glyph glyph-name="uni0165" unicode="&#x165;" horiz-adv-x="359" 
d="M432 761l-59 -224h-96l36 224h119zM23 420l34 31h29l12 97l39 40h90l-17 -137h135l-9 -66l-34 -32h-104l-25 -206q-7 -59 30 -59q16 0 31.5 14.5t28.5 66.5l87 -29q-19 -78 -55.5 -114t-104.5 -36q-72 0 -111.5 37.5t-31.5 107.5l27 218h-60z" />
    <glyph glyph-name="uni021B" unicode="&#x21b;" horiz-adv-x="359" 
d="M23 420l34 31h29l12 97l39 40h90l-17 -137h135l-9 -66l-34 -32h-104l-25 -206q-7 -59 30 -59q16 0 31.5 14.5t28.5 66.5l87 -29q-19 -78 -55.5 -114t-104.5 -36q-72 0 -111.5 37.5t-31.5 107.5l27 218h-60zM255 -58l-42 -155h-96l19 155h119z" />
    <glyph glyph-name="uni0163" unicode="&#x163;" horiz-adv-x="359" 
d="M23 420l34 31h29l12 97l39 40h90l-17 -137h135l-9 -66l-34 -32h-104l-25 -206q-7 -59 30 -59q16 0 31.5 14.5t28.5 66.5l87 -29q-19 -78 -55.5 -114t-104.5 -36q-72 0 -111.5 37.5t-31.5 107.5l27 218h-60zM255 -58l-42 -155h-96l19 155h119z" />
    <glyph glyph-name="uni00FA" unicode="&#xfa;" horiz-adv-x="542" 
d="M476 600l-204 -92l-29 49l174 143zM511 98l-9 -71l-31 -27h-139l-5 87q-23 -43 -59 -69.5t-86 -26.5q-61 0 -101.5 38t-30.5 118l25 206h-58l9 73l30 25h154l-31 -254q-7 -59 8.5 -83.5t52.5 -24.5q45 0 67.5 30t28.5 77v-1l31 256h124l-43 -353h63z" />
    <glyph glyph-name="uni00F9" unicode="&#xf9;" horiz-adv-x="542" 
d="M328 508l-204 92l59 100l174 -143zM511 98l-9 -71l-31 -27h-139l-5 87q-23 -43 -59 -69.5t-86 -26.5q-61 0 -101.5 38t-30.5 118l25 206h-58l9 73l30 25h154l-31 -254q-7 -59 8.5 -83.5t52.5 -24.5q45 0 67.5 30t28.5 77v-1l31 256h124l-43 -353h63z" />
    <glyph glyph-name="uni00FB" unicode="&#xfb;" horiz-adv-x="542" 
d="M335 684l122 -129l-40 -47l-119 69l-123 -70l-32 48l148 129h44zM511 98l-9 -71l-31 -27h-139l-5 87q-23 -43 -59 -69.5t-86 -26.5q-61 0 -101.5 38t-30.5 118l25 206h-58l9 73l30 25h154l-31 -254q-7 -59 8.5 -83.5t52.5 -24.5q45 0 67.5 30t28.5 77v-1l31 256h124
l-43 -353h63z" />
    <glyph glyph-name="uni00FC" unicode="&#xfc;" horiz-adv-x="542" 
d="M315 531l14 134h127l-14 -134h-127zM134 531l14 134h126l-14 -134h-126zM511 98l-9 -71l-31 -27h-139l-5 87q-23 -43 -59 -69.5t-86 -26.5q-61 0 -101.5 38t-30.5 118l25 206h-58l9 73l30 25h154l-31 -254q-7 -59 8.5 -83.5t52.5 -24.5q45 0 67.5 30t28.5 77v-1l31 256
h124l-43 -353h63z" />
    <glyph glyph-name="uni016D" unicode="&#x16d;" horiz-adv-x="542" 
d="M339 653h100q-7 -71 -50 -104.5t-104 -33.5q-134 0 -119 138h100q-7 -61 29 -61q20 0 30.5 18.5t13.5 42.5zM511 98l-9 -71l-31 -27h-139l-5 87q-23 -43 -59 -69.5t-86 -26.5q-61 0 -101.5 38t-30.5 118l25 206h-58l9 73l30 25h154l-31 -254q-7 -59 8.5 -83.5t52.5 -24.5
q45 0 67.5 30t28.5 77v-1l31 256h124l-43 -353h63z" />
    <glyph glyph-name="uni0171" unicode="&#x171;" horiz-adv-x="542" 
d="M380 662l-164 -154l-44 34l119 191zM535 599l-201 -91l-28 49l174 143zM511 98l-9 -71l-31 -27h-139l-5 87q-23 -43 -59 -69.5t-86 -26.5q-61 0 -101.5 38t-30.5 118l25 206h-58l9 73l30 25h154l-31 -254q-7 -59 8.5 -83.5t52.5 -24.5q45 0 67.5 30t28.5 77v-1l31 256
h124l-43 -353h63z" />
    <glyph glyph-name="uni016B" unicode="&#x16b;" horiz-adv-x="542" 
d="M176 634h263l-10 -98h-263zM511 98l-9 -71l-31 -27h-139l-5 87q-23 -43 -59 -69.5t-86 -26.5q-61 0 -101.5 38t-30.5 118l25 206h-58l9 73l30 25h154l-31 -254q-7 -59 8.5 -83.5t52.5 -24.5q45 0 67.5 30t28.5 77v-1l31 256h124l-43 -353h63z" />
    <glyph glyph-name="uni0173" unicode="&#x173;" horiz-adv-x="543" 
d="M333 0l-5 87q-22 -43 -58.5 -69.5t-86.5 -26.5q-61 0 -101.5 38t-30.5 118l25 206h-58l9 73l30 25h154l-31 -254q-8 -59 8 -83.5t53 -24.5q45 0 67.5 30t28.5 77v-1l31 256h124l-43 -353h63l-9 -71l-31 -27h-30q-34 -22 -42.5 -43t-8.5 -35q0 -24 10.5 -32t27.5 -8
q27 0 46 12v-82q-17 -8 -39.5 -14t-50.5 -6q-45 0 -76 19.5t-31 63.5q0 40 25 72.5t60 52.5h-30z" />
    <glyph glyph-name="uni016F" unicode="&#x16f;" horiz-adv-x="542" 
d="M293 514q-93 0 -93 82q0 44 28.5 73t85.5 29q93 0 93 -81q0 -42 -27.5 -72.5t-86.5 -30.5zM299 574q30 0 30 39q0 25 -22 25q-28 0 -28 -39q0 -25 20 -25zM511 98l-9 -71l-31 -27h-139l-5 87q-23 -43 -59 -69.5t-86 -26.5q-61 0 -101.5 38t-30.5 118l25 206h-58l9 73
l30 25h154l-31 -254q-7 -59 8.5 -83.5t52.5 -24.5q45 0 67.5 30t28.5 77v-1l31 256h124l-43 -353h63z" />
    <glyph glyph-name="utilde" unicode="&#x169;" horiz-adv-x="542" 
d="M199 515l-47 16q1 29 24.5 76.5t72.5 47.5q33 0 59 -19t51 -19q33 0 50 41l52 -11q-5 -43 -25 -86.5t-69 -43.5q-37 0 -63.5 20.5t-55.5 20.5q-33 0 -49 -43zM511 98l-9 -71l-31 -27h-139l-5 87q-23 -43 -59 -69.5t-86 -26.5q-61 0 -101.5 38t-30.5 118l25 206h-58l9 73
l30 25h154l-31 -254q-7 -59 8.5 -83.5t52.5 -24.5q45 0 67.5 30t28.5 77v-1l31 256h124l-43 -353h63z" />
    <glyph glyph-name="uni01D4" unicode="&#x1d4;" horiz-adv-x="542" 
d="M273 507l-120 127l38 49l119 -70l123 71l30 -51l-146 -126h-44zM511 98l-9 -71l-31 -27h-139l-5 87q-23 -43 -59 -69.5t-86 -26.5q-61 0 -101.5 38t-30.5 118l25 206h-58l9 73l30 25h154l-31 -254q-7 -59 8.5 -83.5t52.5 -24.5q45 0 67.5 30t28.5 77v-1l31 256h124
l-43 -353h63z" />
    <glyph glyph-name="wacute" unicode="&#x1e83;" horiz-adv-x="735" 
d="M584 600l-204 -92l-29 49l174 143zM512 148h5q47 64 66 110.5t19 95.5q0 48 -20 97h139q11 -61 -3 -126t-67 -136q-25 -34 -74 -90t-92 -99h-52l-66 260h-6l-146 -260h-66l-96 353h-44l9 71l31 27h203l-9 -71l-31 -27h-31l35 -178h6l144 276h74z" />
    <glyph glyph-name="wcircumflex" unicode="&#x175;" horiz-adv-x="735" 
d="M434 684l122 -129l-40 -47l-119 69l-123 -70l-32 48l148 129h44zM512 148h5q47 64 66 110.5t19 95.5q0 48 -20 97h139q11 -61 -3 -126t-67 -136q-25 -34 -74 -90t-92 -99h-52l-66 260h-6l-146 -260h-66l-96 353h-44l9 71l31 27h203l-9 -71l-31 -27h-31l35 -178h6l144 276
h74z" />
    <glyph glyph-name="wdieresis" unicode="&#x1e85;" horiz-adv-x="735" 
d="M426 531l14 134h127l-14 -134h-127zM245 531l14 134h126l-14 -134h-126zM512 148h5q47 64 66 110.5t19 95.5q0 48 -20 97h139q11 -61 -3 -126t-67 -136q-25 -34 -74 -90t-92 -99h-52l-66 260h-6l-146 -260h-66l-96 353h-44l9 71l31 27h203l-9 -71l-31 -27h-31l35 -178h6
l144 276h74z" />
    <glyph glyph-name="wgrave" unicode="&#x1e81;" horiz-adv-x="735" 
d="M434 508l-204 92l59 100l174 -143zM512 148h5q47 64 66 110.5t19 95.5q0 48 -20 97h139q11 -61 -3 -126t-67 -136q-25 -34 -74 -90t-92 -99h-52l-66 260h-6l-146 -260h-66l-96 353h-44l9 71l31 27h203l-9 -71l-31 -27h-31l35 -178h6l144 276h74z" />
    <glyph glyph-name="ydieresis" unicode="&#xff;" horiz-adv-x="481" 
d="M313 531l14 134h127l-14 -134h-127zM132 531l14 134h126l-14 -134h-126zM255 148h6q47 64 67.5 111t20.5 99q0 44 -20 93h139q10 -56 -2 -122t-68 -140q-19 -25 -51.5 -62t-66.5 -75l-26 -167h63l-9 -71l-31 -27h-231l9 71l31 27h44l26 168l-101 300h-47l9 71l31 27h207
l-9 -71l-31 -27h-27z" />
    <glyph glyph-name="ycircumflex" unicode="&#x177;" horiz-adv-x="481" 
d="M319 684l122 -129l-40 -47l-119 69l-123 -70l-32 48l148 129h44zM255 148h6q47 64 67.5 111t20.5 99q0 44 -20 93h139q10 -56 -2 -122t-68 -140q-19 -25 -51.5 -62t-66.5 -75l-26 -167h63l-9 -71l-31 -27h-231l9 71l31 27h44l26 168l-101 300h-47l9 71l31 27h207l-9 -71
l-31 -27h-27z" />
    <glyph glyph-name="uni0233" unicode="&#x233;" horiz-adv-x="481" 
d="M156 634h263l-10 -98h-263zM255 148h6q47 64 67.5 111t20.5 99q0 44 -20 93h139q10 -56 -2 -122t-68 -140q-19 -25 -51.5 -62t-66.5 -75l-26 -167h63l-9 -71l-31 -27h-231l9 71l31 27h44l26 168l-101 300h-47l9 71l31 27h207l-9 -71l-31 -27h-27z" />
    <glyph glyph-name="ygrave" unicode="&#x1ef3;" horiz-adv-x="481" 
d="M336 508l-204 92l59 100l174 -143zM255 148h6q47 64 67.5 111t20.5 99q0 44 -20 93h139q10 -56 -2 -122t-68 -140q-19 -25 -51.5 -62t-66.5 -75l-26 -167h63l-9 -71l-31 -27h-231l9 71l31 27h44l26 168l-101 300h-47l9 71l31 27h207l-9 -71l-31 -27h-27z" />
    <glyph glyph-name="yacute" unicode="&#xfd;" horiz-adv-x="481" 
d="M446 600l-204 -92l-29 49l174 143zM255 148h6q47 64 67.5 111t20.5 99q0 44 -20 93h139q10 -56 -2 -122t-68 -140q-19 -25 -51.5 -62t-66.5 -75l-26 -167h63l-9 -71l-31 -27h-231l9 71l31 27h44l26 168l-101 300h-47l9 71l31 27h207l-9 -71l-31 -27h-27z" />
    <glyph glyph-name="zacute" unicode="&#x17a;" horiz-adv-x="451" 
d="M420 600l-204 -92l-29 49l174 143zM388 0h-381l-10 68l273 285h-127l-26 -70l-90 10l31 158h361l15 -68l-272 -285h143l29 70l98 -10z" />
    <glyph glyph-name="zcaron" unicode="&#x17e;" horiz-adv-x="451" 
d="M230 507l-120 127l38 49l119 -70l123 71l30 -51l-146 -126h-44zM388 0h-381l-10 68l273 285h-127l-26 -70l-90 10l31 158h361l15 -68l-272 -285h143l29 70l98 -10z" />
    <glyph glyph-name="zdotaccent" unicode="&#x17c;" horiz-adv-x="451" 
d="M194 531l14 134h127l-14 -134h-127zM388 0h-381l-10 68l273 285h-127l-26 -70l-90 10l31 158h361l15 -68l-272 -285h143l29 70l98 -10z" />
    <glyph glyph-name="thorn" unicode="&#xfe;" horiz-adv-x="511" 
d="M207 -186l-31 -27h-241l9 71l31 27h30l87 705h-63l9 71l31 27h161l-18 -141l-22 -176q20 37 53 63t83 26q82 0 121 -57.5t39 -133.5q0 -65 -23 -129.5t-71.5 -107t-123.5 -42.5q-86 0 -118 65l-21 -170h87zM252 88q46 0 72.5 54t26.5 112q0 44 -16.5 76t-54.5 32
q-46 0 -72 -38.5t-35 -84.5l-6 -48q-2 -103 85 -103z" />
    <glyph glyph-name="uni0259" unicode="&#x259;" horiz-adv-x="444" 
d="M206 362q-51 0 -66 -28.5t-20 -45.5l-101 20q11 59 64 105.5t142 46.5q80 0 137 -48t57 -154q0 -108 -64.5 -188t-179.5 -80q-72 0 -118 34t-46 90q0 50 35 85.5t126 54.5q23 4 51 8.5t60 8.5q-5 91 -77 91zM237 189q-60 -11 -78 -29t-18 -38q0 -25 15.5 -35t35.5 -10
q42 0 62.5 36.5t26.5 82.5q-13 -2 -23.5 -4t-20.5 -3z" />
    <glyph glyph-name="eth" unicode="&#xf0;" horiz-adv-x="492" 
d="M111 510l49 64q-21 13 -53 30l64 94q30 -15 60 -33l41 53l64 -40l-42 -55q74 -55 123 -136t49 -194q0 -77 -26.5 -146.5t-82.5 -113t-145 -43.5q-93 0 -145 53t-52 154q0 115 64.5 189t159.5 74q34 0 61 -12q-25 45 -77 85l-50 -65zM245 362q-53 0 -73 -43.5t-20 -114.5
q0 -47 12.5 -81.5t58.5 -34.5q53 0 74 43t27 89q2 10 2.5 20t1.5 20q2 41 -18 71.5t-65 30.5z" />
    <glyph glyph-name="ij" unicode="&#x133;" horiz-adv-x="528" 
d="M111 531l14 134h120l-14 -134h-120zM384 531l14 134h120l-14 -134h-120zM298 424l31 27h169l-54 -435q-13 -102 -50 -170t-108 -68q-57 0 -100 30l5 83q50 -19 83.5 -1t46.5 126l41 337h-73zM32 424l31 27h159l-43 -353h57l-9 -73l-30 -25h-154l43 353h-63z" />
    <glyph glyph-name="iacute_jacute" horiz-adv-x="530" 
d="M586 600l-204 -92l-29 49l174 143zM317 600l-204 -92l-29 49l174 143zM300 424l31 27h169l-54 -435q-13 -102 -50 -170t-108 -68q-57 0 -100 30l5 83q50 -19 83.5 -1t46.5 126l41 337h-73zM32 424l31 27h159l-43 -353h57l-9 -73l-30 -25h-154l43 353h-63z" />
    <glyph glyph-name="oe" unicode="&#x153;" horiz-adv-x="754" 
d="M15 194q0 103 60 184.5t185 81.5q100 0 150 -58q64 58 158 58q72 0 118 -34t46 -90q0 -50 -35 -85.5t-126 -54.5q-52 -11 -112 -17q3 -43 20 -67t58 -24q51 0 66 28.5t20 45.5l101 -20q-10 -59 -63.5 -105.5t-142.5 -46.5q-44 0 -81.5 13t-63.5 42q-66 -55 -162 -55
q-92 0 -144 52.5t-52 151.5zM506 261q60 11 78 29t18 38q0 25 -16 35t-35 10q-42 0 -62.5 -36.5t-26.5 -82.5q12 2 23 3.5t21 3.5zM150 205q0 -54 14.5 -85.5t58.5 -31.5q57 0 80 47t23 112q0 115 -79 115q-97 0 -97 -157z" />
    <glyph glyph-name="uni0069.locl" horiz-adv-x="274" 
d="M111 531l14 134h120l-14 -134h-120zM32 424l31 27h159l-43 -353h57l-9 -73l-30 -25h-154l43 353h-63z" />
    <glyph glyph-name="FL989" horiz-adv-x="660" 
d="M447 687l-180 134l73 85l145 -179zM335 688l-208 28l32 109l191 -80zM-5 114h57l222 422h-86l12 114h214l169 -536h59l-12 -114h-248l12 114h50l-17 66h-212l-32 -66h58l-12 -114h-246zM351 459l-89 -183h141l-46 183h-6z" />
    <glyph glyph-name="FL990" horiz-adv-x="522" 
d="M396 508l-164 154l89 71l119 -191zM278 508l-201 91l58 98l171 -140zM492 451q-13 -41 -22.5 -80t-14.5 -80l-24 -193h58l-9 -73l-30 -25h-135l-4 92q-21 -42 -57 -72t-91 -30q-74 0 -111 56t-37 137q0 61 22 125t67.5 108t118.5 44q98 0 128 -84q5 19 9.5 37.5
t11.5 37.5h120zM243 362q-48 0 -71 -50.5t-23 -113.5q0 -110 64 -110q41 0 70 39t38 83l4 34q6 56 -20.5 87t-61.5 31z" />
    <glyph glyph-name="FL991" horiz-adv-x="660" 
d="M343 695h-100q7 71 48.5 104.5t103.5 33.5q137 0 122 -138h-100q7 61 -30 61q-20 0 -30.5 -18.5t-13.5 -42.5zM-5 114h57l222 422h-86l12 114h214l169 -536h59l-12 -114h-248l12 114h50l-17 66h-212l-32 -66h58l-12 -114h-246zM351 459l-89 -183h141l-46 183h-6z" />
    <glyph glyph-name="FL992" horiz-adv-x="522" 
d="M260 515h-100q8 71 50 104.5t104 33.5q134 0 119 -138h-100q7 61 -29 61q-20 0 -30.5 -18.5t-13.5 -42.5zM492 451q-13 -41 -22.5 -80t-14.5 -80l-24 -193h58l-9 -73l-30 -25h-135l-4 92q-21 -42 -57 -72t-91 -30q-74 0 -111 56t-37 137q0 61 22 125t67.5 108t118.5 44
q98 0 128 -84q5 19 9.5 37.5t11.5 37.5h120zM243 362q-48 0 -71 -50.5t-23 -113.5q0 -110 64 -110q41 0 70 39t38 83l4 34q6 56 -20.5 87t-61.5 31z" />
    <glyph glyph-name="FL993" horiz-adv-x="569" 
d="M456 687l-180 134l73 85l145 -179zM344 688l-208 28l32 109l191 -80zM497 0h-489l12 114h69l44 422h-69l12 114h483v-190l-110 -10l-10 86h-178l-16 -153h272l-12 -113h-272l-16 -156h183l29 86l108 -10z" />
    <glyph glyph-name="FL994" horiz-adv-x="444" 
d="M377 508l-164 154l89 71l119 -191zM259 508l-201 91l58 98l171 -140zM227 88q51 0 66 28.5t20 45.5l101 -20q-10 -59 -63.5 -105.5t-142.5 -46.5q-80 0 -137 48t-57 154q0 108 64 188t180 80q72 0 118 -34t46 -90q0 -50 -35 -85.5t-126 -54.5q-52 -11 -112 -17
q3 -43 20 -67t58 -24zM196 261q60 11 78 29t18 38q0 25 -16 35t-35 10q-42 0 -62.5 -36.5t-26.5 -82.5q12 2 23 3.5t21 3.5z" />
    <glyph glyph-name="FL995" horiz-adv-x="569" 
d="M316 695h-100q8 71 49 104.5t103 33.5q137 0 122 -138h-100q7 61 -30 61q-20 0 -30.5 -18.5t-13.5 -42.5zM497 0h-489l12 114h69l44 422h-69l12 114h483v-190l-110 -10l-10 86h-178l-16 -153h272l-12 -113h-272l-16 -156h183l29 86l108 -10z" />
    <glyph glyph-name="FL996" horiz-adv-x="444" 
d="M239 515h-100q7 71 50 104.5t104 33.5q134 0 119 -138h-100q7 61 -29 61q-20 0 -30.5 -18.5t-13.5 -42.5zM227 88q51 0 66 28.5t20 45.5l101 -20q-10 -59 -63.5 -105.5t-142.5 -46.5q-80 0 -137 48t-57 154q0 108 64 188t180 80q72 0 118 -34t46 -90q0 -50 -35 -85.5
t-126 -54.5q-52 -11 -112 -17q3 -43 20 -67t58 -24zM196 261q60 11 78 29t18 38q0 25 -16 35t-35 10q-42 0 -62.5 -36.5t-26.5 -82.5q12 2 23 3.5t21 3.5z" />
    <glyph glyph-name="FL997" horiz-adv-x="339" 
d="M332 687l-180 134l73 85l145 -179zM220 688l-208 28l32 109l191 -80zM21 114h67l44 422h-67l12 114h263l-12 -114h-68l-44 -422h68l-12 -114h-263z" />
    <glyph glyph-name="FL998" horiz-adv-x="274" 
d="M248 508l-164 154l89 71l119 -191zM130 508l-201 91l58 98l171 -140zM32 424l31 27h159l-43 -353h57l-9 -73l-30 -25h-154l43 353h-63z" />
    <glyph glyph-name="FL999" horiz-adv-x="339" 
d="M179 695h-100q7 71 48.5 104.5t103.5 33.5q137 0 122 -138h-100q7 61 -30 61q-20 0 -30.5 -18.5t-13.5 -42.5zM21 114h67l44 422h-67l12 114h263l-12 -114h-68l-44 -422h68l-12 -114h-263z" />
    <glyph glyph-name="FL1000" horiz-adv-x="274" 
d="M127 515h-100q7 71 50 104.5t104 33.5q134 0 119 -138h-100q7 61 -29 61q-20 0 -30.5 -18.5t-13.5 -42.5zM32 424l31 27h159l-43 -353h57l-9 -73l-30 -25h-154l43 353h-63z" />
    <glyph glyph-name="FL1001" horiz-adv-x="685" 
d="M534 687l-180 134l73 85l145 -179zM422 688l-208 28l32 109l191 -80zM381 660q137 0 212.5 -88t75.5 -212q0 -100 -46 -184t-127.5 -135t-185.5 -51q-140 0 -212 88.5t-72 211.5q0 103 47 187t127 133.5t181 49.5zM330 108q101 0 150 75t49 167t-44 142t-118 50
q-94 0 -147.5 -71t-53.5 -169q0 -74 36.5 -134t127.5 -60z" />
    <glyph glyph-name="FL1002" horiz-adv-x="484" 
d="M370 508l-164 154l89 71l119 -191zM252 508l-201 91l58 98l171 -140zM14 194q0 103 60 184.5t185 81.5q103 0 151 -59t48 -150q0 -117 -68.5 -189t-179.5 -72q-92 0 -144 52.5t-52 151.5zM149 205q0 -54 14.5 -85.5t58.5 -31.5q57 0 80 47t23 112q0 115 -79 115
q-97 0 -97 -157z" />
    <glyph glyph-name="FL1003" horiz-adv-x="685" 
d="M357 695h-100q7 71 48.5 104.5t103.5 33.5q137 0 122 -138h-100q7 61 -30 61q-20 0 -30.5 -18.5t-13.5 -42.5zM381 660q137 0 212.5 -88t75.5 -212q0 -100 -46 -184t-127.5 -135t-185.5 -51q-140 0 -212 88.5t-72 211.5q0 103 47 187t127 133.5t181 49.5zM330 108
q101 0 150 75t49 167t-44 142t-118 50q-94 0 -147.5 -71t-53.5 -169q0 -74 36.5 -134t127.5 -60z" />
    <glyph glyph-name="FL1004" horiz-adv-x="484" 
d="M232 515h-100q8 71 50 104.5t104 33.5q134 0 119 -138h-100q7 61 -29 61q-20 0 -30.5 -18.5t-13.5 -42.5zM14 194q0 103 60 184.5t185 81.5q103 0 151 -59t48 -150q0 -117 -68.5 -189t-179.5 -72q-92 0 -144 52.5t-52 151.5zM149 205q0 -54 14.5 -85.5t58.5 -31.5
q57 0 80 47t23 112q0 115 -79 115q-97 0 -97 -157z" />
    <glyph glyph-name="FL1009" horiz-adv-x="690" 
d="M513 687l-180 134l73 85l145 -179zM401 688l-208 28l32 109l191 -80zM454 650h249l-12 -114h-56l-28 -267q-7 -69 -36.5 -133t-90 -105t-160.5 -41q-142 0 -196.5 81.5t-43.5 186.5l29 278h-55l12 114h257l-12 -114h-73l-29 -274q-7 -67 19.5 -110.5t101.5 -43.5
q74 0 112 44t45 117l28 267h-73z" />
    <glyph glyph-name="FL1010" horiz-adv-x="542" 
d="M368 508l-164 154l89 71l119 -191zM250 508l-201 91l58 98l171 -140zM511 98l-9 -71l-31 -27h-139l-5 87q-23 -43 -59 -69.5t-86 -26.5q-61 0 -101.5 38t-30.5 118l25 206h-58l9 73l30 25h154l-31 -254q-7 -59 8.5 -83.5t52.5 -24.5q45 0 67.5 30t28.5 77v-1l31 256h124
l-43 -353h63z" />
    <glyph glyph-name="FL1011" horiz-adv-x="690" 
d="M350 695h-100q8 71 49 104.5t103 33.5q137 0 122 -138h-100q7 61 -30 61q-20 0 -30.5 -18.5t-13.5 -42.5zM454 650h249l-12 -114h-56l-28 -267q-7 -69 -36.5 -133t-90 -105t-160.5 -41q-142 0 -196.5 81.5t-43.5 186.5l29 278h-55l12 114h257l-12 -114h-73l-29 -274
q-7 -67 19.5 -110.5t101.5 -43.5q74 0 112 44t45 117l28 267h-73z" />
    <glyph glyph-name="FL1012" horiz-adv-x="543" 
d="M252 515h-100q8 71 50 104.5t104 33.5q134 0 119 -138h-100q7 61 -29 61q-20 0 -30.5 -18.5t-13.5 -42.5zM511 98l-9 -71l-31 -27h-139l-5 87q-23 -43 -59 -69.5t-86 -26.5q-61 0 -101.5 38t-30.5 118l25 206h-58l9 73l30 25h154l-31 -254q-7 -59 8.5 -83.5t52.5 -24.5
q45 0 67.5 30t28.5 77v-1l31 256h124l-43 -353h63z" />
    <glyph glyph-name="uni01C6" unicode="&#x1c6;" horiz-adv-x="973" 
d="M297 661l31 27h178l-72 -590h58l-9 -73l-30 -25h-135l-2 99q-22 -44 -61.5 -76.5t-96.5 -32.5q-74 0 -109 56t-35 134q0 63 23 127.5t70 108.5t119 44q86 0 120 -66l24 196h-82zM752 507l-120 127l38 49l119 -70l123 71l30 -51l-146 -126h-44zM910 0h-381l-10 68l273 285
h-127l-26 -70l-90 10l31 158h361l15 -68l-272 -285h143l29 70l98 -10zM246 362q-48 0 -73 -50t-25 -118q0 -47 14 -76.5t47 -29.5q40 0 71.5 37.5t42.5 80.5l6 53q1 49 -25 76t-58 27z" />
    <glyph glyph-name="uni01C9" unicode="&#x1c9;" horiz-adv-x="511" 
d="M47 661l31 27h158l-72 -590h58l-9 -73l-30 -25h-155l72 590h-62zM367 531l14 134h120l-14 -134h-120zM281 424l31 27h169l-54 -435q-13 -102 -50 -170t-108 -68q-57 0 -100 30l5 83q50 -19 83 -1t47 126l41 337h-73z" />
    <glyph glyph-name="uni01CC" unicode="&#x1cc;" horiz-adv-x="795" 
d="M651 531l14 134h120l-14 -134h-120zM61 451h139l5 -86q23 43 59 69t86 26q61 0 101.5 -38t30.5 -118l-25 -206h58l-9 -73l-30 -25h-154l31 254q7 58 -8.5 83t-52.5 25q-42 0 -65 -26t-30 -69l-32 -267h-124l43 353h-63l9 71zM565 424l31 27h169l-54 -435
q-13 -102 -50 -170t-108 -68q-57 0 -100 30l5 83q50 -19 83 -1t47 126l41 337h-73z" />
    <glyph glyph-name="uni01F3" unicode="&#x1f3;" horiz-adv-x="972" 
d="M297 661l31 27h178l-72 -590h58l-9 -73l-30 -25h-135l-2 99q-22 -44 -61.5 -76.5t-96.5 -32.5q-74 0 -109 56t-35 134q0 63 23 127.5t70 108.5t119 44q86 0 120 -66l24 196h-82zM910 0h-381l-10 68l273 285h-127l-26 -70l-90 10l31 158h361l15 -68l-272 -285h143l29 70
l98 -10zM246 362q-48 0 -73 -50t-25 -118q0 -47 14 -76.5t47 -29.5q40 0 71.5 37.5t42.5 80.5l6 53q1 49 -25 76t-58 27z" />
    <glyph glyph-name="comma" unicode="," horiz-adv-x="221" 
d="M-34 -85l84 234h124l-84 -234h-124z" />
    <glyph glyph-name="period" unicode="." horiz-adv-x="224" 
d="M10 0l17 163h150l-17 -163h-150z" />
    <glyph glyph-name="ellipsis" unicode="&#x2026;" horiz-adv-x="647" 
d="M10 0l17 163h150l-17 -163h-150zM222 0l17 163h150l-17 -163h-150zM433 0l17 163h150l-17 -163h-150z" />
    <glyph glyph-name="colon" unicode=":" horiz-adv-x="243" 
d="M90 451h134l-20 -162h-134zM55 162h134l-20 -162h-134z" />
    <glyph glyph-name="semicolon" unicode=";" horiz-adv-x="245" 
d="M62 285l17 163h150l-17 -163h-150zM-32 -85l84 234h124l-84 -234h-124z" />
    <glyph glyph-name="question" unicode="?" horiz-adv-x="470" 
d="M151 456l-100 11l37 153q58 24 110 31.5t84 7.5q86 0 138 -35.5t52 -100.5q0 -55 -32 -86.5t-73.5 -51t-73.5 -36t-32 -40.5q0 -25 37 -25l-9 -79q-168 -20 -168 84q0 51 31 77t71 41.5t71 33.5t31 53q0 48 -70 48q-17 0 -41 -3.5t-41 -11.5zM118 0l15 145h148l-15 -145
h-148z" />
    <glyph glyph-name="questiondown" unicode="&#xbf;" horiz-adv-x="463" 
d="M338 454l-15 -145h-148l15 145h148zM305 -2l100 -11l-37 -153q-58 -24 -110 -31.5t-84 -7.5q-86 0 -138 35.5t-52 100.5q0 55 32 86.5t73.5 51t73.5 36t32 40.5q0 25 -37 25l9 79q168 20 168 -84q0 -51 -31 -77t-71 -41.5t-71 -33.5t-31 -53q0 -48 70 -48q17 0 41 3.5
t41 11.5z" />
    <glyph glyph-name="questiondown.lnum" horiz-adv-x="471" 
d="M363 654l-15 -145h-148l15 145h148zM330 198l100 -11l-37 -153q-59 -24 -110.5 -31.5t-83.5 -7.5q-85 0 -137.5 35.5t-52.5 100.5q0 55 32 86.5t73.5 51t73.5 36t32 40.5q0 25 -37 25l9 79q168 20 168 -84q0 -51 -31 -77t-71 -41.5t-71 -33.5t-31 -53q0 -48 70 -48
q17 0 41.5 3.5t40.5 11.5z" />
    <glyph glyph-name="question.aalt" horiz-adv-x="409" 
d="M125 361l-89 7l31 128q49 20 94 26.5t73 6.5q75 0 121 -29.5t46 -83.5q0 -43 -26 -67.5t-60.5 -38.5t-60.5 -26t-26 -30q0 -19 29 -19l-7 -68q-156 -18 -156 70q0 41 25 60.5t58 30.5t58 24t25 40q0 21 -16 28.5t-38 7.5q-36 0 -63 -13zM95 0l13 124h134l-13 -124h-134z
" />
    <glyph glyph-name="questiondown.c2sc" horiz-adv-x="410" 
d="M311 524l-13 -124h-134l13 124h134zM281 163l89 -7l-31 -128q-49 -20 -94 -26.5t-73 -6.5q-75 0 -121 29.5t-46 83.5q0 43 26 67.5t60.5 38.5t60.5 26t26 30q0 19 -29 19l7 68q156 18 156 -70q0 -41 -25 -60.5t-58 -30.5t-58 -24t-25 -40q0 -21 16 -28.5t38 -7.5
q36 0 63 13z" />
    <glyph glyph-name="exclam" unicode="!" horiz-adv-x="256" 
d="M242 650l-73 -418h-92l14 418h151zM30 0l15 145h148l-15 -145h-148z" />
    <glyph glyph-name="exclamdown" unicode="&#xa1;" horiz-adv-x="242" 
d="M209 454l-15 -145h-148l15 145h148zM-3 -196l73 418h92l-14 -418h-151z" />
    <glyph glyph-name="exclamdown.lnum" horiz-adv-x="256" 
d="M237 654l-15 -145h-148l15 145h148zM25 4l73 418h92l-14 -418h-151z" />
    <glyph glyph-name="exclam.aalt" horiz-adv-x="245" 
d="M221 521l-64 -330h-88l7 330h145zM29 0l13 124h133l-13 -124h-133z" />
    <glyph glyph-name="exclamdown.c2sc" horiz-adv-x="245" 
d="M213 524l-13 -124h-133l13 124h133zM21 3l64 330h88l-7 -330h-145z" />
    <glyph glyph-name="uni203D" unicode="&#x203d;" horiz-adv-x="727" 
d="M480 547q-22 0 -42 -6l-38 -77l-91 26l54 148q58 16 132 16q89 0 158.5 -32t69.5 -120q0 -67 -40 -103.5t-95.5 -59.5t-105 -49t-69.5 -73l-79 31q11 54 48.5 85.5t81.5 52.5t76 43t32 58q0 39 -35 49.5t-57 10.5zM195 653l118 -410l-88 -40l-173 383zM228 0l16 145h148
l-16 -145h-148z" />
    <glyph glyph-name="uni203D.smcp" horiz-adv-x="639" 
d="M349 374l-89 23l41 122q48 10 103 10q80 0 149.5 -31.5t69.5 -105.5q0 -51 -33 -78.5t-78.5 -44.5t-86 -36.5t-55.5 -54.5l-78 27q5 40 34 63t65 39t62.5 32.5t26.5 43.5q0 31 -30.5 38.5t-43.5 7.5q-18 0 -35 -5zM275 200l-84 -35l-154 301l136 58zM204 0l13 124h133
l-13 -124h-133z" />
    <glyph glyph-name="hyphen" unicode="-" horiz-adv-x="315" 
d="M42 288h234l-11 -108h-234z" />
    <glyph glyph-name="hyphen.lnum" horiz-adv-x="315" 
d="M52 393h234l-11 -108h-234z" />
    <glyph glyph-name="endash" unicode="&#x2013;" horiz-adv-x="579" 
d="M43 278h492l-9 -85h-492z" />
    <glyph glyph-name="endash.aalt" horiz-adv-x="577" 
d="M54 388h492l-9 -85h-492z" />
    <glyph glyph-name="emdash" unicode="&#x2014;" horiz-adv-x="1008" 
d="M43 278h921l-9 -85h-921z" />
    <glyph glyph-name="emdash.aalt" horiz-adv-x="1006" 
d="M54 388h921l-9 -85h-921z" />
    <glyph glyph-name="underscore" unicode="_" horiz-adv-x="492" 
d="M-1 -68h424l-9 -85h-424z" />
    <glyph glyph-name="at" unicode="@" horiz-adv-x="879" 
d="M641 291l-16 -151l-3 -24q-5 -40 32 -40q42 0 64.5 55t22.5 142q0 161 -72 223t-186 62q-160 0 -257.5 -97t-97.5 -266q0 -113 42 -179t109 -94t142 -28q45 0 99 11t101 43l33 -78q-50 -32 -113.5 -52t-136.5 -20q-160 0 -271.5 102t-111.5 283q0 131 61 238t165.5 170
t233.5 63q95 0 179.5 -38t136.5 -115t52 -195q0 -70 -22.5 -143t-72.5 -123t-132 -50q-56 0 -92.5 25t-37.5 68q-21 -39 -56 -66t-87 -27q-74 0 -111 56t-37 137q0 61 22 125t67.5 108t118.5 44q98 0 128 -84q5 19 9.5 37.5t11.5 37.5h120q-11 -36 -21.5 -77t-15.5 -83z
M429 362q-48 0 -71 -50.5t-23 -113.5q0 -110 64 -110q41 0 70 39t38 83l4 34q6 56 -20.5 87t-61.5 31z" />
    <glyph glyph-name="ampersand" unicode="&#x26;" horiz-adv-x="689" 
d="M440 385h246l-12 -114h-62q-41 -74 -117 -144q36 -14 69 -14t63 13l16 -110q-52 -26 -113 -26q-78 0 -157 50q-43 -23 -86.5 -36.5t-86.5 -13.5q-71 0 -130.5 40t-59.5 121q0 73 47.5 108t97.5 58q-25 70 -25 130q0 79 49 146t160 67q79 0 124 -38t45 -106
q0 -70 -52 -110t-155 -90q45 -85 120 -145q37 40 55 100h-48zM377 511q0 17 -8.5 34t-39.5 17q-43 0 -56 -33t-13 -64q0 -43 15 -87q58 35 80 67.5t22 65.5zM182 254q-44 -35 -44 -83q0 -42 29.5 -57t74.5 -15q28 0 51 4q-65 63 -111 151z" />
    <glyph glyph-name="slash" unicode="/" horiz-adv-x="390" 
d="M404 688l-279 -688h-117l278 688h118z" />
    <glyph glyph-name="slash.c2sc" horiz-adv-x="327" 
d="M331 520l-226 -520h-113l227 520h112z" />
    <glyph glyph-name="backslash" unicode="\" horiz-adv-x="448" 
d="M22 688h118l278 -688h-117z" />
    <glyph glyph-name="backslash.aalt" horiz-adv-x="426" 
d="M42 520h112l227 -520h-113z" />
    <glyph glyph-name="bar" unicode="|" horiz-adv-x="238" 
d="M220 730l-85 -810h-107l85 810h107z" />
    <glyph glyph-name="parenleft" unicode="(" horiz-adv-x="286" 
d="M228 718h112q-106 -121 -160 -246t-54 -260q0 -100 29.5 -203.5t89.5 -191.5h-114q-58 92 -84.5 193t-26.5 198q0 133 50 259.5t158 250.5z" />
    <glyph glyph-name="parenleft.lnum" horiz-adv-x="276" 
d="M210 688h112q-97 -109 -143 -206.5t-46 -209.5q0 -177 112 -325h-114q-53 73 -79 156.5t-26 164.5q0 111 48 215.5t136 204.5z" />
    <glyph glyph-name="parenright" unicode=")" horiz-adv-x="287" 
d="M57 -183h-112q106 121 160 246t54 260q0 100 -29.5 203.5t-89.5 191.5h114q58 -92 84.5 -193t26.5 -198q0 -133 -50 -259t-158 -251z" />
    <glyph glyph-name="parenright.lnum" horiz-adv-x="276" 
d="M75 -53h-112q97 109 143 206.5t46 209.5q0 177 -112 325h114q53 -74 79 -157t26 -164q0 -111 -48 -215.5t-136 -204.5z" />
    <glyph glyph-name="bracketleft" unicode="[" horiz-adv-x="293" 
d="M10 -248l109 1033h219l-10 -87h-112l-90 -859h112l-9 -87h-219z" />
    <glyph glyph-name="bracketleft.lnum" horiz-adv-x="298" 
d="M26 -97l89 843h219l-10 -87h-112l-70 -669h112l-9 -87h-219z" />
    <glyph glyph-name="bracketright" unicode="]" horiz-adv-x="292" 
d="M281 785l-109 -1033h-219l10 87h112l90 859h-112l9 87h219z" />
    <glyph glyph-name="bracketright.lnum" horiz-adv-x="298" 
d="M282 746l-89 -843h-219l10 87h112l70 669h-112l9 87h219z" />
    <glyph glyph-name="braceleft" unicode="{" horiz-adv-x="294" 
d="M116 267q61 -7 85 -33.5t24 -54.5q0 -33 -28.5 -83t-57 -103.5t-28.5 -99.5q0 -54 56 -54h63l-9 -87h-63q-86 0 -119 41t-33 90q0 57 28.5 116t57 109t28.5 78q0 34 -34 43.5t-56 9.5h-19l6 57h19q22 0 62 10.5t40 50.5q0 39 -27 114t-27 148q0 66 41 116t141 50h63
l-9 -87h-63q-70 0 -70 -77q0 -41 14.5 -88.5t29 -91t14.5 -74.5t-29 -61.5t-100 -38.5z" />
    <glyph glyph-name="braceleft.lnum" horiz-adv-x="300" 
d="M124 327q61 -7 85 -33.5t24 -54.5q0 -36 -26.5 -61.5t-52.5 -55.5t-26 -79q0 -54 56 -54h63l-9 -87h-63q-86 0 -118.5 41t-32.5 90q0 61 26 96.5t52 60.5t26 56q0 34 -34 43.5t-56 9.5h-19l6 57h19q22 0 62 10.5t40 49.5q0 24 -16 45t-32 49t-16 73q0 64 41 113.5
t141 49.5h63l-9 -87h-63q-70 0 -70 -75q0 -38 17 -62.5t34 -46t17 -49.5q0 -29 -29 -60t-100 -39z" />
    <glyph glyph-name="braceright" unicode="}" horiz-adv-x="294" 
d="M177 271q-61 7 -85 33.5t-24 54.5q0 33 28.5 83t57 103.5t28.5 99.5q0 54 -56 54h-63l9 87h63q86 0 119 -41t33 -90q0 -57 -28.5 -116t-57 -109t-28.5 -78q0 -34 34 -43.5t56 -9.5h19l-6 -57h-19q-23 0 -62.5 -10.5t-39.5 -50.5q0 -39 27 -114t27 -148q0 -66 -40.5 -116
t-141.5 -50h-63l9 87h63q70 0 70 77q0 41 -14.5 88.5t-29 91t-14.5 74.5t29 61.5t100 38.5z" />
    <glyph glyph-name="braceright.lnum" horiz-adv-x="300" 
d="M186 322q-61 8 -85 34t-24 54q0 36 26.5 61.5t52.5 55t26 79.5q0 54 -56 54h-63l9 87h63q86 0 118.5 -40.5t32.5 -90.5q0 -62 -26 -97t-52 -60t-26 -56q0 -34 34 -43.5t56 -9.5h19l-6 -57h-19q-22 0 -62 -10.5t-40 -49.5q0 -24 16 -45t32 -49t16 -73q0 -64 -41 -113.5
t-141 -49.5h-63l9 87h63q70 0 70 75q0 38 -17 62.5t-34 46t-17 49.5q0 29 29 60t100 39z" />
    <glyph glyph-name="uni301A" unicode="&#x301a;" horiz-adv-x="469" 
d="M10 -248l109 1033h385l-10 -87h-112l-90 -859h112l-9 -87h-385zM216 698l-90 -859h60l91 859h-61z" />
    <glyph glyph-name="uni301B" unicode="&#x301b;" horiz-adv-x="468" 
d="M457 785l-109 -1033h-385l10 87h112l90 859h-112l9 87h385zM341 698h-60l-91 -859h61z" />
    <glyph glyph-name="uni301A.cap" horiz-adv-x="464" 
d="M26 -98l89 844h385l-9 -87h-112l-71 -670h112l-9 -87h-385zM213 659l-71 -670h60l71 670h-60z" />
    <glyph glyph-name="uni301B.cap" horiz-adv-x="465" 
d="M449 746l-89 -844h-385l9 87h112l71 670h-112l9 87h385zM333 659h-60l-71 -670h60z" />
    <glyph glyph-name="dblparenleft" horiz-adv-x="448" 
d="M228 718h112q-106 -121 -160 -246t-54 -260q0 -100 29.5 -203.5t89.5 -191.5h-114q-58 92 -84.5 193t-26.5 198q0 133 50 259.5t158 250.5zM389 718h112q-106 -121 -160 -246t-54 -260q0 -100 29.5 -203.5t89.5 -191.5h-114q-58 92 -85 193t-27 198q0 134 51 260t158 250
z" />
    <glyph glyph-name="dblparenleft.cap" horiz-adv-x="433" 
d="M210 688h112q-97 -109 -143 -206.5t-46 -209.5q0 -177 112 -325h-114q-53 73 -79 156.5t-26 164.5q0 111 48 215.5t136 204.5zM367 688h112q-97 -109 -143 -206.5t-46 -209.5q0 -177 112 -325h-114q-53 73 -79 156.5t-26 164.5q0 111 48 215.5t136 204.5z" />
    <glyph glyph-name="dblparenright" horiz-adv-x="448" 
d="M218 -183h-112q106 121 160 246t54 260q0 100 -29.5 203.5t-89.5 191.5h114q58 -92 84.5 -193t26.5 -198q0 -133 -50 -259t-158 -251zM57 -183h-112q106 121 160 246t54 260q0 100 -29.5 203.5t-89.5 191.5h114q58 -92 85 -193t27 -198q0 -133 -51 -259.5t-158 -250.5z
" />
    <glyph glyph-name="dblparenright.cap" horiz-adv-x="433" 
d="M232 -53h-112q97 109 143 206.5t46 209.5q0 177 -112 325h114q53 -74 79 -157t26 -164q0 -111 -48 -215.5t-136 -204.5zM75 -53h-112q97 109 143 206.5t46 209.5q0 177 -112 325h114q53 -74 79 -157t26 -164q0 -111 -48 -215.5t-136 -204.5z" />
    <glyph glyph-name="asciicircum" unicode="^" horiz-adv-x="462" 
d="M227 650h79l138 -283h-116l-74 158l-99 -158h-116z" />
    <glyph glyph-name="asciitilde" unicode="~" horiz-adv-x="560" 
d="M363 176q-41 0 -71.5 16.5t-59.5 33t-63 16.5q-18 0 -39 -11t-50 -51l-65 48q75 132 170 132q35 0 62 -16.5t55 -33t70 -16.5q28 0 49 13.5t50 55.5l74 -53q-34 -57 -79.5 -95.5t-102.5 -38.5z" />
    <glyph glyph-name="degree" unicode="&#xb0;" horiz-adv-x="357" 
d="M185 342q-70 0 -105.5 40t-35.5 100q0 74 48.5 126t127.5 52q71 0 105 -41t34 -99q0 -74 -46.5 -126t-127.5 -52zM194 432q25 0 43.5 17.5t18.5 63.5q0 32 -13 44.5t-32 12.5q-25 0 -44.5 -18t-19.5 -64q0 -31 13.5 -43.5t33.5 -12.5z" />
    <glyph glyph-name="section" unicode="&#xa7;" horiz-adv-x="620" 
d="M510 161q0 -73 -61 -122t-162 -49q-41 0 -113 10t-123 34l34 136l96 -11l-11 -65q17 -6 58 -10t61 -4q47 0 71.5 20t24.5 47q0 35 -36.5 42t-82.5 12q-50 5 -103 15t-89 35t-36 74q0 43 28 70t62 44q-13 26 -13 59q0 72 60 117t168 45q43 0 93 -9t98 -32l-1 -129l-99 -11
l-3 70q-12 7 -40.5 14.5t-59.5 7.5q-34 0 -61.5 -12.5t-27.5 -43.5t28 -46.5t68 -22.5q44 -8 105.5 -15.5t108 -33.5t46.5 -89q0 -49 -28 -78.5t-61 -48.5q1 -6 1 -20zM481 285q0 31 -33 44t-79.5 18t-86.5 10q-24 4 -50.5 10.5t-50.5 19.5q-10 -6 -18 -15.5t-8 -24.5
q0 -29 39 -37t127 -19q38 -5 76 -12.5t66 -25.5q5 3 11.5 10.5t6.5 21.5z" />
    <glyph glyph-name="bullet" unicode="&#x2022;" horiz-adv-x="343" 
d="M44 231q0 57 41 97.5t95 40.5q49 0 80.5 -33t31.5 -82q0 -57 -41 -97t-96 -40q-49 0 -80 33t-31 81z" />
    <glyph glyph-name="paragraph" unicode="&#xb6;" horiz-adv-x="645" 
d="M647 650l-12 -109h-63l-56 -541h-117l56 541h-39l-56 -541h-118l32 310h-45q-78 0 -131 35t-53 118q0 78 59.5 132.5t166.5 54.5h376z" />
    <glyph glyph-name="paragraph.aalt" horiz-adv-x="559" 
d="M551 521l-10 -93h-50l-45 -428h-113l45 428h-26l-45 -428h-113l26 249h-35q-63 0 -107.5 27.5t-44.5 95.5q0 62 50 105.5t136 43.5h332z" />
    <glyph glyph-name="numbersign" unicode="#" horiz-adv-x="563" 
d="M526 521l-30 -101h52l-11 -98h-70l-36 -123h64l-10 -98h-83l-29 -101h-108l29 101h-127l-29 -101h-107l29 101h-48l10 98h67l36 123h-60l11 98h78l30 101h107l-30 -101h127l30 101h108zM196 199h127l36 123h-127z" />
    <glyph glyph-name="numbersign.aalt" horiz-adv-x="562" 
d="M549 652l-48 -162h55l-11 -98h-73l-36 -123h66l-10 -98h-84l-50 -171h-108l50 171h-127l-50 -171h-107l50 171h-46l10 98h64l36 123h-58l11 98h76l48 162h108l-48 -162h126l48 162h108zM202 269h126l36 123h-126z" />
    <glyph glyph-name="percent" unicode="%" horiz-adv-x="724" 
d="M178 240q-70 0 -105 37t-35 93q0 66 46 113.5t126 47.5q70 0 104 -37.5t34 -92.5q0 -66 -45 -113.5t-125 -47.5zM648 521l-231 -262l-219 -259h-131l260 285l190 236h131zM185 322q25 0 43 17t18 55q0 55 -45 55q-24 0 -43 -16.5t-19 -55.5q0 -32 13.5 -43.5t32.5 -11.5z
M513 -10q-70 0 -105 37t-35 93q0 67 46.5 114t125.5 47q71 0 105 -37.5t34 -93.5q0 -65 -45 -112.5t-126 -47.5zM521 72q25 0 43 17t18 55q0 55 -45 55q-24 0 -43 -16.5t-19 -54.5q0 -32 13.5 -44t32.5 -12z" />
    <glyph glyph-name="perthousand" unicode="&#x2030;" horiz-adv-x="1041" 
d="M178 240q-70 0 -105 37t-35 93q0 66 46 113.5t126 47.5q70 0 104 -37.5t34 -92.5q0 -66 -45 -113.5t-125 -47.5zM648 521l-231 -262l-219 -259h-131l260 285l190 236h131zM185 322q25 0 43 17t18 55q0 55 -45 55q-24 0 -43 -16.5t-19 -55.5q0 -32 13.5 -43.5t32.5 -11.5z
M513 -10q-70 0 -105 37t-35 93q0 67 46.5 114t125.5 47q71 0 105 -37.5t34 -93.5q0 -65 -45 -112.5t-126 -47.5zM832 -10q-70 0 -105 37t-35 92q0 67 47 114.5t125 47.5q70 0 104 -37.5t34 -93.5q0 -65 -44.5 -112.5t-125.5 -47.5zM521 72q25 0 43 17t18 55q0 55 -45 55
q-24 0 -43 -16.5t-19 -54.5q0 -32 13.5 -44t32.5 -12zM840 72q25 0 42.5 17t17.5 55q0 55 -44 55q-26 0 -44 -17t-18 -55q0 -55 46 -55z" />
    <glyph glyph-name="percent.aalt" horiz-adv-x="691" 
d="M189 344q-67 0 -104 40t-37 101q0 73 50 124t130 51q71 0 105.5 -40.5t34.5 -98.5q0 -75 -51 -126t-128 -51zM641 651l-235 -321l-222 -330h-131l267 357l192 294h129zM200 433q26 0 44 18.5t18 59.5q0 35 -13 47.5t-33 12.5q-25 0 -44 -18t-19 -60q0 -60 47 -60z
M475 -10q-67 0 -103.5 40t-36.5 100q0 74 50 125t129 51q70 0 104.5 -40.5t34.5 -98.5q0 -75 -50.5 -126t-127.5 -51zM486 79q26 0 44 18.5t18 60.5q0 34 -12.5 46.5t-33.5 12.5q-26 0 -44.5 -18t-18.5 -60q0 -60 47 -60z" />
    <glyph glyph-name="perthousand.aalt" horiz-adv-x="1017" 
d="M189 344q-67 0 -104 40t-37 101q0 73 50 124t130 51q71 0 105.5 -40.5t34.5 -98.5q0 -75 -51 -126t-128 -51zM641 651l-235 -321l-222 -330h-131l267 357l192 294h129zM200 433q26 0 44 18.5t18 59.5q0 35 -13 47.5t-33 12.5q-25 0 -44 -18t-19 -60q0 -60 47 -60z
M475 -10q-67 0 -103.5 40t-36.5 100q0 74 50 125t129 51q70 0 104.5 -40.5t34.5 -98.5q0 -75 -50.5 -126t-127.5 -51zM803 -10q-67 0 -103.5 40t-36.5 100q0 74 50.5 125t129.5 51q71 0 104.5 -41t33.5 -98q0 -75 -50.5 -126t-127.5 -51zM486 79q26 0 44 18.5t18 60.5
q0 34 -12.5 46.5t-33.5 12.5q-26 0 -44.5 -18t-18.5 -60q0 -60 47 -60zM815 79q25 0 43.5 18t18.5 61q0 34 -12.5 46.5t-33.5 12.5q-26 0 -44.5 -18.5t-18.5 -59.5q0 -35 13 -47.5t34 -12.5z" />
    <glyph glyph-name="ordfeminine" unicode="&#xaa;" horiz-adv-x="377" 
d="M375 699q-8 -27 -14.5 -53.5t-10.5 -54.5l-15 -113h37l-6 -55l-21 -18h-94l-3 61q-14 -28 -38 -48t-61 -20q-50 0 -74.5 37.5t-24.5 89.5q0 61 33.5 120.5t105.5 59.5q65 0 85 -54q6 24 15 48h86zM204 633q-28 0 -42.5 -28.5t-14.5 -68.5q0 -65 38 -65q29 0 48 28.5
t23 56.5v1l1 6q1 34 -15.5 52t-37.5 18z" />
    <glyph glyph-name="ordfeminine.aalt" horiz-adv-x="423" 
d="M44 466h38l101 163h-44l7 68h150l87 -231h37l-7 -69h-148l7 69h19l-7 23h-105l-13 -23h24l-7 -69h-146zM243 603l-37 -66h62l-22 66h-3z" />
    <glyph glyph-name="ordmasculine" unicode="&#xba;" horiz-adv-x="342" 
d="M49 532q0 67 40.5 120t125.5 53q70 0 103 -37.5t33 -99.5q0 -77 -46.5 -123.5t-122.5 -46.5q-62 0 -97.5 33.5t-35.5 100.5zM147 541q0 -33 8.5 -51.5t35.5 -18.5q36 0 50 28t14 66t-12 53t-37 15q-31 0 -45 -21t-14 -71z" />
    <glyph glyph-name="dagger" unicode="&#x2020;" horiz-adv-x="449" 
d="M41 440h147l23 210h107l-23 -210h147l-11 -109h-147l-50 -472h-107l50 472h-147z" />
    <glyph glyph-name="daggerdbl" unicode="&#x2021;" horiz-adv-x="472" 
d="M24 160h147l18 171h-147l12 109h147l22 210h107l-22 -210h147l-12 -109h-147l-18 -171h147l-11 -109h-147l-20 -192h-107l20 192h-147z" />
    <glyph glyph-name="quotesingle" unicode="'" horiz-adv-x="203" 
d="M164 377h-107l20 273h126z" />
    <glyph glyph-name="quotedbl" unicode="&#x22;" horiz-adv-x="379" 
d="M164 377h-107l20 273h126zM340 377h-107l20 273h126z" />
    <glyph glyph-name="quotedblleft" unicode="&#x201c;" horiz-adv-x="395" 
d="M252 669l-84 -234h-124l84 234h124zM424 669l-84 -234h-124l84 234h124z" />
    <glyph glyph-name="quotedblleft.aalt" horiz-adv-x="404" 
d="M241 549l-84 -234h-124l84 234h124zM413 549l-84 -234h-124l84 234h124z" />
    <glyph glyph-name="quotedblright" unicode="&#x201d;" horiz-adv-x="387" 
d="M28 436l84 234h124l-84 -234h-124zM200 436l84 234h124l-84 -234h-124z" />
    <glyph glyph-name="quotedblright.aalt" horiz-adv-x="404" 
d="M33 316l84 234h124l-84 -234h-124zM205 316l84 234h124l-84 -234h-124z" />
    <glyph glyph-name="quoteleft" unicode="&#x2018;" horiz-adv-x="228" 
d="M248 639l-84 -234h-124l84 234h124z" />
    <glyph glyph-name="quoteleft.aalt" horiz-adv-x="232" 
d="M241 549l-84 -234h-124l84 234h124z" />
    <glyph glyph-name="quoteright" unicode="&#x2019;" horiz-adv-x="221" 
d="M45 496l84 234h124l-84 -234h-124z" />
    <glyph glyph-name="quoteright.aalt" horiz-adv-x="232" 
d="M33 316l84 234h124l-84 -234h-124z" />
    <glyph glyph-name="quotesinglbase" unicode="&#x201a;" horiz-adv-x="221" 
d="M-34 -85l84 234h124l-84 -234h-124z" />
    <glyph glyph-name="quotedblbase" unicode="&#x201e;" horiz-adv-x="396" 
d="M-34 -85l84 234h124l-84 -234h-124zM141 -85l84 234h124l-84 -234h-124z" />
    <glyph glyph-name="guilsinglleft" unicode="&#x2039;" horiz-adv-x="293" 
d="M238 25h-105l-109 246l160 240h105l-140 -240z" />
    <glyph glyph-name="guilsinglright.aalt" horiz-adv-x="295" 
d="M115 85h-104l140 246l-89 240h104l111 -240z" />
    <glyph glyph-name="guilsinglright" unicode="&#x203a;" horiz-adv-x="294" 
d="M108 25h-105l141 246l-90 240h105l110 -240z" />
    <glyph glyph-name="guilsinglleft.aalt" horiz-adv-x="294" 
d="M243 85h-105l-109 246l160 240h105l-140 -240z" />
    <glyph glyph-name="guillemotleft" unicode="&#xab;" horiz-adv-x="460" 
d="M238 25h-105l-109 246l160 240h105l-140 -240zM405 25h-105l-109 246l160 240h105l-140 -240z" />
    <glyph glyph-name="guillemotleft.aalt" horiz-adv-x="461" 
d="M243 85h-105l-109 246l160 240h105l-140 -240zM410 85h-105l-109 246l160 240h105l-140 -240z" />
    <glyph glyph-name="guillemotright" unicode="&#xbb;" horiz-adv-x="461" 
d="M274 25h-104l140 246l-89 240h104l111 -240zM108 25h-105l141 246l-90 240h105l110 -240z" />
    <glyph glyph-name="guillemotright.aalt" horiz-adv-x="462" 
d="M282 85h-104l140 246l-89 240h104l111 -240zM116 85h-105l141 246l-90 240h105l110 -240z" />
    <glyph glyph-name="asterisk" unicode="*" horiz-adv-x="406" 
d="M404 532l-109 -53l98 -53l-55 -75l-84 62l-4 -104h-87l18 105l-98 -63l-39 75l109 53l-98 53l54 75l87 -65l3 108h87l-19 -107l99 64z" />
    <glyph glyph-name="periodcentered" unicode="&#xb7;" horiz-adv-x="227" 
d="M37 251l17 163h150l-17 -163h-150z" />
    <glyph glyph-name="periodcentered.aalt" horiz-adv-x="237" 
d="M36 192l17 163h150l-17 -163h-150z" />
    <glyph glyph-name="glyph423" horiz-adv-x="547" 
d="M495 451l-43 -353h57l-9 -73l-30 -25h-154l43 353h-149l-46 -377q-6 -46 -22.5 -91.5t-53 -76t-103.5 -30.5q-65 0 -106.5 36t-41.5 114l97 29q0 -50 15.5 -65.5t30.5 -15.5q32 0 44 35.5t16 66.5l45 375h-77l6 67l34 31h49l9 68q8 69 59 124t160 55q37 0 81.5 -9
t85.5 -32l7 -122l-99 -11l-12 64q-8 4 -21.5 8.5t-40.5 4.5q-59 0 -75 -25t-20 -54l-9 -71h273z" />
    <glyph glyph-name="glyph424" horiz-adv-x="544" 
d="M523 688l-72 -590h58l-9 -73l-30 -25h-155l65 536q2 66 -71 66q-35 0 -54 -21t-23 -53l-10 -77h107l-9 -66l-34 -32h-76l-46 -377q-6 -46 -22.5 -91.5t-53 -76t-103.5 -30.5q-65 0 -106.5 36t-41.5 114l97 29q0 -50 15.5 -65.5t30.5 -15.5q32 0 44 35.5t16 66.5l46 375
h-78l6 67l34 31h50l11 82q11 83 61.5 124t113.5 41q42 0 68.5 -16t40.5 -41l6 47h124z" />
    <glyph glyph-name="brokenbar" unicode="&#xa6;" horiz-adv-x="234" 
d="M218 730l-32 -304h-107l32 304h107zM165 224l-32 -304h-107l32 304h107z" />
    <glyph glyph-name="minus" unicode="&#x2212;" horiz-adv-x="425" 
d="M38 237l9 88h340l-9 -88h-340z" />
    <glyph glyph-name="plus" unicode="+" horiz-adv-x="393" 
d="M22 237l9 88h130l14 130h86l-14 -130h124l-9 -88h-124l-14 -129h-86l14 129h-130z" />
    <glyph glyph-name="multiply" unicode="&#xd7;" horiz-adv-x="365" 
d="M76 120l-55 62l102 94l-80 92l67 62l80 -92l98 90l54 -62l-98 -90l80 -91l-67 -63l-80 91z" />
    <glyph glyph-name="less" unicode="&#x3c;" horiz-adv-x="386" 
d="M308 14l-286 243l5 44l337 248l-13 -122l-198 -145l168 -146z" />
    <glyph glyph-name="equal" unicode="=" horiz-adv-x="532" 
d="M49 347l10 88h448l-10 -88h-448zM26 125l9 88h448l-9 -88h-448z" />
    <glyph glyph-name="greater" unicode="&#x3e;" horiz-adv-x="388" 
d="M362 257l-338 -243l13 122l199 146l-169 145l13 122l286 -248z" />
    <glyph glyph-name="infinity" unicode="&#x221e;" horiz-adv-x="693" 
d="M480 79q-64 0 -94.5 32.5t-49.5 75.5q-26 -43 -62 -75.5t-99 -32.5q-74 0 -112 46.5t-38 110.5q0 80 54 138t136 58q65 0 92.5 -35.5t43.5 -80.5q29 45 68 80.5t103 35.5q70 0 106 -44.5t36 -111.5q0 -81 -50 -139t-134 -58zM196 174q38 0 65 23t49 57q-14 34 -34.5 58
t-59.5 24q-45 0 -65.5 -30t-20.5 -64q0 -68 66 -68zM468 174q42 0 65.5 25.5t23.5 66.5q0 29 -14.5 49.5t-52.5 20.5q-42 0 -68.5 -25t-47.5 -60q13 -32 33.5 -54.5t60.5 -22.5z" />
    <glyph glyph-name="plusminus" unicode="&#xb1;" horiz-adv-x="409" 
d="M33 249l9 88h130l14 130h86l-14 -130h124l-9 -88h-124l-13 -129h-86l13 129h-130zM7 0l9 88h340l-9 -88h-340z" />
    <glyph glyph-name="lessequal" unicode="&#x2264;" horiz-adv-x="390" 
d="M325 94l-293 183l7 64l331 188l-12 -112l-191 -103l170 -108zM2 0l9 88h313l-9 -88h-313z" />
    <glyph glyph-name="notequal" unicode="&#x2260;" horiz-adv-x="523" 
d="M46 347l10 88h263l48 69h104l-47 -69h80l-10 -88h-129l-90 -134h205l-9 -88h-255l-46 -69h-114l48 69h-81l9 88h133l93 134h-212z" />
    <glyph glyph-name="greaterequal" unicode="&#x2265;" horiz-adv-x="389" 
d="M72 528l293 -183l-7 -64l-331 -188l12 112l191 103l-170 108zM339 88l-9 -88h-313l9 88h313z" />
    <glyph glyph-name="divide" unicode="&#xf7;" horiz-adv-x="396" 
d="M134 361l17 163h150l-17 -163h-150zM24 237l9 88h340l-9 -88h-340zM100 39l17 163h150l-17 -163h-150z" />
    <glyph glyph-name="logicalnot" unicode="&#xac;" horiz-adv-x="556" 
d="M403 75l17 162h-385l9 88h471l-26 -250h-86z" />
    <glyph glyph-name="approxequal" unicode="&#x2248;" horiz-adv-x="579" 
d="M384 289q-40 0 -71 16.5t-59 33t-62 16.5q-19 0 -40.5 -11t-50.5 -51l-65 48q75 132 170 132q36 0 62 -16.5t55 -33t70 -16.5q28 0 49.5 13.5t49.5 55.5l74 -53q-34 -57 -79.5 -95.5t-102.5 -38.5zM362 78q-40 0 -71 16.5t-60 33t-62 16.5q-19 0 -40 -11t-50 -51l-65 48
q75 132 170 132q36 0 62 -16.5t55 -33t70 -16.5q28 0 49.5 13.5t49.5 55.5l74 -53q-34 -57 -79.5 -95.5t-102.5 -38.5z" />
    <glyph glyph-name="radical" unicode="&#x221a;" horiz-adv-x="576" 
d="M207 0l-71 344h-120l10 97h197l55 -264l247 520h104l-337 -697h-85z" />
    <glyph glyph-name="partialdiff" unicode="&#x2202;" horiz-adv-x="439" 
d="M75 307q0 46 26 88l-69 80l52 47l68 -77q40 27 86 27t82 -28l85 78l42 -47l-88 -81q13 -29 13 -60q0 -49 -30 -92l72 -83l-52 -47l-72 81q-38 -23 -82 -23q-43 0 -77 24l-90 -82l-42 47l90 84q-14 30 -14 64zM183 321q-2 -21 8.5 -36t26.5 -15q19 0 32.5 17t13.5 40
q0 45 -36 45q-16 0 -29.5 -15t-15.5 -36z" />
    <glyph glyph-name="summation" unicode="&#x2211;" horiz-adv-x="543" 
d="M-15 -140l12 114l257 279l-198 283l12 114h484l-12 -114h-329l181 -258l-4 -40l-236 -264h329l-12 -114h-484z" />
    <glyph glyph-name="product" unicode="&#x220f;" horiz-adv-x="671" 
d="M19 114h68l44 422h-68l12 114h599l-12 -114h-69l-44 -422h69l-12 -114h-269l12 114h69l44 422h-199l-44 -422h68l-12 -114h-268z" />
    <glyph glyph-name="lozenge" unicode="&#x25ca;" horiz-adv-x="567" 
d="M254 -11l-228 331l299 340l225 -340zM270 136l159 184l-121 181l-161 -181z" />
    <glyph glyph-name="integral" unicode="&#x222b;" horiz-adv-x="367" 
d="M-39 -140l11 107h41q50 0 67 16.5t23 75.5l46 436q10 96 52 145t160 49h46l-11 -108h-54q-45 0 -63.5 -15t-24.5 -74l-46 -438q-10 -96 -57 -145t-154 -49h-36z" />
    <glyph glyph-name="mu" unicode="&#xb5;" horiz-adv-x="578" 
d="M534 0h-191l7 68q-53 -77 -150 -77q-10 0 -28 2l-21 -206h-127l59 566h-58l11 98h185l-27 -254q-6 -59 10 -83.5t54 -24.5q43 0 69.5 26.5t34.5 70.5l18 167h-71l11 98h198l-38 -353h65z" />
    <glyph glyph-name="pi" unicode="&#x3c0;" horiz-adv-x="585" 
d="M10 98h58l26 255h-62l10 98h540l-10 -98h-67l-26 -255h59l-10 -98h-244l10 98h59l26 255h-158l-26 -255h59l-10 -98h-244z" />
    <glyph glyph-name="Delta" unicode="&#x2206;" horiz-adv-x="523" 
d="M-7 0l315 661l166 -661h-481zM143 98h201l-67 296z" />
    <glyph glyph-name="uni0394" unicode="&#x394;" horiz-adv-x="467" 
d="M-37 0l315 661l166 -661h-481zM113 98h201l-67 296z" />
    <glyph glyph-name="Sigma" unicode="&#x3a3;" horiz-adv-x="542" 
d="M5 0l12 114l190 200l-146 222l12 114h484l-12 -114h-329l130 -197l-5 -40l-169 -185h329l-12 -114h-484z" />
    <glyph glyph-name="Omega" unicode="&#x2126;" horiz-adv-x="676" 
d="M362 543q-97 0 -139.5 -58.5t-42.5 -122.5q0 -56 29 -99t87 -51l-22 -212h-269l11 108h162l3 28q-43 7 -90.5 59.5t-47.5 158.5q0 102 46.5 170t120 102t154.5 34q71 0 137.5 -27.5t109.5 -86t43 -149.5q0 -107 -56.5 -180t-132.5 -81l-3 -28h162l-11 -108h-259l22 212
q68 2 102.5 55t34.5 123q0 153 -151 153z" />
    <glyph glyph-name="acute" unicode="&#xb4;" horiz-adv-x="431" 
d="M463 600l-204 -92l-29 49l174 143z" />
    <glyph glyph-name="grave" unicode="`" horiz-adv-x="431" 
d="M404 508l-204 92l59 100l174 -143z" />
    <glyph glyph-name="circumflex" unicode="&#x2c6;" horiz-adv-x="331" 
d="M292 684l122 -129l-40 -47l-119 69l-123 -70l-32 48l148 129h44z" />
    <glyph glyph-name="dieresis" unicode="&#xa8;" horiz-adv-x="404" 
d="M112 531l14 134h126l-14 -134h-126zM293 531l14 134h127l-14 -134h-127z" />
    <glyph glyph-name="tilde" unicode="&#x2dc;" horiz-adv-x="367" 
d="M139 515l-47 16q1 29 24.5 76.5t72.5 47.5q33 0 59 -19t51 -19q33 0 50 41l52 -11q-5 -43 -25 -86.5t-69 -43.5q-37 0 -63.5 20.5t-55.5 20.5q-33 0 -49 -43z" />
    <glyph glyph-name="macron" unicode="&#xaf;" horiz-adv-x="328" 
d="M107 634h263l-10 -98h-263z" />
    <glyph glyph-name="breve" unicode="&#x2d8;" horiz-adv-x="391" 
d="M299 653h100q-7 -71 -50 -104.5t-104 -33.5q-134 0 -119 138h100q-7 -61 29 -61q20 0 30.5 18.5t13.5 42.5z" />
    <glyph glyph-name="dotaccent" unicode="&#x2d9;" horiz-adv-x="224" 
d="M95 531l14 134h127l-14 -134h-127z" />
    <glyph glyph-name="ring" unicode="&#x2da;" horiz-adv-x="255" 
d="M181 514q-93 0 -93 82q0 44 28.5 73t85.5 29q93 0 93 -81q0 -42 -27.5 -72.5t-86.5 -30.5zM187 574q30 0 30 39q0 25 -22 25q-28 0 -28 -39q0 -25 20 -25z" />
    <glyph glyph-name="cedilla" unicode="&#xb8;" horiz-adv-x="251" 
d="M203 6l-7 -47h8q44 0 61.5 -22.5t17.5 -50.5q0 -53 -44.5 -74t-93.5 -21q-78 0 -110 30l29 70q10 -7 29 -15t46 -8q37 0 37 23q0 10 -6.5 16.5t-28.5 6.5h-36l14 92h84z" />
    <glyph glyph-name="hungarumlaut" unicode="&#x2dd;" horiz-adv-x="421" 
d="M304 662l-164 -154l-44 34l119 191zM459 599l-201 -91l-28 49l174 143z" />
    <glyph glyph-name="ogonek" unicode="&#x2db;" horiz-adv-x="274" 
d="M214 -188q-17 -8 -39.5 -14t-50.5 -6q-45 0 -76 19.5t-31 63.5q0 47 33 83t76 54l69 -4q-44 -24 -54.5 -48t-10.5 -38q0 -24 11 -32t27 -8q26 0 46 12v-82z" />
    <glyph glyph-name="caron" unicode="&#x2c7;" horiz-adv-x="331" 
d="M231 507l-120 127l38 49l119 -70l123 71l30 -51l-146 -126h-44z" />
    <glyph glyph-name="glyph465" horiz-adv-x="269" 
d="M349 716l-223 -28l-13 57l210 88z" />
    <glyph glyph-name="glyph466" horiz-adv-x="357" 
d="M295 833h100q-7 -71 -48.5 -104.5t-103.5 -33.5q-137 0 -122 138h100q-7 -61 30 -61q20 0 30.5 18.5t13.5 42.5z" />
    <glyph glyph-name="glyph467" horiz-adv-x="334" 
d="M224 685l-122 107l32 52l126 -62l128 62l24 -53l-144 -106h-44z" />
    <glyph glyph-name="glyph468" horiz-adv-x="334" 
d="M284 844l122 -107l-33 -52l-125 60l-129 -60l-24 52l145 107h44z" />
    <glyph glyph-name="glyph469" horiz-adv-x="396" 
d="M118 705l14 134h127l-14 -134h-127zM299 705l14 134h127l-14 -134h-127z" />
    <glyph glyph-name="glyph470" horiz-adv-x="180" 
d="M98 705l14 134h127l-14 -134h-127z" />
    <glyph glyph-name="glyph471" horiz-adv-x="409" 
d="M356 821l-180 -134l-38 40l145 179zM496 716l-208 -28l-15 57l197 85z" />
    <glyph glyph-name="glyph472" horiz-adv-x="269" 
d="M336 688l-223 28l26 117l210 -88z" />
    <glyph glyph-name="glyph473" horiz-adv-x="367" 
d="M127 819h302l-10 -98h-302z" />
    <glyph glyph-name="glyph474" horiz-adv-x="367" 
d="M165 698l-47 16q1 28 23.5 69t72.5 41q33 0 58.5 -15.5t50.5 -15.5q14 0 28 8t23 30l52 -11q-4 -44 -24.5 -82t-70.5 -38q-36 0 -61.5 15.5t-59.5 15.5q-32 0 -45 -33z" />
    <glyph glyph-name="commaaccent" horiz-adv-x="199" 
d="M154 -58l-42 -155h-96l19 155h119z" />
    <glyph glyph-name="glyph476" horiz-adv-x="255" 
d="M199 689q-93 0 -93 82q0 44 28.5 73t85.5 29q93 0 93 -81q0 -42 -27.5 -72.5t-86.5 -30.5zM205 749q30 0 30 39q0 25 -22 25q-28 0 -28 -40q0 -24 20 -24z" />
    <glyph glyph-name="glyph477" horiz-adv-x="221" 
d="M266 681l-59 -224h-96l36 224h119z" />
    <glyph glyph-name="dotbelowcomb" unicode="&#x323;" horiz-adv-x="816" 
d="M47 -197l14 134h127l-14 -134h-127z" />
    <glyph glyph-name="downbreve" horiz-adv-x="391" 
d="M224 515h-100q8 71 50 104.5t104 33.5q134 0 119 -138h-100q7 61 -29 61q-20 0 -30.5 -18.5t-13.5 -42.5z" />
    <glyph glyph-name="downbreve.cap" horiz-adv-x="357" 
d="M219 695h-100q7 71 48.5 104.5t103.5 33.5q137 0 122 -138h-100q7 61 -30 61q-20 0 -30.5 -18.5t-13.5 -42.5z" />
    <glyph glyph-name="horumlaut" horiz-adv-x="421" 
d="M415 508l-164 154l89 71l119 -191zM297 508l-201 91l58 98l171 -140z" />
    <glyph glyph-name="horumlaut.cap" horiz-adv-x="409" 
d="M458 687l-180 134l73 85l145 -179zM346 688l-208 28l32 109l191 -80z" />
    <glyph glyph-name="uni0030.zero.c2sc" horiz-adv-x="509" 
d="M23 216q0 68 23 141t78.5 122.5t155.5 49.5q81 0 124.5 -34t60.5 -87.5t17 -111.5q0 -78 -26 -147.5t-83 -113t-150 -43.5q-112 0 -156 64t-44 160zM160 225q0 -59 14 -95t61 -36q45 0 69 32t33.5 79t9.5 91q0 61 -17 96.5t-62 35.5q-56 0 -82 -54.5t-26 -148.5zM303 308
l-9 -89h-92l9 89h92z" />
    <glyph glyph-name="uni0030.c2sc" horiz-adv-x="509" 
d="M23 216q0 68 23 141t78.5 122.5t155.5 49.5q81 0 124.5 -34t60.5 -87.5t17 -111.5q0 -78 -26 -147.5t-83 -113t-150 -43.5q-112 0 -156 64t-44 160zM160 225q0 -59 14 -95t61 -36q45 0 69 32t33.5 79t9.5 91q0 61 -17 96.5t-62 35.5q-56 0 -82 -54.5t-26 -148.5z" />
    <glyph glyph-name="uni0031.c2sc" horiz-adv-x="356" 
d="M11 98h101l34 325h-101l11 98h228l-45 -423h90l-10 -98h-318z" />
    <glyph glyph-name="uni0032.c2sc" horiz-adv-x="476" 
d="M141 347l-99 9l32 138q38 15 90 25t98 10q96 0 136 -40t40 -89q0 -62 -47.5 -120t-112 -105t-116.5 -77h160l11 76l109 -10l-24 -164h-412l-1 91q63 47 130.5 99t114.5 101.5t47 90.5q0 49 -60 49q-16 0 -39 -4.5t-37 -11.5z" />
    <glyph glyph-name="uni0033.c2sc" horiz-adv-x="456" 
d="M149 347l-99 9l32 138q38 15 88 25.5t90 10.5q59 0 111.5 -28.5t52.5 -93.5q0 -38 -23.5 -72t-77.5 -56l-1 -3q94 -20 94 -117q0 -64 -34 -101t-84 -52t-98 -15q-91 0 -137.5 42.5t-42.5 109.5l114 28q-3 -29 8.5 -56t57.5 -27q47 0 63.5 26.5t16.5 51.5q0 37 -28 51
t-81 16l8 75q35 2 70 13t35 59q0 51 -56 51q-34 0 -59 -14z" />
    <glyph glyph-name="uni0034.c2sc" horiz-adv-x="481" 
d="M224 0l13 131h-231l-3 96l184 294h218l-31 -294h79l-18 -96h-71l-14 -131h-126zM231 423l-111 -196h127l21 196h-37z" />
    <glyph glyph-name="uni0035.c2sc" horiz-adv-x="444" 
d="M412 171q0 -93 -66.5 -136t-143.5 -43q-72 0 -135.5 37t-62.5 115l114 28q-4 -32 12 -57.5t60 -25.5q29 0 57 16.5t28 56.5q0 41 -32.5 58t-78.5 17q-15 0 -36 -1.5t-40 -2.5l-36 35l27 253h332l-5 -158l-99 -8l-6 68h-117l-10 -93q8 1 15 1h14q81 0 145 -35t64 -125z
" />
    <glyph glyph-name="uni0036.c2sc" horiz-adv-x="456" 
d="M418 194q0 -89 -58 -145.5t-151 -56.5q-95 0 -140.5 59.5t-45.5 161.5q0 138 63.5 227.5t177.5 89.5q47 0 94 -17.5t72 -52.5l-59 -69q-37 42 -95 42q-61 0 -86.5 -41.5t-30.5 -121.5q15 28 45 48.5t80 20.5q76 0 105 -45.5t29 -99.5zM287 181q0 30 -11.5 47.5
t-43.5 17.5q-66 0 -74 -69q2 -47 13.5 -65.5t42.5 -18.5q39 0 56 25t17 63z" />
    <glyph glyph-name="uni0037.c2sc" horiz-adv-x="415" 
d="M43 521h381l10 -53l-234 -468h-125l217 424h-149l-9 -88h-110z" />
    <glyph glyph-name="uni0038.c2sc" horiz-adv-x="459" 
d="M420 152q0 -76 -65 -118t-162 -42q-80 0 -130.5 31t-50.5 97q0 57 35 86t82 48q-32 20 -55.5 49t-23.5 73q0 68 57.5 110.5t149.5 42.5q78 0 124 -32t46 -90q0 -48 -29.5 -74.5t-70.5 -44.5q37 -21 65 -52.5t28 -83.5zM188 392q0 -24 23.5 -40.5t56.5 -32.5q31 26 31 66
q0 32 -16.5 42t-35.5 10q-29 0 -44 -13.5t-15 -31.5zM142 149q0 -64 69 -64q37 0 54.5 17t17.5 37q0 29 -30 48t-69 38q-19 -13 -30.5 -31.5t-11.5 -44.5z" />
    <glyph glyph-name="uni0039.c2sc" horiz-adv-x="456" 
d="M35 328q0 89 58 145.5t151 56.5q94 0 140 -59.5t46 -161.5q0 -138 -63.5 -227.5t-177.5 -89.5q-47 0 -94 17.5t-72 52.5l59 69q37 -42 95 -42q61 0 86.5 41.5t30.5 121.5q-15 -28 -45 -48.5t-80 -20.5q-76 0 -105 45.5t-29 99.5zM166 341q0 -30 12 -47.5t43 -17.5
q66 0 74 69q-1 47 -13 65.5t-43 18.5q-39 0 -56 -25t-17 -63z" />
    <glyph glyph-name="uni0030.zero.case" horiz-adv-x="585" 
d="M31 266q0 84 26 175.5t91 155t183 63.5q93 0 143.5 -41.5t69.5 -107t19 -137.5q0 -97 -29.5 -185t-96 -143.5t-176.5 -55.5q-131 0 -180.5 80t-49.5 196zM173 280q0 -76 19.5 -124t81.5 -48q64 0 95 45t41.5 106.5t10.5 111.5q0 78 -21 124.5t-82 46.5
q-74 0 -109.5 -70.5t-35.5 -191.5zM353 385l-12 -111h-96l12 111h96z" />
    <glyph glyph-name="uni0030.lnum" horiz-adv-x="585" 
d="M31 266q0 84 26 175.5t91 155t183 63.5q93 0 143.5 -41.5t69.5 -107t19 -137.5q0 -97 -29.5 -185t-96 -143.5t-176.5 -55.5q-131 0 -180.5 80t-49.5 196zM173 280q0 -76 19.5 -124t81.5 -48q64 0 95 45t41.5 106.5t10.5 111.5q0 78 -21 124.5t-82 46.5
q-74 0 -109.5 -70.5t-35.5 -191.5z" />
    <glyph glyph-name="uni0031.lnum" horiz-adv-x="403" 
d="M14 114h121l44 422h-121l12 114h252l-56 -536h111l-12 -114h-363z" />
    <glyph glyph-name="uni0032.lnum" horiz-adv-x="540" 
d="M166 452l-103 11l37 157q40 16 95 28t110 12q78 0 139.5 -33t61.5 -118q0 -82 -57 -154t-135.5 -132.5t-142.5 -108.5h212l12 93l113 -10l-26 -197h-475l-1 106q76 60 158 125.5t138.5 129t56.5 117.5q0 68 -85 68q-17 0 -42.5 -4t-41.5 -12z" />
    <glyph glyph-name="uni0033.lnum" horiz-adv-x="520" 
d="M166 458l-100 11l37 153q59 24 113.5 31.5t87.5 7.5q82 0 135.5 -35t53.5 -112q0 -50 -28 -93t-98 -72l-1 -4q117 -26 117 -147q0 -104 -71.5 -156.5t-177.5 -52.5t-163 48.5t-49 130.5l110 33q-4 -35 20.5 -66.5t82.5 -31.5q60 0 83.5 34.5t23.5 69.5q0 47 -35 66
t-105 22l9 88q68 0 97 21.5t35 45.5t6 30q0 67 -77 67q-17 0 -42 -3.5t-41 -11.5z" />
    <glyph glyph-name="uni0034.lnum" horiz-adv-x="550" 
d="M406 0h-131l18 171h-282l-1 111l231 369h233l-39 -369h98l-22 -111h-87zM304 282l27 255h-46l-153 -255h172z" />
    <glyph glyph-name="uni0035.lnum" horiz-adv-x="507" 
d="M479 216q0 -119 -74.5 -173t-180.5 -54q-103 0 -159.5 46.5t-48.5 132.5l110 33q-4 -35 19 -66.5t81 -31.5q62 0 86 34.5t24 72.5q0 57 -42 74.5t-97 17.5q-24 0 -48 -2t-46 -3l-38 41l33 313h392l-1 -183l-112 -10l-10 79h-160l-13 -127q9 1 18.5 1h18.5
q103 0 175.5 -38.5t72.5 -156.5z" />
    <glyph glyph-name="uni0036.lnum" horiz-adv-x="527" 
d="M492 238q0 -105 -66 -176.5t-179 -71.5q-110 0 -162.5 73t-52.5 205q0 88 26.5 179t90.5 152t176 61q55 0 107 -20t80 -70l-83 -77q-34 53 -112 53q-65 0 -98 -50.5t-44 -156.5q21 31 60 56t97 25q88 0 124 -56t36 -126zM356 224q0 41 -17.5 64t-61.5 23
q-47 0 -73.5 -25.5t-33.5 -64.5q-1 -58 17 -85.5t66 -27.5q55 0 79 33t24 83z" />
    <glyph glyph-name="uni0037.lnum" horiz-adv-x="477" 
d="M58 651h441l10 -63l-287 -588h-130l269 538h-200l-11 -109h-115z" />
    <glyph glyph-name="uni0038.lnum" horiz-adv-x="528" 
d="M227 -10q-95 0 -153 39.5t-58 119.5q0 72 44 109t102 61q-40 25 -69 61t-29 91q0 83 67.5 136t173.5 53q89 0 143.5 -40t54.5 -111q0 -61 -37.5 -95t-89.5 -57q46 -26 80.5 -65.5t34.5 -103.5q0 -93 -75.5 -145.5t-188.5 -52.5zM207 489q0 -34 33 -56t77 -44
q23 17 37.5 39.5t14.5 54.5q0 42 -22.5 55.5t-51.5 13.5q-88 0 -88 -63zM248 98q48 0 74.5 22t26.5 53q0 40 -40.5 64.5t-90.5 50.5q-28 -18 -46.5 -42.5t-18.5 -61.5q0 -86 95 -86z" />
    <glyph glyph-name="uni0039.lnum" horiz-adv-x="528" 
d="M46 412q0 105 66 176.5t179 71.5q110 0 162.5 -73t52.5 -205q0 -88 -26.5 -179t-90.5 -152t-176 -61q-55 0 -107 20t-80 70l83 77q34 -53 112 -53q65 0 98 50.5t44 156.5q-21 -31 -60 -56t-97 -25q-88 0 -124 56t-36 126zM182 426q0 -41 17.5 -64t61.5 -23
q47 0 73.5 25.5t33.5 64.5q1 58 -17 85.5t-66 27.5q-55 0 -79 -33t-24 -83z" />
    <glyph glyph-name="uni0030.lnum.tnum.zero" horiz-adv-x="600" 
d="M38 266q0 84 26 175.5t91 155t183 63.5q94 0 144 -41.5t69 -107t19 -137.5q0 -97 -29.5 -185t-96 -143.5t-176.5 -55.5q-131 0 -180.5 80t-49.5 196zM180 280q0 -76 19.5 -124t81.5 -48q63 0 94.5 45t42 106.5t10.5 111.5q0 78 -21 124.5t-82 46.5q-74 0 -109.5 -70.5
t-35.5 -191.5zM359 385l-12 -111h-96l12 111h96z" />
    <glyph glyph-name="uni0030.lnum.tnum" horiz-adv-x="600" 
d="M38 266q0 84 26 175.5t91 155t183 63.5q94 0 144 -41.5t69 -107t19 -137.5q0 -97 -29.5 -185t-96 -143.5t-176.5 -55.5q-131 0 -180.5 80t-49.5 196zM180 280q0 -76 19.5 -124t81.5 -48q63 0 94.5 45t42 106.5t10.5 111.5q0 78 -21 124.5t-82 46.5q-74 0 -109.5 -70.5
t-35.5 -191.5z" />
    <glyph glyph-name="uni0031.lnum.tnum" horiz-adv-x="600" 
d="M112 114h121l44 422h-121l12 114h252l-56 -536h111l-12 -114h-363z" />
    <glyph glyph-name="uni0032.lnum.tnum" horiz-adv-x="600" 
d="M197 452l-103 11l37 157q41 16 95 28t110 12q78 0 139.5 -33t61.5 -118q0 -82 -57 -154t-135.5 -132.5t-142.5 -108.5h212l12 93l113 -10l-26 -197h-475l-1 106q77 60 158.5 125.5t138 129t56.5 117.5q0 68 -85 68q-17 0 -42.5 -4t-41.5 -12z" />
    <glyph glyph-name="uni0033.lnum.tnum" horiz-adv-x="600" 
d="M206 458l-100 11l37 153q59 24 113.5 31.5t87.5 7.5q82 0 135.5 -35t53.5 -112q0 -50 -28 -93t-98 -72l-1 -4q117 -26 117 -147q0 -104 -71.5 -156.5t-177.5 -52.5t-163 48.5t-49 130.5l110 33q-4 -35 20.5 -66.5t82.5 -31.5q60 0 83.5 34.5t23.5 69.5q0 47 -35 66
t-105 22l9 88q68 0 97 21.5t35 45.5t6 30q0 67 -77 67q-17 0 -42 -3.5t-41 -11.5z" />
    <glyph glyph-name="uni0034.lnum.tnum" horiz-adv-x="600" 
d="M431 0h-131l18 171h-282l-1 111l231 369h233l-39 -369h98l-22 -111h-87zM329 282l27 255h-46l-153 -255h172z" />
    <glyph glyph-name="uni0035.lnum.tnum" horiz-adv-x="600" 
d="M525 216q0 -119 -74.5 -173t-180.5 -54q-103 0 -159.5 46.5t-48.5 132.5l110 33q-4 -35 19 -66.5t81 -31.5q62 0 86 34.5t24 72.5q0 57 -42 74.5t-97 17.5q-24 0 -48 -2t-46 -3l-38 41l33 313h392l-1 -183l-112 -10l-10 79h-160l-13 -127q9 1 18.5 1h18.5
q103 0 175.5 -38.5t72.5 -156.5z" />
    <glyph glyph-name="uni0036.lnum.tnum" horiz-adv-x="600" 
d="M528 238q0 -105 -66 -176.5t-179 -71.5q-110 0 -162.5 73t-52.5 205q0 88 26.5 179t90.5 152t176 61q55 0 107 -20t80 -70l-83 -77q-34 53 -112 53q-65 0 -98 -50.5t-44 -156.5q21 31 60 56t97 25q88 0 124 -56t36 -126zM392 224q0 41 -17.5 64t-61.5 23
q-47 0 -73.5 -25.5t-33.5 -64.5q-1 -58 17 -85.5t66 -27.5q55 0 79 33t24 83z" />
    <glyph glyph-name="uni0037.lnum.tnum" horiz-adv-x="600" 
d="M119 651h441l10 -63l-287 -588h-130l269 538h-200l-11 -109h-115z" />
    <glyph glyph-name="uni0038.lnum.tnum" horiz-adv-x="600" 
d="M263 -10q-95 0 -153 39.5t-58 119.5q0 72 44 109t102 61q-40 25 -69 61t-29 91q0 83 67.5 136t173.5 53q89 0 143.5 -40t54.5 -111q0 -61 -37.5 -95t-89.5 -57q46 -26 80.5 -65.5t34.5 -103.5q0 -93 -75.5 -145.5t-188.5 -52.5zM243 489q0 -34 33 -56t77 -44
q23 17 37.5 39.5t14.5 54.5q0 42 -22.5 55.5t-51.5 13.5q-88 0 -88 -63zM284 98q48 0 74.5 22t26.5 53q0 40 -40.5 64.5t-90.5 50.5q-28 -18 -46.5 -42.5t-18.5 -61.5q0 -86 95 -86z" />
    <glyph glyph-name="uni0039.lnum.tnum" horiz-adv-x="600" 
d="M82 412q0 105 66 176.5t179 71.5q110 0 162.5 -73t52.5 -205q0 -88 -26.5 -179t-90.5 -152t-176 -61q-55 0 -107 20t-80 70l83 77q34 -53 112 -53q65 0 98 50.5t44 156.5q-21 -31 -60 -56t-97 -25q-88 0 -124 56t-36 126zM218 426q0 -41 17.5 -64t61.5 -23
q47 0 73.5 25.5t33.5 64.5q1 58 -17 85.5t-66 27.5q-55 0 -79 -33t-24 -83z" />
    <glyph glyph-name="uni0030.tnum.zero" horiz-adv-x="600" 
d="M43 222q0 129 74 218t210 89q113 0 169 -65.5t56 -180.5q0 -145 -79.5 -219t-201.5 -74q-101 0 -164.5 54.5t-63.5 177.5zM186 236q0 -66 19.5 -97t75.5 -31q53 0 92 35t39 142q0 68 -22 97t-77 29q-61 0 -94 -38t-33 -137zM354 319l-12 -111h-96l12 111h96z" />
    <glyph glyph-name="uni0030.tnum" horiz-adv-x="600" 
d="M43 222q0 129 74 218t210 89q113 0 169 -65.5t56 -180.5q0 -145 -79.5 -219t-201.5 -74q-101 0 -164.5 54.5t-63.5 177.5zM186 236q0 -66 19.5 -97t75.5 -31q53 0 92 35t39 142q0 68 -22 97t-77 29q-61 0 -94 -38t-33 -137z" />
    <glyph glyph-name="uni0031.tnum" horiz-adv-x="600" 
d="M128 114h108l31 293h-108l12 114h239l-12 -114l-31 -293h98l-12 -114h-337z" />
    <glyph glyph-name="uni0032.tnum" horiz-adv-x="600" 
d="M191 328l-100 11l38 153q59 24 112.5 31.5t88.5 7.5q106 0 147.5 -41.5t41.5 -97.5q0 -70 -48 -119.5t-118.5 -86.5t-140.5 -72h194l11 73l103 -10l-22 -177h-445l-1 106q85 51 158.5 93.5t119 82.5t45.5 81q0 30 -23.5 42t-56.5 12q-17 0 -41 -3.5t-40 -11.5z" />
    <glyph glyph-name="uni0033.tnum" horiz-adv-x="600" 
d="M193 328l-100 11l37 153q59 24 113.5 31.5t87.5 7.5q82 0 135.5 -35t53.5 -112q0 -50 -28 -93t-98 -72l-1 -4q117 -26 117 -147q0 -104 -71 -156.5t-178 -52.5q-106 0 -162.5 48.5t-49.5 130.5l110 33q-4 -35 20.5 -66.5t82.5 -31.5q60 0 83.5 34.5t23.5 69.5
q0 47 -35 66t-105 22l9 88q68 0 97 21.5t35 45.5t6 30q0 67 -77 67q-17 0 -42 -3.5t-41 -11.5z" />
    <glyph glyph-name="uni0034.tnum" horiz-adv-x="600" 
d="M421 -130h-131l18 171h-282l-1 111l231 369h233l-39 -369h98l-22 -111h-87zM319 152l27 255h-46l-153 -255h172z" />
    <glyph glyph-name="uni0035.tnum" horiz-adv-x="600" 
d="M511 86q0 -119 -74.5 -173t-180.5 -54q-103 0 -159.5 46.5t-48.5 132.5l110 33q-4 -35 19 -66.5t81 -31.5q62 0 86 34.5t24 72.5q0 57 -42 74.5t-97 17.5q-24 0 -48 -2t-46 -3l-38 41l33 313h392l-1 -183l-112 -10l-10 79h-160l-13 -127q9 1 18.5 1h18.5
q103 0 175.5 -38.5t72.5 -156.5z" />
    <glyph glyph-name="uni0036.tnum" horiz-adv-x="600" 
d="M528 238q0 -105 -66 -176.5t-179 -71.5q-110 0 -162.5 73t-52.5 205q0 88 26.5 179t90.5 152t176 61q55 0 107 -20t80 -70l-83 -77q-34 53 -112 53q-65 0 -98 -50.5t-44 -156.5q21 31 60 56t97 25q88 0 124 -56t36 -126zM392 224q0 41 -17.5 64t-61.5 23
q-47 0 -73.5 -25.5t-33.5 -64.5q-1 -58 17 -85.5t66 -27.5q55 0 79 33t24 83z" />
    <glyph glyph-name="uni0037.tnum" horiz-adv-x="600" 
d="M106 521h441l10 -63l-287 -588h-130l269 538h-200l-11 -109h-115z" />
    <glyph glyph-name="uni0038.tnum" horiz-adv-x="600" 
d="M263 -10q-95 0 -153 39.5t-58 119.5q0 72 44 109t102 61q-40 25 -69 61t-29 91q0 83 67.5 136t173.5 53q89 0 143.5 -40t54.5 -111q0 -61 -37.5 -95t-89.5 -57q46 -26 80.5 -65.5t34.5 -103.5q0 -93 -75.5 -145.5t-188.5 -52.5zM243 489q0 -34 33 -56t77 -44
q23 17 37.5 39.5t14.5 54.5q0 42 -22.5 55.5t-51.5 13.5q-88 0 -88 -63zM284 98q48 0 74.5 22t26.5 53q0 40 -40.5 64.5t-90.5 50.5q-28 -18 -46.5 -42.5t-18.5 -61.5q0 -86 95 -86z" />
    <glyph glyph-name="uni0039.tnum" horiz-adv-x="600" 
d="M68 282q0 105 66 176.5t179 71.5q110 0 162.5 -73t52.5 -205q0 -88 -26.5 -179t-90.5 -152t-176 -61q-55 0 -107 20t-80 70l83 77q34 -53 112 -53q65 0 98 50.5t44 156.5q-21 -31 -60 -56t-97 -25q-88 0 -124 56t-36 126zM204 296q0 -41 17.5 -64t61.5 -23
q47 0 73.5 25.5t33.5 64.5q1 58 -17 85.5t-66 27.5q-55 0 -79 -33t-24 -83z" />
    <glyph glyph-name="uni0030.zero.numr" horiz-adv-x="383" 
d="M44 442q0 48 16.5 98.5t57 85t112.5 34.5q89 0 119.5 -52.5t30.5 -112.5q0 -83 -45.5 -147t-144.5 -64q-82 0 -114 46t-32 112zM150 449q0 -37 9.5 -62t39.5 -25q41 0 57.5 43t16.5 92q0 85 -50 85q-73 0 -73 -133z" />
    <glyph glyph-name="uni0031.numr" horiz-adv-x="274" 
d="M37 362h71l22 214h-71l8 75h170l-30 -289h64l-8 -75h-234z" />
    <glyph glyph-name="uni0032.numr" horiz-adv-x="360" 
d="M134 529l-76 6l25 99q62 26 135 26t102 -29t29 -61q0 -43 -36 -82.5t-82 -71t-76 -51.5h104l6 49l84 -10l-15 -114h-300l-2 70q44 32 92.5 66.5t81.5 67t33 58.5q0 33 -45 33q-25 0 -46 -11z" />
    <glyph glyph-name="uni0033.numr" horiz-adv-x="343" 
d="M137 533l-75 6l22 95q28 12 65 18.5t67 6.5q60 0 90.5 -24.5t30.5 -61.5q0 -57 -69 -88v-2q63 -17 63 -83q0 -53 -42.5 -85t-112.5 -32q-54 0 -93 22.5t-44 76.5l75 25q5 -22 18 -35.5t40 -13.5q53 0 53 48q0 28 -21 35.5t-53 9.5l6 56q28 1 49.5 8.5t21.5 37.5
q0 31 -38 31q-21 0 -40 -10z" />
    <glyph glyph-name="uni0034.numr" horiz-adv-x="362" 
d="M187 287l9 90h-161l-2 73l124 201h166l-22 -205h59l-15 -69h-51l-9 -90h-98zM193 576l-78 -130h88l14 130h-24z" />
    <glyph glyph-name="uni0035.numr" horiz-adv-x="334" 
d="M328 413q0 -61 -45 -97t-117 -36q-52 0 -92 22.5t-44 76.5l75 25q13 -49 63 -49q54 0 54 46q0 28 -21 37.5t-51 9.5q-14 0 -29 -1t-29 -2l-27 26l19 180h235l-2 -108l-83 -8l-2 41h-65l-6 -57h18q59 0 104 -21.5t45 -84.5z" />
    <glyph glyph-name="uni0036.numr" horiz-adv-x="341" 
d="M224 585q-32 0 -50.5 -22t-23.5 -79q10 18 31 31.5t55 13.5q55 0 75 -33t20 -69q0 -64 -44.5 -103.5t-109.5 -39.5q-67 0 -100 42.5t-33 116.5q0 78 40.5 147.5t135.5 69.5q80 0 119 -47l-59 -57q-21 29 -56 29zM194 458q-39 0 -46 -39q1 -29 7.5 -43t28.5 -14
q46 0 46 55q0 41 -36 41z" />
    <glyph glyph-name="uni0037.numr" horiz-adv-x="314" 
d="M58 651h277l7 -40l-164 -325h-97l150 291h-96l-6 -61h-85z" />
    <glyph glyph-name="uni0038.numr" horiz-adv-x="344" 
d="M168 284q-58 0 -94.5 22t-36.5 66q0 40 24.5 60.5t55.5 33.5q-23 14 -38.5 33.5t-15.5 49.5q0 50 41.5 80.5t108.5 30.5q57 0 90.5 -23t33.5 -61q0 -34 -20.5 -52.5t-48.5 -30.5q26 -15 45 -37t19 -56q0 -58 -47 -87t-117 -29zM171 563q0 -14 14.5 -24.5t35.5 -20.5
q15 17 15 41q0 19 -10.5 24.5t-19.5 5.5q-21 0 -28 -8.5t-7 -17.5zM180 355q25 0 34.5 10.5t9.5 21.5q0 19 -19 31t-44 25q-23 -20 -23 -49q0 -39 42 -39z" />
    <glyph glyph-name="uni0039.numr" horiz-adv-x="343" 
d="M160 359q32 0 50.5 22t23.5 78q-11 -18 -31.5 -31t-54.5 -13q-55 0 -75.5 34t-20.5 70q0 64 43 102.5t108 38.5q67 0 102 -42.5t35 -116.5q0 -78 -40.5 -147.5t-135.5 -69.5q-80 0 -119 47l59 57q21 -29 56 -29zM190 486q37 0 46 38q-1 58 -36 58q-46 0 -46 -55
q0 -41 36 -41z" />
    <glyph glyph-name="trademark" unicode="&#x2122;" horiz-adv-x="1092" 
d="M1050 570h-52v-263h44v-80h-182v80h34v141h-3l-103 -184h-42l-114 193h-2v-150h37v-80h-178v80h44v263h-52v80h138l150 -250h3l138 250h140v-80zM470 497l-80 -7l-13 80h-66v-263h69v-80h-237v80h64v263h-68l-14 -80l-79 7l14 153h396z" />
    <glyph glyph-name="uni2120" unicode="&#x2120;" horiz-adv-x="1003" 
d="M215 224q-43 0 -93.5 12.5t-76.5 35.5l14 111l73 -7l-3 -51q37 -18 74 -18q67 0 67 47q0 28 -22.5 39.5t-60.5 19.5q-27 6 -60 15t-56.5 32t-23.5 70q0 72 52.5 100.5t110.5 28.5q44 0 85 -13.5t62 -36.5l5 -96l-74 -7l-6 52q-18 12 -35 16t-34 4q-23 0 -38.5 -7.5
t-15.5 -29.5q0 -23 18 -31t49 -15t67.5 -19t62.5 -38t26 -78q0 -70 -50 -103t-117 -33zM403 307h44v263h-52v80h138l150 -250h3l138 250h140v-80h-52v-263h44v-80h-182v80h34v141h-3l-103 -184h-42l-114 193h-2v-150h37v-80h-178v80z" />
    <glyph glyph-name="registered" unicode="&#xae;" horiz-adv-x="561" 
d="M280 159q-104 0 -177 72.5t-73 177.5q0 104 73 177.5t178 73.5t177.5 -73.5t72.5 -177.5t-73.5 -177t-177.5 -73zM280 224q84 0 132.5 55t48.5 130t-47.5 130.5t-132.5 55.5t-133 -55.5t-48 -130.5q0 -76 48 -130.5t132 -54.5zM167 334h27v160h-27v48h122q104 0 104 -78
q0 -49 -49 -69l35 -61h29v-48h-73l-51 96h-28v-48h26v-48h-115v48zM275 427q30 0 40.5 9t10.5 26q0 32 -49 32h-21v-67h19z" />
    <glyph glyph-name="copyright" unicode="&#xa9;" horiz-adv-x="584" 
d="M584 285q0 -81 -41 -147t-107.5 -105.5t-142.5 -39.5q-103 0 -170.5 70t-67.5 173q0 80 40.5 146.5t107.5 106.5t144 40q105 0 171 -71t66 -173zM515 282q0 74 -44.5 127.5t-129.5 53.5q-97 0 -157 -67.5t-60 -156.5q0 -75 45 -128t129 -53q94 0 155.5 66t61.5 158z
M418 156q-18 -16 -52 -27t-68 -11q-50 0 -87 29t-37 96q0 70 43.5 118t118.5 48q70 0 103 -33v-73l-51 -5l-3 41q-19 15 -55 15q-38 0 -60.5 -27t-22.5 -75q0 -44 18.5 -61t46.5 -17q34 0 57 14l12 46l50 -5z" />
    <glyph glyph-name="copyright.aalt" horiz-adv-x="752" 
d="M739 356q0 -99 -51 -181.5t-133.5 -131.5t-177.5 -49q-129 0 -212.5 88.5t-83.5 215.5q0 99 51 181.5t133.5 131.5t177.5 49q129 0 212.5 -88.5t83.5 -215.5zM669 349q0 104 -64.5 175t-170.5 71q-81 0 -145 -41t-101 -107.5t-37 -142.5q0 -101 65 -173t169 -72
q73 0 138 37.5t105.5 103t40.5 149.5zM537 186q-21 -22 -65 -36.5t-89 -14.5q-82 0 -127.5 48t-45.5 125q0 90 60.5 154t158.5 64q49 0 82.5 -15.5t51.5 -33.5v-91l-69 -6l-4 47q-30 25 -70 25q-50 0 -81 -36.5t-31 -102.5q0 -61 26 -82t66 -21q24 0 41 5t31 13l15 52l67 -7
z" />
    <glyph glyph-name="uni2117" unicode="&#x2117;" horiz-adv-x="584" 
d="M293 -7q-103 0 -170.5 70t-67.5 173q0 80 40.5 146.5t107.5 106.5t144 40q105 0 171 -71t66 -173q0 -81 -41 -147t-107.5 -105.5t-142.5 -39.5zM298 58q94 0 155.5 67t61.5 158q0 73 -44.5 126.5t-129.5 53.5q-97 0 -157 -67.5t-60 -155.5q0 -76 45.5 -129t128.5 -53z
M203 172h31l19 183h-30l5 55h139q107 0 107 -89q0 -54 -38.5 -81t-85.5 -27h-42l-4 -41h43l-5 -55h-144zM342 268q38 0 46.5 15t8.5 32q0 19 -8 29.5t-35 10.5h-31l-9 -87h28z" />
    <glyph glyph-name="uni2117.pnum_lnum" horiz-adv-x="752" 
d="M377 -6q-129 0 -212.5 88.5t-83.5 215.5q0 99 51 181.5t133.5 131.5t177.5 49q129 0 212.5 -88.5t83.5 -215.5q0 -99 -51 -181.5t-133.5 -131.5t-177.5 -49zM384 59q73 0 138 37.5t106 102.5t41 149q0 102 -63.5 174.5t-172.5 72.5q-81 0 -145 -41t-101 -107t-37 -142
q0 -101 65 -173.5t169 -72.5zM253 198h40l26 243h-40l8 74h186q141 0 141 -118q0 -72 -51.5 -108.5t-114.5 -36.5h-55l-6 -54h58l-8 -75h-192zM439 325q49 0 61 20.5t12 43.5q0 22 -10 37t-49 15h-40l-12 -116h38z" />
    <glyph glyph-name="uni267E" unicode="&#x267e;" horiz-adv-x="584" 
d="M293 -7q-103 0 -170.5 70t-67.5 173q0 80 40.5 146.5t107.5 106.5t144 40q105 0 171 -71t66 -173q0 -81 -41 -147t-107.5 -105.5t-142.5 -39.5zM298 58q94 0 155.5 67t61.5 158q0 73 -44.5 126.5t-129.5 53.5q-97 0 -157 -67.5t-60 -155.5q0 -76 45.5 -129t128.5 -53z
M385 158q-32 0 -47 20t-24 46q-14 -26 -32 -46t-50 -20q-38 0 -56.5 28t-18.5 66q0 50 28.5 85.5t69.5 35.5q31 0 45 -20.5t22 -49.5q16 27 36 48.5t52 21.5q35 0 53 -26.5t18 -66.5q0 -50 -26.5 -86t-69.5 -36zM394 315q-22 0 -35.5 -15.5t-24.5 -37.5q5 -17 15 -32t32 -15
q46 0 46 58q0 42 -33 42zM243 215q19 0 33 14.5t25 34.5q-5 19 -15.5 35t-30.5 16q-23 0 -34 -18.5t-11 -40.5q0 -41 33 -41z" />
    <glyph glyph-name="uni267E.pnum_lnum" horiz-adv-x="752" 
d="M377 -6q-129 0 -212.5 88.5t-83.5 215.5q0 99 51 181.5t133.5 131.5t177.5 49q129 0 212.5 -88.5t83.5 -215.5q0 -99 -51 -181.5t-133.5 -131.5t-177.5 -49zM384 59q73 0 138 37.5t106 102.5t41 149q0 102 -63.5 174.5t-172.5 72.5q-81 0 -145 -41t-101 -107t-37 -142
q0 -101 65 -173.5t169 -72.5zM501 215q-42 0 -61.5 21t-32.5 49q-17 -29 -41 -49.5t-63 -20.5q-48 0 -73 30t-25 72q0 52 35.5 89.5t88.5 37.5q41 0 59 -23t28 -52q20 29 45 52t67 23q46 0 69 -29t23 -72q0 -53 -32 -90.5t-87 -37.5zM508 382q-28 0 -45 -16.5t-31 -39.5
q8 -21 21.5 -35.5t39.5 -14.5q58 0 58 61q0 19 -9 32t-34 13zM317 276q24 0 41.5 15t32.5 37q-10 22 -23 38t-38 16q-29 0 -43 -19t-14 -42q0 -45 44 -45z" />
    <glyph glyph-name="uni24CA" unicode="&#x24ca;" horiz-adv-x="584" 
d="M293 -7q-103 0 -170.5 70t-67.5 173q0 80 40.5 146.5t107.5 106.5t144 40q105 0 171 -71t66 -173q0 -81 -41 -147t-107.5 -105.5t-142.5 -39.5zM298 58q94 0 155.5 67t61.5 158q0 73 -44.5 126.5t-129.5 53.5q-97 0 -157 -67.5t-60 -155.5q0 -76 45.5 -129t128.5 -53z
M362 390h119l-5 -53h-25l-11 -111q-4 -45 -36.5 -83t-100.5 -38q-65 0 -89 35.5t-20 80.5l12 116h-22l5 53h121l-5 -53h-30l-12 -114q-3 -26 7 -44.5t42 -18.5q58 0 65 66l11 111h-31z" />
    <glyph glyph-name="uni24CA.pnum_lnum" horiz-adv-x="752" 
d="M377 -6q-129 0 -212.5 88.5t-83.5 215.5q0 99 51 181.5t133.5 131.5t177.5 49q129 0 212.5 -88.5t83.5 -215.5q0 -99 -51 -181.5t-133.5 -131.5t-177.5 -49zM384 59q73 0 138 37.5t106 102.5t41 149q0 102 -63.5 174.5t-172.5 72.5q-81 0 -145 -41t-101 -107t-37 -142
q0 -101 65 -173.5t169 -72.5zM463 490h156l-7 -70h-33l-15 -147q-7 -63 -49.5 -111.5t-130.5 -48.5t-118 47.5t-24 106.5l16 153h-33l7 70h162l-7 -70h-41l-15 -151q-4 -35 9.5 -59t54.5 -24t61 24.5t24 62.5l15 147h-39z" />
    <glyph glyph-name="Euro" unicode="&#x20ac;" horiz-adv-x="580" 
d="M29 277l7 75h61q29 77 94 127t164 50q65 0 112 -20t69 -43l1 -123l-107 -8l-4 70q-15 14 -33 18.5t-36 4.5q-90 0 -125 -76h132l-7 -75h-144q-1 -10 -1.5 -19.5t-0.5 -19.5v-6h116l-8 -75h-97q23 -64 99 -64q19 0 40 4.5t35 16.5l20 77l105 -8l-23 -125
q-30 -28 -86.5 -47t-115.5 -19q-88 0 -142 44t-71 121h-67l8 75h52q0 22 3 45h-50z" />
    <glyph glyph-name="Euro.aalt" horiz-adv-x="667" 
d="M35 349l9 88h72q29 86 102 154.5t211 68.5q82 0 131.5 -24.5t77.5 -53.5l-1 -151l-108 -10l-4 86q-47 35 -114 35q-61 0 -99 -28t-57 -77h178l-9 -88h-190q-3 -30 -3 -62h157l-9 -88h-139q27 -91 134 -91q36 0 64 8t48 19l23 97l106 -10l-28 -153q-35 -35 -100.5 -57
t-133.5 -22q-105 0 -171 56t-85 153h-78l9 88h62q0 25 5 62h-60z" />
    <glyph glyph-name="dollar" unicode="$" horiz-adv-x="483" 
d="M443 172q0 -79 -55.5 -125.5t-143.5 -53.5l-6 -58h-63l6 58q-110 10 -168 54l33 131l105 -8l-10 -59q21 -13 51 -16l13 130q-65 13 -109.5 39.5t-44.5 93.5q0 88 59.5 125.5t126.5 43.5l7 66h63l-7 -65q46 -4 85 -17.5t62 -31.5v-128l-107 -8l-5 69q-20 10 -46 14
l-11 -103q32 -7 71 -19.5t66.5 -43t27.5 -88.5zM189 381q0 -26 28 -41l9 83q-37 -12 -37 -42zM305 152q0 37 -39 56l-11 -111q29 6 39.5 21t10.5 34z" />
    <glyph glyph-name="dollar.lnum" horiz-adv-x="537" 
d="M498 204q0 -97 -59 -151.5t-166 -61.5l-7 -72h-68l7 72q-59 4 -111 20.5t-81 46.5l37 161l104 -10l-9 -79q22 -14 40.5 -19t31.5 -6l19 178q-64 13 -120 46.5t-56 127.5q0 101 66.5 147.5t148.5 53.5l9 81h68l-9 -81q119 -10 170 -70l-9 -141l-106 -10l-1 76
q-30 22 -66 27l-16 -146q42 -9 84.5 -26.5t70.5 -55.5t28 -108zM200 474q0 -25 13.5 -39.5t35.5 -23.5l14 127q-63 -12 -63 -64zM356 194q0 34 -13.5 50t-40.5 25l-16 -160q33 6 51.5 25.5t18.5 59.5z" />
    <glyph glyph-name="cent" unicode="&#xa2;" horiz-adv-x="458" 
d="M169 -84l8 76q-154 20 -154 203q0 90 47.5 170.5t154.5 92.5l8 71h68l-8 -71q30 -3 62 -11.5t59 -24.5l5 -137l-103 -11l-6 80q-15 4 -27 6l-28 -269q25 8 39 32.5t24 64.5l101 -20q-13 -58 -53.5 -111t-120.5 -64l-8 -77h-68zM157 200q0 -76 31 -99l26 251
q-57 -35 -57 -152z" />
    <glyph glyph-name="cent.lnum" horiz-adv-x="460" 
d="M181 16l8 76q-155 19 -155 203q0 90 47.5 171t155.5 92l8 71h68l-8 -71q29 -3 61 -12t59 -24l5 -137l-103 -11l-6 80q-16 5 -26 6l-28 -269q24 8 37.5 32.5t24.5 64.5l101 -20q-13 -58 -53.5 -111t-119.5 -65l-8 -76h-68zM168 300q0 -35 7 -61t25 -39l26 252
q-58 -33 -58 -152z" />
    <glyph glyph-name="sterling" unicode="&#xa3;" horiz-adv-x="483" 
d="M33 287h57l5 47q10 97 68.5 145.5t135.5 48.5q34 0 75 -11t65 -39l1 -117l-98 -8l-6 65q-13 7 -23.5 8.5t-17.5 1.5q-32 0 -50 -20.5t-23 -72.5l-5 -48h138l-8 -75h-138q-4 -32 -15.5 -61.5t-51.5 -52.5h120q44 0 72.5 11t53.5 34l48 -60q-10 -22 -52.5 -52.5
t-105.5 -30.5h-267l10 96q36 20 46.5 48t14.5 68h-57z" />
    <glyph glyph-name="sterling.aalt" horiz-adv-x="559" 
d="M43 357h70l7 60q13 121 80.5 182t158.5 61q40 0 89.5 -13t77.5 -45v-151l-108 -10l-5 86q-14 8 -33.5 11.5t-34.5 3.5q-41 0 -64 -27.5t-30 -96.5l-7 -61h179l-10 -88h-178q-5 -42 -19.5 -83.5t-63.5 -71.5h165q53 0 86 15t60 44l51 -69q-14 -27 -61.5 -65.5
t-120.5 -38.5h-322l12 111q47 26 61.5 64t20.5 94h-71z" />
    <glyph glyph-name="florin" unicode="&#x192;" horiz-adv-x="356" 
d="M29 289h64l15 92q12 73 66 110.5t125 37.5q12 0 31 -1t34 -3l-10 -86q-32 5 -49 5q-31 0 -49 -14t-23 -51l-15 -90h96l-8 -75h-100l-31 -196q-7 -47 -46.5 -88.5t-129.5 -41.5q-15 0 -44 4l9 84q19 -4 32 -4q22 0 35.5 10t21.5 62l27 170h-59z" />
    <glyph glyph-name="florin.aalt" horiz-adv-x="415" 
d="M44 357h82l19 118q14 91 75.5 138t145.5 47q35 0 77 -5l-11 -101q-22 3 -40.5 5t-33.5 2q-47 0 -62.5 -23.5t-22.5 -64.5l-18 -116h120l-10 -88h-124l-39 -247q-9 -59 -52.5 -110.5t-145.5 -51.5q-18 0 -52 5l10 98q29 -5 43 -5q30 0 45.5 15t26.5 79l35 217h-78z" />
    <glyph glyph-name="yen" unicode="&#xa5;" horiz-adv-x="583" 
d="M133 98h80l2 25h-126l7 67h126l2 16l-8 13h-117l7 67h68l-85 137h-45l10 98h230l-10 -98h-40l68 -117h5l90 117h-46l10 98h218l-10 -98h-42l-111 -137h70l-7 -67h-117l-12 -15l-2 -14h128l-7 -67h-128l-2 -25h86l-10 -98h-292z" />
    <glyph glyph-name="yen.aalt" horiz-adv-x="658" 
d="M155 114h96l4 37h-157l8 78h157l2 27l-8 15h-146l8 78h94l-106 187h-55l12 114h258l-12 -114h-52l88 -164h6l120 164h-59l12 114h246l-12 -114h-54l-140 -187h92l-8 -78h-143l-12 -16l-2 -26h152l-8 -78h-152l-4 -37h101l-12 -114h-326z" />
    <glyph glyph-name="uni20B9" unicode="&#x20b9;" horiz-adv-x="528" 
d="M41 287h166q82 0 102 35h-265l8 72h262q-13 29 -90 29h-169l10 98h450l-10 -98h-55q3 -9 5 -29h40l-8 -72h-41q-13 -37 -40.5 -62t-64.5 -39l56 -123h61l-11 -98h-146l-86 196h-184z" />
    <glyph glyph-name="uni20B9.pnum_lnum" horiz-adv-x="584" 
d="M40 354h193q58 0 88 14t42 39h-317l9 84h315q-14 42 -103 45h-208l12 114h522l-12 -114h-73q7 -23 8 -45h52l-9 -84h-56q-19 -40 -56.5 -65t-81.5 -45l79 -183h77l-12 -114h-163l-101 248h-216z" />
    <glyph glyph-name="currency" unicode="&#xa4;" horiz-adv-x="467" 
d="M84 250q0 46 26 88l-69 80l52 47l68 -77q40 27 86 27t82 -28l85 78l42 -47l-88 -81q13 -29 13 -60q0 -49 -30 -92l72 -83l-52 -47l-72 81q-38 -23 -82 -23q-43 0 -77 24l-90 -82l-42 47l90 84q-14 30 -14 64zM192 264q-2 -21 8 -36t27 -15q19 0 32.5 17t13.5 40
q0 45 -36 45q-17 0 -30 -15t-15 -36z" />
    <glyph glyph-name="uni20A5" unicode="&#x20a5;" horiz-adv-x="836" 
d="M77 451h139l4 -87q23 43 59 69.5t87 26.5q94 0 118 -80l99 185h87l-57 -107q14 2 23 2q61 0 96.5 -38t25.5 -118l-25 -206h58l-9 -73l-30 -25h-154l31 254q7 58 -7 83t-51 25q-7 0 -10 -1l-86 -159l-24 -202h-84l-69 -130h-87l131 245l17 139q7 58 -7 83t-51 25
q-45 0 -64 -30t-25 -77l-31 -255h-124l43 353h-63l9 71z" />
    <glyph glyph-name="lira" unicode="&#x20a4;" horiz-adv-x="564" 
d="M40 287h71l6 52h-71l8 78h71q13 121 80 182t159 61q40 0 89 -13t78 -45v-151l-108 -10l-5 86q-14 8 -33.5 11.5t-34.5 3.5q-40 0 -63 -27.5t-31 -96.5v-1h177l-8 -78h-177l-6 -52h177l-8 -78h-182q-7 -27 -24 -51t-48 -44h165q52 0 85.5 15t60.5 44l51 -69
q-13 -27 -61 -65.5t-121 -38.5h-322l12 111q33 18 49 42.5t24 55.5h-68z" />
    <glyph glyph-name="colonmonetary" unicode="&#x20a1;" horiz-adv-x="671" 
d="M592 689h87l-261 -571q27 6 44 17l24 97l106 -10l-29 -153q-29 -28 -86 -48t-116 -27l-29 -65h-87l28 63q-13 1 -32 5l-31 -68h-87l44 97q-61 36 -95.5 103.5t-34.5 160.5q0 99 40 183.5t113.5 135.5t173.5 51q44 0 86 -13l19 42h88l-36 -80q7 -5 12.5 -11.5t10.5 -12.5z
M369 542q-93 0 -142 -66t-49 -174q0 -104 46 -152l177 389q-15 3 -32 3zM473 504l-179 -392q8 -2 16 -2.5t16 -1.5l167 364q-9 21 -20 32z" />
    <glyph glyph-name="uni20A2" unicode="&#x20a2;" horiz-adv-x="639" 
d="M564 69q-34 -35 -106 -57t-141 -22q-137 0 -210.5 86t-73.5 210q0 81 35 167.5t114 146.5t210 60q85 0 140 -24.5t83 -53.5v-151l-108 -10l-5 86q-22 17 -58 26t-70 9q-91 0 -146.5 -61t-55.5 -179q0 -149 97 -183l20 166h-62l9 71l31 27h129l7 -124q15 47 42 90t67 43
q28 0 49 -18l-20 -133q-27 15 -52 15q-68 0 -84 -71l-11 -73q45 8 69 23l25 97l105 -10z" />
    <glyph glyph-name="dong" unicode="&#x20ab;" horiz-adv-x="541" 
d="M235 638h140l6 50h115l-6 -50h50l-8 -77h-50l-35 -339h53l-8 -77h-168l7 65q-20 -31 -55 -52t-90 -21q-72 0 -112.5 42.5t-40.5 115.5q0 85 51 149t150 64q49 0 78.5 -17t42.5 -44l12 114h-140zM262 424q-41 0 -72.5 -27t-31.5 -88q0 -43 21.5 -65t54.5 -22q45 0 75 31.5
t34 71.5l1 9v5q3 42 -20.5 63.5t-61.5 21.5zM44 87h415l-9 -87h-415z" />
    <glyph glyph-name="franc" unicode="&#x20a3;" horiz-adv-x="736" 
d="M23 114h68l44 422h-69l12 114h484v-201l-110 -10l-10 97h-175l-15 -142h283l7 -123q15 47 41.5 90t67.5 43q28 0 49 -18l-20 -133q-28 15 -52 15q-66 0 -84 -69l-14 -101h86l-9 -71l-31 -27h-241l9 71l31 27h29l22 183h-186l-17 -167h94l-12 -114h-294z" />
    <glyph glyph-name="uni20A6" unicode="&#x20a6;" horiz-adv-x="761" 
d="M38 114h68l12 117h-85l8 78h85l4 42h-84l8 78h84l12 107h-78l12 114h170l157 -221h138l11 107h-90l12 114h278l-12 -114h-68l-12 -107h74l-8 -78h-74l-4 -42h73l-8 -78h-73l-24 -231l-72 -1l-165 232h-149l-12 -117h86l-12 -114h-274zM246 309h86l-29 42h-53zM497 309h39
l5 42h-74z" />
    <glyph glyph-name="peseta" unicode="&#x20a7;" horiz-adv-x="1354" 
d="M20 114h67l44 422h-67l12 114h286q107 0 162 -53.5t55 -144.5q0 -118 -78.5 -176t-177.5 -58h-96l-11 -104h96l-12 -114h-292zM589 420l34 31h29l12 97l39 40h90l-17 -137h135l-9 -66l-34 -32h-104l-25 -206q-7 -59 30 -59q16 0 31.5 14.5t28.5 66.5l87 -29
q-19 -78 -55.5 -114t-104.5 -36q-72 0 -111.5 37.5t-31.5 107.5l27 218h-60zM311 331q73 0 101 33.5t28 81.5q0 44 -23 67t-83 23h-74l-21 -205h72zM1108 88q32 0 52 11t20 32q0 29 -35.5 38.5t-78.5 21.5q-44 12 -80.5 37.5t-36.5 86.5q0 80 62 112.5t133 32.5q37 0 85 -9
t88 -32l-1 -115l-99 -11l-2 56q-37 13 -71 13q-20 0 -43 -9t-23 -31q0 -21 26 -29t69 -19q45 -12 91 -38t46 -97q0 -77 -58 -113t-138 -36q-43 0 -102 10.5t-101 33.5l31 126l97 -11l-5 -52q17 -6 40.5 -7.5t33.5 -1.5z" />
    <glyph glyph-name="uni20A8" unicode="&#x20a8;" horiz-adv-x="988" 
d="M769 362q-23 0 -43 -9t-20 -31q0 -30 36 -39.5t84 -17.5t84 -32t36 -82q0 -67 -62 -114t-193 -47q-113 0 -210.5 45.5t-140.5 158.5l-21 54h-84l-14 -134h69l-12 -114h-268l12 114h68l44 422h-68l12 114h288q227 0 227 -176q0 -75 -40.5 -125.5t-102.5 -72.5l22 -54
q22 -58 66.5 -86.5t93 -38t83.5 -9.5q46 0 73.5 11t27.5 35q0 30 -37.5 38.5t-86 16t-86 33t-37.5 88.5q0 87 64.5 118.5t135.5 31.5q37 0 85 -9t88 -32l-1 -115l-99 -11l-2 56q-37 13 -71 13zM309 354q83 0 112 28.5t29 75.5q0 45 -25.5 61.5t-94.5 16.5h-65l-19 -182h63z
" />
    <glyph glyph-name="uni20AA" unicode="&#x20aa;" horiz-adv-x="786" 
d="M41 0l68 650h248q144 0 187 -53t27 -208l-15 -145h-131l16 150q7 70 3 100.5t-27 38.5t-73 8h-116l-57 -541h-130zM360 109h136q70 0 87 47t25 120l39 374h130l-39 -369q-11 -103 -33.5 -164.5t-73.5 -89t-147 -27.5h-264l43 406h129z" />
    <glyph glyph-name="uni20A9" unicode="&#x20a9;" horiz-adv-x="993" 
d="M50 359h100l-10 42h-85l9 88h56l-11 47h-54l12 114h248l-12 -114h-57l9 -47h180l21 47h-49l12 114h249l-12 -114h-45l11 -47h170l17 47h-66l12 114h246l-12 -114h-50l-20 -47h60l-9 -88h-89l-18 -42h102l-9 -88h-130l-115 -271h-91l-67 271h-106l-119 -271h-93l-64 271
h-130zM280 359h95l19 42h-122zM653 359h92l15 42h-117zM485 359h47l-11 42h-18zM688 216h6l20 55h-40zM306 222h6l22 49h-38z" />
    <glyph glyph-name="uni20AD" unicode="&#x20ad;" horiz-adv-x="672" 
d="M354 114h57l-97 160h-77l-16 -160h52l-12 -114h-248l12 114h67l16 160h-59l11 109h60l16 153h-67l12 114h251l-12 -114h-55l-16 -153h79l126 153h-54l12 114h259l-12 -114h-69l-134 -153h99l-11 -109h-82l100 -160h64l-12 -114h-272z" />
    <glyph glyph-name="uni20AE" unicode="&#x20ae;" horiz-adv-x="639" 
d="M632 430l-112 -10l-8 116h-102l-11 -105l90 22l-9 -90l-91 -22l-3 -30l91 22l-10 -90l-90 -22l-11 -107h103l-12 -114h-329l12 114h98l8 75l-94 -23l9 90l94 23l3 30l-93 -23l9 90l94 23l14 137h-101l-32 -116l-110 10l42 220h555z" />
    <glyph glyph-name="uni20B1" unicode="&#x20b1;" horiz-adv-x="648" 
d="M31 114h67l25 239h-67l7 68h67l2 22h-67l8 68h66l3 25h-67l12 114h286q89 0 141.5 -37t68.5 -102h64l-8 -68h-49q0 -8 -2 -22h49l-7 -68h-60q-30 -68 -95.5 -101.5t-140.5 -33.5h-96l-11 -104h96l-12 -114h-292zM345 536h-74l-2 -25h161q-25 25 -85 25zM451 443h-189
l-3 -22h190q2 14 2 22zM322 331q56 0 87 22h-157l-2 -22h72z" />
    <glyph glyph-name="uni20B4" unicode="&#x20b4;" horiz-adv-x="599" 
d="M36 355l6 55h329q44 28 44 73q0 34 -23.5 46.5t-64.5 12.5q-19 0 -41 -3.5t-59 -15.5l-26 -86l-99 11l40 173q48 13 106 26t117 13q73 0 133 -31.5t60 -125.5q0 -53 -25 -93h50l-6 -55h-106q-24 -13 -50.5 -22t-52.5 -17h205l-6 -54h-335q-18 -14 -29.5 -34t-11.5 -49
q0 -31 20 -51t78 -20q37 0 66 8t48 19l23 87l106 -10l-28 -143q-35 -35 -101.5 -57t-135.5 -22q-83 0 -150.5 40t-67.5 136q0 56 27 96h-50l6 54h101q19 13 42 22.5t45 16.5h-184z" />
    <glyph glyph-name="uni20BA" unicode="&#x20ba;" horiz-adv-x="593" 
d="M48 247l72 30l4 40l-72 -30l9 80l71 30l15 139h-68l12 114h278l-12 -114h-79l-9 -82l165 70l-8 -80l-165 -69l-4 -40l164 69l-8 -80l-165 -69l-14 -141h20q76 0 127 46.5t65 173.5h128q-16 -159 -99 -246.5t-233 -87.5h-219l12 114h68l8 83l-71 -30z" />
    <glyph glyph-name="uni20BD" unicode="&#x20bd;" horiz-adv-x="611" 
d="M34 114h68l3 31h-68l7 69h68l3 34h-67l12 113h67l19 175h-68l12 114h292q223 0 223 -181q0 -116 -79.5 -168.5t-180.5 -52.5h-99l-3 -34h235l-7 -69h-235l-3 -31h98l-12 -114h-297zM333 361q74 0 102 21.5t28 71.5q0 44 -22.5 63t-87.5 19h-76l-19 -175h75z" />
    <glyph glyph-name="onehalf" unicode="&#xbd;" horiz-adv-x="768" 
d="M618 650l-221 -325l-212 -325h-86l229 337l204 313h86zM42 361h71l22 214h-71l8 75h170l-30 -289h64l-8 -75h-234zM513 239l-76 6l25 99q62 26 135 26t102 -29t29 -61q0 -43 -36 -82.5t-82 -71t-76 -51.5h104l6 49l84 -10l-15 -114h-300l-2 70q45 32 93 66.5t81 67
t33 58.5q0 33 -45 33q-25 0 -46 -11z" />
    <glyph glyph-name="onequarter" unicode="&#xbc;" horiz-adv-x="727" 
d="M618 650l-221 -325l-212 -325h-86l229 337l204 313h86zM44 361h71l22 214h-71l8 75h170l-30 -289h64l-8 -75h-234zM519 0l9 90h-161l-2 73l124 201h166l-22 -205h59l-15 -69h-51l-9 -90h-98zM525 289l-78 -130h88l14 130h-24z" />
    <glyph glyph-name="threequarters" unicode="&#xbe;" horiz-adv-x="760" 
d="M141 534l-75 6l22 95q28 12 65 18.5t67 6.5q60 0 90.5 -24.5t30.5 -61.5q0 -56 -69 -88v-2q63 -17 63 -83q0 -53 -42.5 -85t-112.5 -32q-54 0 -93 22.5t-44 76.5l75 25q5 -22 18 -35.5t40 -13.5q53 0 53 48q0 28 -21 35.5t-53 9.5l6 56q28 2 49.5 9t21.5 37q0 31 -38 31
q-21 0 -40 -10zM646 650l-221 -325l-212 -325h-86l229 337l204 313h86zM552 0l9 90h-161l-2 73l124 201h166l-22 -205h59l-15 -69h-51l-9 -90h-98zM558 289l-78 -130h88l14 130h-24z" />
    <glyph glyph-name="onethird" unicode="&#x2153;" horiz-adv-x="769" 
d="M625 650l-221 -325l-212 -325h-86l229 337l204 313h86zM43 361h71l22 214h-71l8 75h170l-30 -289h64l-8 -75h-234zM531 243l-75 6l22 95q28 12 65 18.5t67 6.5q60 0 90.5 -24.5t30.5 -61.5q0 -57 -69 -88v-2q63 -17 63 -83q0 -53 -42.5 -85t-112.5 -32q-54 0 -93 22.5
t-44 76.5l75 25q5 -22 18 -35.5t40 -13.5q53 0 53 48q0 28 -21 35.5t-53 9.5l6 56q28 1 49.5 8.5t21.5 37.5q0 31 -38 31q-21 0 -40 -10z" />
    <glyph glyph-name="twothirds" unicode="&#x2154;" horiz-adv-x="826" 
d="M141 529l-76 6l25 99q62 26 135 26t102 -29t29 -61q0 -43 -36 -82.5t-82 -71t-76 -51.5h104l6 49l84 -10l-15 -114h-300l-2 70q45 32 93 66.5t81 67t33 58.5q0 33 -45 33q-25 0 -46 -11zM686 650l-221 -325l-212 -325h-86l229 337l204 313h86zM588 243l-75 6l22 95
q28 12 65 18.5t67 6.5q60 0 90.5 -24.5t30.5 -61.5q0 -57 -69 -88v-2q63 -17 63 -83q0 -53 -42 -85t-113 -32q-54 0 -93.5 22.5t-43.5 76.5l75 25q5 -22 18 -35.5t40 -13.5q53 0 53 48q0 28 -21 35.5t-53 9.5l6 56q28 1 49.5 8.5t21.5 37.5q0 31 -38 31q-21 0 -40 -10z" />
    <glyph glyph-name="uni215B" unicode="&#x215b;" horiz-adv-x="743" 
d="M626 650l-221 -325l-212 -325h-86l229 337l204 313h86zM43 361h71l22 214h-71l8 75h170l-30 -289h64l-8 -75h-234zM535 -6q-59 0 -95 22t-36 66q0 40 24 60.5t56 33.5q-22 14 -38 33.5t-16 49.5q0 50 41.5 80.5t108.5 30.5q57 0 90.5 -23t33.5 -61q0 -34 -20 -52.5
t-49 -30.5q25 -15 44.5 -37t19.5 -56q0 -58 -47 -87t-117 -29zM538 273q0 -14 14.5 -24.5t35.5 -20.5q15 17 15 41q0 19 -10.5 24.5t-19.5 5.5q-21 0 -28 -8.5t-7 -17.5zM547 65q25 0 34.5 10.5t9.5 21.5q0 19 -19 31t-44 25q-23 -20 -23 -49q0 -39 42 -39z" />
    <glyph glyph-name="threesup_fraction_eightinf" horiz-adv-x="763" 
d="M140 534l-75 6l22 95q28 12 65 18.5t67 6.5q60 0 90.5 -24.5t30.5 -61.5q0 -56 -69 -88v-2q63 -17 63 -83q0 -53 -42 -85t-113 -32q-54 0 -93.5 22.5t-43.5 76.5l75 25q5 -22 18 -35.5t40 -13.5q53 0 53 48q0 28 -21 35.5t-53 9.5l6 56q28 2 49.5 9t21.5 37q0 31 -38 31
q-21 0 -40 -10zM646 650l-221 -325l-212 -325h-86l229 337l204 313h86zM555 -6q-59 0 -95 22t-36 66q0 40 24 60.5t56 33.5q-22 14 -38 33.5t-16 49.5q0 50 41.5 80.5t108.5 30.5q57 0 90.5 -23t33.5 -61q0 -34 -20 -52.5t-49 -30.5q25 -15 44.5 -37t19.5 -56q0 -58 -47 -87
t-117 -29zM558 273q0 -14 14.5 -24.5t35.5 -20.5q15 17 15 41q0 19 -10.5 24.5t-19.5 5.5q-21 0 -28 -8.5t-7 -17.5zM567 65q25 0 34.5 10.5t9.5 21.5q0 19 -19 31t-44 25q-23 -20 -23 -49q0 -39 42 -39z" />
    <glyph glyph-name="fivesup_fraction_eightinf" horiz-adv-x="762" 
d="M332 412q0 -62 -45 -97.5t-117 -35.5q-52 0 -92 22.5t-44 76.5l75 25q13 -49 63 -49q54 0 54 46q0 28 -21 37.5t-51 9.5q-14 0 -29 -1t-29 -2l-27 26l19 180h235l-2 -108l-83 -8l-2 41h-65l-6 -57h18q59 0 104 -21.5t45 -84.5zM642 650l-221 -325l-212 -325h-86l229 337
l204 313h86zM554 -6q-58 0 -94.5 22t-36.5 66q0 40 24.5 60.5t55.5 33.5q-23 14 -38.5 33.5t-15.5 49.5q0 50 41.5 80.5t108.5 30.5q57 0 90.5 -23t33.5 -61q0 -34 -20.5 -52.5t-48.5 -30.5q26 -15 45 -37t19 -56q0 -58 -47 -87t-117 -29zM557 273q0 -14 14.5 -24.5
t35.5 -20.5q15 17 15 41q0 19 -10.5 24.5t-19.5 5.5q-21 0 -28 -8.5t-7 -17.5zM566 65q25 0 34.5 10.5t9.5 21.5q0 19 -19 31t-44 25q-23 -20 -23 -49q0 -39 42 -39z" />
    <glyph glyph-name="sevensup_fraction_eightinf" horiz-adv-x="737" 
d="M66 650h277l7 -40l-164 -325h-97l150 291h-96l-6 -61h-85zM594 650l-221 -325l-212 -325h-86l229 337l204 313h86zM530 -6q-58 0 -94.5 22t-36.5 66q0 40 24.5 60.5t55.5 33.5q-23 14 -38.5 33.5t-15.5 49.5q0 50 41.5 80.5t108.5 30.5q57 0 90.5 -23t33.5 -61
q0 -34 -20.5 -52.5t-48.5 -30.5q26 -15 45 -37t19 -56q0 -58 -47 -87t-117 -29zM533 273q0 -14 14.5 -24.5t35.5 -20.5q15 17 15 41q0 19 -10.5 24.5t-19.5 5.5q-21 0 -28 -8.5t-7 -17.5zM542 65q25 0 34.5 10.5t9.5 21.5q0 19 -19 31t-44 25q-23 -20 -23 -49q0 -39 42 -39z
" />
    <glyph glyph-name="fraction" unicode="&#x2044;" horiz-adv-x="160" 
d="M344 650l-221 -325l-212 -325h-86l229 337l204 313h86z" />
    <glyph glyph-name="uni0061.sc" horiz-adv-x="577" 
d="M-5 98h46l184 325h-73l11 98h194l150 -423h48l-10 -98h-221l10 98h37l-12 45h-168l-22 -45h43l-10 -98h-217zM296 358l-65 -133h106l-36 133h-5z" />
    <glyph glyph-name="uni0062.sc" horiz-adv-x="531" 
d="M351 521q68 0 110 -30.5t42 -82.5q0 -42 -29 -75.5t-82 -41.5l-1 -3q57 -9 80.5 -42.5t23.5 -77.5q0 -64 -47.5 -116t-148.5 -52h-291l10 98h54l34 325h-54l11 98h288zM284 310q56 0 67.5 22.5t11.5 37.5q0 26 -11.5 39.5t-45.5 13.5h-73l-12 -113h63zM275 98q84 0 84 67
q0 56 -67 56h-81l-13 -123h77z" />
    <glyph glyph-name="uni0063.sc" horiz-adv-x="546" 
d="M475 53q-30 -29 -93.5 -45t-117.5 -16q-99 0 -170.5 59t-71.5 182q0 121 76.5 208.5t211.5 87.5q66 0 124 -20t81 -43v-123l-107 -8l-4 70q-19 13 -43 18t-45 5q-74 0 -116 -47t-42 -136q0 -85 37 -118.5t93 -33.5q27 0 48.5 6t37.5 15l20 77l105 -8z" />
    <glyph glyph-name="uni0064.sc" horiz-adv-x="586" 
d="M310 521q128 0 190 -62t62 -165q0 -132 -81 -213t-218 -81h-255l10 98h54l34 325h-54l11 98h247zM262 98q79 0 121 45t42 146q0 134 -129 134h-64l-34 -325h64z" />
    <glyph glyph-name="uni0065.sc" horiz-adv-x="504" 
d="M430 0h-423l10 98h54l35 325h-55l11 98h425l-1 -150l-108 -11l-3 63h-142l-12 -113h217l-11 -97h-217l-12 -115h140l17 64l110 -10z" />
    <glyph glyph-name="uni0066.sc" horiz-adv-x="481" 
d="M471 361l-112 -10l-3 72h-122l-15 -136h218l-10 -98h-218l-10 -91h85l-10 -98h-266l10 98h54l35 325h-55l11 98h405z" />
    <glyph glyph-name="uni0067.sc" horiz-adv-x="575" 
d="M395 50q-27 -26 -64.5 -42t-86.5 -16q-107 0 -164.5 72.5t-57.5 173.5q0 124 82 207.5t216 83.5q64 0 121 -18.5t79 -44.5v-123l-109 -8l-4 69q-33 24 -86 24q-162 0 -162 -179q0 -82 33.5 -119t86.5 -37q94 0 111 94l1 7h-97l11 97h246l-11 -97h-22l-20 -194h-97z" />
    <glyph glyph-name="uni0068.sc" horiz-adv-x="639" 
d="M18 98h55l34 325h-55l11 98h235l-11 -98h-54l-11 -110h204l11 110h-55l11 98h235l-11 -98h-54l-34 -325h54l-10 -98h-235l10 98h55l13 117h-204l-13 -117h54l-10 -98h-235z" />
    <glyph glyph-name="uni0131.aalt" horiz-adv-x="309" 
d="M18 98h55l34 325h-55l11 98h235l-11 -98h-54l-34 -325h54l-10 -98h-235z" />
    <glyph glyph-name="uni006A.sc" horiz-adv-x="419" 
d="M154 521h263l-10 -98h-48l-28 -272q-8 -80 -62.5 -119.5t-129.5 -39.5q-73 0 -106.5 31t-46.5 71l94 61q10 -36 28.5 -46t36.5 -10q55 0 60 51l28 273h-89z" />
    <glyph glyph-name="uni006B.sc" horiz-adv-x="577" 
d="M297 98h50l-78 118h-56l-13 -118h39l-10 -98h-221l10 98h55l34 325h-55l11 98h224l-11 -98h-41l-12 -113h59l99 113h-46l11 98h233l-11 -98h-56l-139 -149l119 -176h51l-10 -98h-246z" />
    <glyph glyph-name="uni006C.sc" horiz-adv-x="476" 
d="M415 0h-406l10 98h54l35 325h-55l11 98h251l-11 -98h-69l-35 -325h122l23 98l110 -10z" />
    <glyph glyph-name="uni006D.sc" horiz-adv-x="758" 
d="M20 98h55l34 325h-64l11 98h169l156 -303h3l200 303h171l-11 -98h-64l-34 -325h54l-10 -98h-223l10 98h42l19 176h-3l-152 -229h-51l-117 234h-3l-19 -181h47l-10 -98h-220z" />
    <glyph glyph-name="uni006E.sc" horiz-adv-x="644" 
d="M19 98h56l34 325h-65l11 98h155l227 -294h4l20 196h-76l11 98h248l-11 -98h-54l-44 -423l-70 -1l-246 318h-4l-23 -219h71l-10 -98h-244z" />
    <glyph glyph-name="uni006F.sc" horiz-adv-x="597" 
d="M325 529q124 0 186.5 -70.5t62.5 -170.5q0 -118 -82 -207t-224 -89q-125 0 -186.5 71t-61.5 171q0 124 84.5 209.5t220.5 85.5zM284 93q77 0 114.5 54.5t37.5 132.5q0 148 -122 148q-76 0 -116.5 -55t-40.5 -132q0 -62 29.5 -105t97.5 -43z" />
    <glyph glyph-name="uni0070.sc" horiz-adv-x="513" 
d="M18 98h54l34 325h-54l11 98h250q192 0 192 -156q0 -96 -69.5 -144.5t-154.5 -48.5h-75l-8 -74h79l-10 -98h-259zM267 269q65 0 83 26.5t18 58.5q0 34 -16 51.5t-66 17.5h-54l-16 -154h51z" />
    <glyph glyph-name="uni0071.sc" 
d="M326 529q124 0 186.5 -70.5t62.5 -170.5q0 -123 -84 -209l54 -59l-78 -71l-63 70q-60 -27 -135 -27q-125 0 -186.5 71t-61.5 171q0 124 84.5 209.5t220.5 85.5zM271 167l78 71l63 -71q25 46 25 113q0 148 -122 148q-77 0 -117 -55t-40 -132q0 -62 29.5 -105t97.5 -43
q25 0 46 6z" />
    <glyph glyph-name="uni0072.sc" horiz-adv-x="542" 
d="M19 98h53l34 325h-53l11 98h245q93 0 145 -35t52 -108q0 -59 -32.5 -98t-82.5 -58l57 -124h60l-10 -98h-146l-86 196h-56l-11 -98h53l-10 -98h-233zM257 287q69 0 90.5 21.5t21.5 55.5q0 35 -19.5 47t-75.5 12h-41l-14 -136h38z" />
    <glyph glyph-name="uni0073.sc" horiz-adv-x="481" 
d="M441 172q0 -85 -64 -132.5t-165 -47.5q-61 0 -115.5 16t-85.5 39l33 131l105 -8l-10 -59q18 -11 40.5 -14t38.5 -3q50 0 67.5 17.5t17.5 40.5q0 38 -30.5 51.5t-64.5 20.5q-67 13 -113 39.5t-46 94.5q0 67 35 104t86 52t99 15q55 0 102 -14.5t74 -35.5v-128l-107 -8
l-5 69q-19 10 -38 13t-33 3q-26 0 -50.5 -10t-24.5 -37t24.5 -38t53.5 -17q32 -6 73.5 -18.5t72 -43t30.5 -92.5z" />
    <glyph glyph-name="uni0074.sc" horiz-adv-x="555" 
d="M548 333l-112 -10l-2 100h-79l-35 -325h85l-10 -98h-291l10 98h80l35 325h-80l-23 -100l-110 10l39 188h493v-188z" />
    <glyph glyph-name="uni0075.sc" 
d="M381 521h223l-10 -98h-47l-21 -207q-6 -53 -33 -104.5t-81.5 -85.5t-142.5 -34q-122 0 -168 65t-37 150l22 216h-44l10 98h230l-10 -98h-59l-22 -212q-5 -50 14.5 -84t79.5 -34t88.5 34.5t34.5 88.5l21 207h-58z" />
    <glyph glyph-name="uni0076.sc" horiz-adv-x="574" 
d="M582 423h-47l-234 -423h-86l-145 423h-48l10 98h230l-10 -98h-44l74 -244h5l121 244h-44l10 98h218z" />
    <glyph glyph-name="uni0077.sc" horiz-adv-x="830" 
d="M833 423h-41l-194 -423h-87l-89 323h-4l-148 -323h-89l-115 423h-45l10 98h222l-10 -98h-44l48 -231h6l113 231h-41l10 98h222l-10 -98h-35l62 -236h6l86 236h-52l10 98h219z" />
    <glyph glyph-name="uni0078.sc" horiz-adv-x="570" 
d="M528 0h-228l10 98h31l-70 92l-82 -92h41l-10 -98h-238l10 98h59l164 168l-127 157h-48l11 98h226l-11 -98h-30l64 -80l74 80h-36l11 98h221l-11 -98h-46l-157 -155l138 -170h44z" />
    <glyph glyph-name="uni0079.sc" horiz-adv-x="538" 
d="M543 423h-42l-177 -219l-11 -106h86l-10 -98h-292l10 98h80l11 108l-135 217h-45l10 98h230l-10 -98h-40l68 -117h5l90 117h-46l10 98h218z" />
    <glyph glyph-name="uni007A.sc" horiz-adv-x="503" 
d="M430 0h-435l4 59l295 364h-123l-21 -87l-111 10l39 175h413l-4 -51l-301 -371v-1h150l22 95l110 -10z" />
    <glyph glyph-name="uni00E6.aalt" horiz-adv-x="785" 
d="M715 0h-425l10 98h53l5 45h-162l-27 -45h38l-10 -98h-217l10 98h50l203 325h-67l11 98h583v-150l-108 -11l-4 63h-143l-12 -113h217l-11 -97h-217l-12 -115h142l17 64l109 -10zM367 225l21 198h-30l-115 -198h124z" />
    <glyph glyph-name="oe.aalt" horiz-adv-x="837" 
d="M772 0h-377l2 20q-25 -13 -55 -20.5t-69 -7.5q-123 0 -187.5 71t-64.5 175q0 119 82.5 205t221.5 86q40 0 69.5 -7.5t53.5 -21.5l2 21h379l-1 -150l-108 -11l-3 63h-150l-12 -113h217l-10 -97h-217l-12 -115h148l17 64l109 -10zM409 137l26 245q-43 46 -115 46
q-87 0 -124 -55t-37 -127q0 -62 29 -107.5t104 -45.5q80 0 117 44z" />
    <glyph glyph-name="eth.aalt" horiz-adv-x="588" 
d="M45 314h52l11 109h-54l11 98h247q128 0 190 -62t62 -165q0 -132 -81 -213t-218 -81h-255l10 98h54l13 121h-52zM264 98q79 0 121 45t42 146q0 134 -129 134h-64l-11 -109h96l-10 -95h-96l-13 -121h64z" />
    <glyph glyph-name="uni00E1.aalt" horiz-adv-x="577" 
d="M490 649l-204 -92l-29 49l174 143zM-5 98h46l184 325h-73l11 98h194l150 -423h48l-10 -98h-221l10 98h37l-12 45h-168l-22 -45h43l-10 -98h-217zM296 358l-65 -133h106l-36 133h-5z" />
    <glyph glyph-name="uni0103.aalt" horiz-adv-x="577" 
d="M372 701h100q-8 -71 -50 -104.5t-104 -33.5q-134 0 -119 138h100q-7 -61 29 -61q20 0 30.5 18.5t13.5 42.5zM-5 98h46l184 325h-73l11 98h194l150 -423h48l-10 -98h-221l10 98h37l-12 45h-168l-22 -45h43l-10 -98h-217zM296 358l-65 -133h106l-36 133h-5z" />
    <glyph glyph-name="uni00E2.aalt" horiz-adv-x="577" 
d="M343 733l122 -129l-40 -47l-119 69l-123 -70l-32 48l148 129h44zM-5 98h46l184 325h-73l11 98h194l150 -423h48l-10 -98h-221l10 98h37l-12 45h-168l-22 -45h43l-10 -98h-217zM296 358l-65 -133h106l-36 133h-5z" />
    <glyph glyph-name="uni00E4.aalt" horiz-adv-x="577" 
d="M342 583l14 134h127l-14 -134h-127zM161 583l14 134h126l-14 -134h-126zM-5 98h46l184 325h-73l11 98h194l150 -423h48l-10 -98h-221l10 98h37l-12 45h-168l-22 -45h43l-10 -98h-217zM296 358l-65 -133h106l-36 133h-5z" />
    <glyph glyph-name="uni00E0.aalt" horiz-adv-x="577" 
d="M352 560l-204 92l59 100l174 -143zM-5 98h46l184 325h-73l11 98h194l150 -423h48l-10 -98h-221l10 98h37l-12 45h-168l-22 -45h43l-10 -98h-217zM296 358l-65 -133h106l-36 133h-5z" />
    <glyph glyph-name="uni0101.aalt" horiz-adv-x="577" 
d="M193 685h263l-10 -98h-263zM-5 98h46l184 325h-73l11 98h194l150 -423h48l-10 -98h-221l10 98h37l-12 45h-168l-22 -45h43l-10 -98h-217zM296 358l-65 -133h106l-36 133h-5z" />
    <glyph glyph-name="uni0105.aalt" horiz-adv-x="577" 
d="M334 98h37l-12 45h-168l-22 -45h43l-10 -98h-217l10 98h46l184 325h-73l11 98h194l150 -423h48l-10 -98h-48q-32 -21 -40 -41.5t-8 -33.5q0 -23 10 -30.5t26 -7.5q25 0 45 11v-79q-17 -7 -38.5 -13t-48.5 -6q-43 0 -73 18.5t-30 61.5q0 38 23.5 69t57.5 51h-97zM296 358
l-65 -133h106l-36 133h-5z" />
    <glyph glyph-name="uni00E5.aalt" horiz-adv-x="577" 
d="M322 556q-93 0 -93 82q0 44 28.5 73t85.5 29q93 0 93 -81q0 -42 -28 -72.5t-86 -30.5zM328 616q30 0 30 39q0 25 -22 25q-28 0 -28 -39q0 -25 20 -25zM-5 98h46l184 325h-73l11 98h194l150 -423h48l-10 -98h-221l10 98h37l-12 45h-168l-22 -45h43l-10 -98h-217zM296 358
l-65 -133h106l-36 133h-5z" />
    <glyph glyph-name="uni00E3.aalt" horiz-adv-x="577" 
d="M213 566l-47 16q1 28 24.5 76t72.5 48q33 0 59 -19t51 -19q33 0 50 41l52 -11q-5 -44 -25 -87t-69 -43q-37 0 -63.5 20.5t-55.5 20.5q-33 0 -49 -43zM-5 98h46l184 325h-73l11 98h194l150 -423h48l-10 -98h-221l10 98h37l-12 45h-168l-22 -45h43l-10 -98h-217zM296 358
l-65 -133h106l-36 133h-5z" />
    <glyph glyph-name="uni0107.aalt" horiz-adv-x="546" 
d="M485 649l-204 -92l-29 49l174 143zM475 53q-30 -29 -93.5 -45t-117.5 -16q-99 0 -170.5 59t-71.5 182q0 121 76.5 208.5t211.5 87.5q66 0 124 -20t81 -43v-123l-107 -8l-4 70q-19 13 -43 18t-45 5q-74 0 -116 -47t-42 -136q0 -85 37 -118.5t93 -33.5q27 0 48.5 6t37.5 15
l20 77l105 -8z" />
    <glyph glyph-name="uni010D.aalt" horiz-adv-x="546" 
d="M298 558l-120 127l38 49l119 -70l123 71l30 -51l-146 -126h-44zM475 53q-30 -29 -93.5 -45t-117.5 -16q-99 0 -170.5 59t-71.5 182q0 121 76.5 208.5t211.5 87.5q66 0 124 -20t81 -43v-123l-107 -8l-4 70q-19 13 -43 18t-45 5q-74 0 -116 -47t-42 -136q0 -85 37 -118.5
t93 -33.5q27 0 48.5 6t37.5 15l20 77l105 -8z" />
    <glyph glyph-name="uni00E7.aalt" horiz-adv-x="546" 
d="M475 53q-28 -26 -84.5 -42t-109.5 -18l-6 -41h8q44 0 61.5 -22t17.5 -51q0 -53 -44 -74t-94 -21q-78 0 -110 30l29 70q11 -8 29.5 -15.5t45.5 -7.5q37 0 37 23q0 10 -6.5 16.5t-28.5 6.5h-36l14 92q-76 17 -126 74.5t-50 159.5q0 121 76.5 208.5t211.5 87.5q66 0 124 -20
t81 -43v-123l-107 -8l-4 70q-19 13 -43 18t-45 5q-74 0 -116 -47t-42 -136q0 -85 37 -118.5t93 -33.5q27 0 48.5 6t37.5 15l20 77l105 -8z" />
    <glyph glyph-name="uni0109.aalt" horiz-adv-x="546" 
d="M369 733l122 -129l-40 -47l-119 69l-123 -70l-32 48l148 129h44zM475 53q-30 -29 -93.5 -45t-117.5 -16q-99 0 -170.5 59t-71.5 182q0 121 76.5 208.5t211.5 87.5q66 0 124 -20t81 -43v-123l-107 -8l-4 70q-19 13 -43 18t-45 5q-74 0 -116 -47t-42 -136q0 -85 37 -118.5
t93 -33.5q27 0 48.5 6t37.5 15l20 77l105 -8z" />
    <glyph glyph-name="uni010B.aalt" horiz-adv-x="546" 
d="M266 582l14 134h127l-14 -134h-127zM475 53q-30 -29 -93.5 -45t-117.5 -16q-99 0 -170.5 59t-71.5 182q0 121 76.5 208.5t211.5 87.5q66 0 124 -20t81 -43v-123l-107 -8l-4 70q-19 13 -43 18t-45 5q-74 0 -116 -47t-42 -136q0 -85 37 -118.5t93 -33.5q27 0 48.5 6
t37.5 15l20 77l105 -8z" />
    <glyph glyph-name="uni010F.aalt" horiz-adv-x="586" 
d="M283 558l-120 127l38 49l119 -70l123 71l30 -51l-146 -126h-44zM310 521q128 0 190 -62t62 -165q0 -132 -81 -213t-218 -81h-255l10 98h54l34 325h-54l11 98h247zM262 98q79 0 121 45t42 146q0 134 -129 134h-64l-34 -325h64z" />
    <glyph glyph-name="uni0111.aalt" horiz-adv-x="588" 
d="M45 314h52l11 109h-54l11 98h247q128 0 190 -62t62 -165q0 -132 -81 -213t-218 -81h-255l10 98h54l13 121h-52zM264 98q79 0 121 45t42 146q0 134 -129 134h-64l-11 -109h96l-10 -95h-96l-13 -121h64z" />
    <glyph glyph-name="uni00E9.sc" horiz-adv-x="504" 
d="M482 649l-204 -92l-29 49l174 143zM430 0h-423l10 98h54l35 325h-55l11 98h425l-1 -150l-108 -11l-3 63h-142l-12 -113h217l-11 -97h-217l-12 -115h140l17 64l110 -10z" />
    <glyph glyph-name="uni0115.aalt" horiz-adv-x="504" 
d="M366 701h100q-8 -71 -50 -104.5t-104 -33.5q-134 0 -119 138h100q-7 -61 29 -61q20 0 30.5 18.5t13.5 42.5zM430 0h-423l10 98h54l35 325h-55l11 98h425l-1 -150l-108 -11l-3 63h-142l-12 -113h217l-11 -97h-217l-12 -115h140l17 64l110 -10z" />
    <glyph glyph-name="uni011B.aalt" horiz-adv-x="504" 
d="M290 558l-120 127l38 49l119 -70l123 71l30 -51l-146 -126h-44zM430 0h-423l10 98h54l35 325h-55l11 98h425l-1 -150l-108 -11l-3 63h-142l-12 -113h217l-11 -97h-217l-12 -115h140l17 64l110 -10z" />
    <glyph glyph-name="uni00EA.aalt" horiz-adv-x="504" 
d="M354 733l122 -129l-40 -47l-119 69l-123 -70l-32 48l148 129h44zM430 0h-423l10 98h54l35 325h-55l11 98h425l-1 -150l-108 -11l-3 63h-142l-12 -113h217l-11 -97h-217l-12 -115h140l17 64l110 -10z" />
    <glyph glyph-name="uni00EB.aalt" horiz-adv-x="504" 
d="M162 583l14 134h126l-14 -134h-126zM343 583l14 134h127l-14 -134h-127zM430 0h-423l10 98h54l35 325h-55l11 98h425l-1 -150l-108 -11l-3 63h-142l-12 -113h217l-11 -97h-217l-12 -115h140l17 64l110 -10z" />
    <glyph glyph-name="uni0117.aalt" horiz-adv-x="504" 
d="M259 582l14 134h127l-14 -134h-127zM430 0h-423l10 98h54l35 325h-55l11 98h425l-1 -150l-108 -11l-3 63h-142l-12 -113h217l-11 -97h-217l-12 -115h140l17 64l110 -10z" />
    <glyph glyph-name="uni00E8.sc" horiz-adv-x="504" 
d="M375 557l-204 92l59 100l174 -143zM430 0h-423l10 98h54l35 325h-55l11 98h425l-1 -150l-108 -11l-3 63h-142l-12 -113h217l-11 -97h-217l-12 -115h140l17 64l110 -10z" />
    <glyph glyph-name="uni0113.aalt" horiz-adv-x="504" 
d="M193 685h263l-10 -98h-263zM430 0h-423l10 98h54l35 325h-55l11 98h425l-1 -150l-108 -11l-3 63h-142l-12 -113h217l-11 -97h-217l-12 -115h140l17 64l110 -10z" />
    <glyph glyph-name="uni0119.aalt" horiz-adv-x="503" 
d="M421 -181q-17 -7 -38.5 -13t-48.5 -6q-44 0 -73.5 18.5t-29.5 61.5q0 38 23.5 69t57.5 51h-305l10 98h54l35 325h-55l11 98h425l-1 -150l-108 -11l-3 63h-142l-12 -113h217l-11 -97h-217l-12 -115h140l17 64l110 -10l-35 -152h-42q-32 -21 -40 -41.5t-8 -33.5
q0 -23 10 -30.5t26 -7.5q25 0 45 11v-79z" />
    <glyph glyph-name="uni1EBD.smcp" horiz-adv-x="504" 
d="M203 565l-47 16q1 29 24.5 76.5t72.5 47.5q33 0 59 -19t51 -19q33 0 50 41l52 -11q-5 -43 -25 -86.5t-69 -43.5q-37 0 -63.5 20.5t-55.5 20.5q-33 0 -49 -43zM430 0h-423l10 98h54l35 325h-55l11 98h425l-1 -150l-108 -11l-3 63h-142l-12 -113h217l-11 -97h-217l-12 -115
h140l17 64l110 -10z" />
    <glyph glyph-name="uni011F.aalt" horiz-adv-x="575" 
d="M380 703h100q-8 -71 -50 -104.5t-104 -33.5q-134 0 -119 138h100q-7 -61 29 -61q20 0 30.5 18.5t13.5 42.5zM395 50q-27 -26 -64.5 -42t-86.5 -16q-107 0 -164.5 72.5t-57.5 173.5q0 124 82 207.5t216 83.5q64 0 121 -18.5t79 -44.5v-123l-109 -8l-4 69q-33 24 -86 24
q-162 0 -162 -179q0 -82 33.5 -119t86.5 -37q94 0 111 94l1 7h-97l11 97h246l-11 -97h-22l-20 -194h-97z" />
    <glyph glyph-name="uni011D.aalt" horiz-adv-x="575" 
d="M358 733l122 -129l-40 -47l-119 69l-123 -70l-32 48l148 129h44zM395 50q-27 -26 -64.5 -42t-86.5 -16q-107 0 -164.5 72.5t-57.5 173.5q0 124 82 207.5t216 83.5q64 0 121 -18.5t79 -44.5v-123l-109 -8l-4 69q-33 24 -86 24q-162 0 -162 -179q0 -82 33.5 -119t86.5 -37
q94 0 111 94l1 7h-97l11 97h246l-11 -97h-22l-20 -194h-97z" />
    <glyph glyph-name="uni0123.aalt" horiz-adv-x="575" 
d="M395 50q-27 -26 -64.5 -42t-86.5 -16q-107 0 -164.5 72.5t-57.5 173.5q0 124 82 207.5t216 83.5q64 0 121 -18.5t79 -44.5v-123l-109 -8l-4 69q-33 24 -86 24q-162 0 -162 -179q0 -82 33.5 -119t86.5 -37q94 0 111 94l1 7h-97l11 97h246l-11 -97h-22l-20 -194h-97z
M324 -58l-42 -155h-96l19 155h119z" />
    <glyph glyph-name="uni0121.aalt" horiz-adv-x="575" 
d="M262 582l14 134h127l-14 -134h-127zM395 50q-27 -26 -64.5 -42t-86.5 -16q-107 0 -164.5 72.5t-57.5 173.5q0 124 82 207.5t216 83.5q64 0 121 -18.5t79 -44.5v-123l-109 -8l-4 69q-33 24 -86 24q-162 0 -162 -179q0 -82 33.5 -119t86.5 -37q94 0 111 94l1 7h-97l11 97
h246l-11 -97h-22l-20 -194h-97z" />
    <glyph glyph-name="uni0127.aalt" horiz-adv-x="638" 
d="M348 98h55l13 117h-204l-13 -117h54l-10 -98h-235l10 98h55l25 237h-55l7 66h55l3 22h-56l11 98h235l-11 -98h-53l-3 -22h204l3 22h-56l11 98h235l-11 -98h-53l-3 -22h55l-7 -66h-55l-25 -237h54l-10 -98h-235zM222 313h204l2 22h-204z" />
    <glyph glyph-name="uni0125.aalt" horiz-adv-x="639" 
d="M399 733l122 -129l-40 -47l-119 69l-123 -70l-32 48l148 129h44zM18 98h55l34 325h-55l11 98h235l-11 -98h-54l-11 -110h204l11 110h-55l11 98h235l-11 -98h-54l-34 -325h54l-10 -98h-235l10 98h55l13 117h-204l-13 -117h54l-10 -98h-235z" />
    <glyph glyph-name="uni00ED.aalt" horiz-adv-x="309" 
d="M351 649l-204 -92l-29 49l174 143zM18 98h55l34 325h-55l11 98h235l-11 -98h-54l-34 -325h54l-10 -98h-235z" />
    <glyph glyph-name="uni012D.aalt" horiz-adv-x="309" 
d="M237 701h100q-7 -71 -50 -104.5t-104 -33.5q-134 0 -119 138h100q-7 -61 29 -61q20 0 30.5 18.5t13.5 42.5zM18 98h55l34 325h-55l11 98h235l-11 -98h-54l-34 -325h54l-10 -98h-235z" />
    <glyph glyph-name="uni00EE.aalt" horiz-adv-x="309" 
d="M224 733l122 -129l-40 -47l-119 69l-123 -70l-32 48l148 129h44zM18 98h55l34 325h-55l11 98h235l-11 -98h-54l-34 -325h54l-10 -98h-235z" />
    <glyph glyph-name="uni00EF.aalt" horiz-adv-x="309" 
d="M216 583l14 134h127l-14 -134h-127zM35 583l14 134h126l-14 -134h-126zM18 98h55l34 325h-55l11 98h235l-11 -98h-54l-34 -325h54l-10 -98h-235z" />
    <glyph glyph-name="idotaccent.smcp" horiz-adv-x="309" 
d="M123 582l14 134h127l-14 -134h-127zM18 98h55l34 325h-55l11 98h235l-11 -98h-54l-34 -325h54l-10 -98h-235z" />
    <glyph glyph-name="uni00EC.aalt" horiz-adv-x="309" 
d="M247 557l-204 92l59 100l174 -143zM18 98h55l34 325h-55l11 98h235l-11 -98h-54l-34 -325h54l-10 -98h-235z" />
    <glyph glyph-name="uni012B.aalt" horiz-adv-x="309" 
d="M66 685h263l-10 -98h-263zM18 98h55l34 325h-55l11 98h235l-11 -98h-54l-34 -325h54l-10 -98h-235z" />
    <glyph glyph-name="uni012F.aalt" horiz-adv-x="309" 
d="M18 98h55l34 325h-55l11 98h235l-11 -98h-54l-34 -325h54l-10 -98h-76q-32 -21 -40 -41.5t-8 -33.5q0 -23 10 -30.5t26 -7.5q25 0 45 11v-79q-17 -7 -38.5 -13t-48.5 -6q-43 0 -73 18.5t-30 61.5q0 38 23.5 69t57.5 51h-83z" />
    <glyph glyph-name="uni0129.aalt" horiz-adv-x="309" 
d="M88 565l-47 16q1 29 24.5 76.5t72.5 47.5q33 0 59 -19t51 -19q33 0 50 41l52 -11q-4 -43 -24.5 -86.5t-69.5 -43.5q-38 0 -64 20.5t-55 20.5q-33 0 -49 -43zM18 98h55l34 325h-55l11 98h235l-11 -98h-54l-34 -325h54l-10 -98h-235z" />
    <glyph glyph-name="ij.aalt" horiz-adv-x="728" 
d="M463 521h263l-10 -98h-48l-28 -272q-8 -80 -62.5 -119.5t-129.5 -39.5q-74 0 -107 31t-46 71l94 61q10 -36 28.5 -46t36.5 -10q55 0 60 51l28 273h-89zM18 98h55l34 325h-55l11 98h235l-11 -98h-54l-34 -325h54l-10 -98h-235z" />
    <glyph glyph-name="iacute_jacute.smcp" horiz-adv-x="728" 
d="M351 649l-204 -92l-29 49l174 143zM763 649l-204 -92l-29 49l174 143zM463 521h263l-10 -98h-48l-28 -272q-8 -80 -62.5 -119.5t-129.5 -39.5q-74 0 -107 31t-46 71l94 61q10 -36 28.5 -46t36.5 -10q55 0 60 51l28 273h-89zM18 98h55l34 325h-55l11 98h235l-11 -98h-54
l-34 -325h54l-10 -98h-235z" />
    <glyph glyph-name="uni0135.aalt" horiz-adv-x="419" 
d="M327 732l122 -129l-40 -47l-119 69l-123 -70l-32 48l148 129h44zM154 521h263l-10 -98h-48l-28 -272q-8 -80 -62.5 -119.5t-129.5 -39.5q-73 0 -106.5 31t-46.5 71l94 61q10 -36 28.5 -46t36.5 -10q55 0 60 51l28 273h-89z" />
    <glyph glyph-name="uni0137.aalt" horiz-adv-x="577" 
d="M297 98h50l-78 118h-56l-13 -118h39l-10 -98h-221l10 98h55l34 325h-55l11 98h224l-11 -98h-41l-12 -113h59l99 113h-46l11 98h233l-11 -98h-56l-139 -149l119 -176h51l-10 -98h-246zM317 -58l-42 -155h-96l19 155h119z" />
    <glyph glyph-name="uni013A.aalt" horiz-adv-x="475" 
d="M347 649l-204 -92l-29 49l174 143zM415 0h-406l10 98h54l35 325h-55l11 98h251l-11 -98h-69l-35 -325h122l23 98l110 -10z" />
    <glyph glyph-name="uni013E.aalt" horiz-adv-x="476" 
d="M461 548l-53 -202h-86l32 202h107zM415 0h-406l10 98h54l35 325h-55l11 98h251l-11 -98h-69l-35 -325h122l23 98l110 -10z" />
    <glyph glyph-name="uni013C.aalt" horiz-adv-x="475" 
d="M415 0h-406l10 98h54l35 325h-55l11 98h251l-11 -98h-69l-35 -325h122l23 98l110 -10zM318 -58l-42 -155h-96l19 155h119z" />
    <glyph glyph-name="uni0140.aalt" horiz-adv-x="480" 
d="M415 0h-406l10 98h54l35 325h-55l11 98h251l-11 -98h-69l-35 -325h122l23 98l110 -10zM287 243l14 130h123l-13 -130h-124z" />
    <glyph glyph-name="uni0142.aalt" horiz-adv-x="479" 
d="M418 0h-406l10 98h54l11 104l-52 -14l9 86l52 15l15 134h-55l11 98h251l-11 -98h-69l-11 -98l126 36l-9 -86l-126 -36l-15 -141h122l23 98l110 -10z" />
    <glyph glyph-name="uni0144.aalt" horiz-adv-x="644" 
d="M521 649l-204 -92l-29 49l174 143zM19 98h56l34 325h-65l11 98h155l227 -294h4l20 196h-76l11 98h248l-11 -98h-54l-44 -423l-70 -1l-246 318h-4l-23 -219h71l-10 -98h-244z" />
    </font>
</defs>
</svg>
