<svg xmlns="http://www.w3.org/2000/svg" viewBox="0 0 1167.01398 843.01198">
    <defs>
        <style>.cls-1{fill:#a11b6b;fill-rule:evenodd;}</style>
    </defs>
    <path class="cls-1" d="M595.014,339.506l-29.506,29.506-29.506-29.506L565.508,310Zm-29.506-17.704-17.704,17.704,17.704,17.704,17.704-17.704Z" />
    <path class="cls-1" d="M251.014,415.506l-29.506,29.506-29.506-29.506L221.508,386Zm-29.506-17.704-17.704,17.704,17.704,17.704,17.704-17.704Z" />
    <path class="cls-1" d="M262.013,192.006l-24.005,24.005-24.005-24.005,24.005-24.005Zm-24.005-14.403-14.403,14.403,14.403,14.403,14.403-14.403Z" />
    <path class="cls-1" d="M824.014,29.506,794.508,59.012,765.002,29.506,794.508,0ZM794.508,11.802,776.804,29.506,794.508,47.21l17.704-17.704Z" />
    <path class="cls-1" d="M1167.014,234.506l-29.506,29.506-29.506-29.506L1137.508,205Zm-29.506-17.704-17.704,17.704,17.704,17.704,17.704-17.704Z" />
    <path class="cls-1" d="M1068.014,769.506l-29.506,29.506-29.506-29.506L1038.508,740Zm-29.506-17.704-17.704,17.704,17.704,17.704,17.704-17.704Z" />
    <path class="cls-1" d="M970.014,526.506l-29.506,29.506-29.506-29.506L940.508,497Zm-29.506-17.704-17.704,17.704,17.704,17.704,17.704-17.704Z" />
    <path class="cls-1" d="M626.012,709.506,605.508,730.01l-20.504-20.504,20.504-20.504Zm-20.504-12.302-12.303,12.302,12.303,12.303,12.302-12.303Z" />
    <path class="cls-1" d="M279.014,813.506l-29.506,29.506-29.506-29.506L249.508,784Zm-29.506-17.704-17.704,17.704,17.704,17.704,17.704-17.704Z" />
    <path class="cls-1" d="M72.016,775.006,36.008,811.014,0,775.006l36.008-36.008ZM36.008,753.402,14.403,775.006l21.605,21.605,21.604-21.605Z" />
</svg>