<svg xmlns="http://www.w3.org/2000/svg" viewBox="0 0 1737 975">
    <defs>
        <style>.cls-1{fill:#a72072;fill-rule:evenodd;}</style>
    </defs>
    <path class="cls-1" d="M537,459a27,27,0,1,0,27-27A27.03039,27.03039,0,0,0,537,459Zm4.003,0A22.997,22.997,0,1,1,564,481.997,23.023,23.023,0,0,1,541.003,459Z" />
    <path class="cls-1" d="M943,244a27,27,0,1,0,27-27A27.03039,27.03039,0,0,0,943,244Zm4.004,0A22.99649,22.99649,0,1,1,970,266.997,23.02293,23.02293,0,0,1,947.004,244Z" />
    <path class="cls-1" d="M1311,148a27,27,0,1,0,27-27A27.03043,27.03043,0,0,0,1311,148Zm4.004,0A22.99646,22.99646,0,1,1,1338,170.997,23.0229,23.0229,0,0,1,1315.004,148Z" />
    <path class="cls-1" d="M1110,631.5a22.5,22.5,0,1,0,22.5-22.5A22.52492,22.52492,0,0,0,1110,631.5Zm3.33606,0A19.16394,19.16394,0,1,1,1132.5,650.664,19.18571,19.18571,0,0,1,1113.33606,631.5Z" />
    <path class="cls-1" d="M568,820.5A22.5,22.5,0,1,0,590.5,798,22.52492,22.52492,0,0,0,568,820.5Zm3.336,0A19.164,19.164,0,1,1,590.5,839.664,19.18576,19.18576,0,0,1,571.336,820.5Z" />
    <path class="cls-1" d="M510,620.5A22.5,22.5,0,1,0,532.5,598,22.52492,22.52492,0,0,0,510,620.5Zm3.336,0A19.164,19.164,0,1,1,532.5,639.664,19.18576,19.18576,0,0,1,513.336,620.5Z" />
    <path class="cls-1" d="M50,429.5A22.5,22.5,0,1,0,72.5,407,22.52489,22.52489,0,0,0,50,429.5Zm3.336,0A19.164,19.164,0,1,1,72.5,448.664,19.18579,19.18579,0,0,1,53.336,429.5Z" />
    <path class="cls-1" d="M578,22.5A22.5,22.5,0,1,0,600.5,0,22.52491,22.52491,0,0,0,578,22.5Zm3.336,0A19.164,19.164,0,1,1,600.5,41.664,19.18578,19.18578,0,0,1,581.336,22.5Z" />
    <path class="cls-1" d="M0,246.5A22.5,22.5,0,1,0,22.5,224,22.52489,22.52489,0,0,0,0,246.5Zm3.336,0A19.164,19.164,0,1,1,22.5,265.664,19.18579,19.18579,0,0,1,3.336,246.5Z" />
    <path class="cls-1" d="M1280,952.5a22.5,22.5,0,1,0,22.5-22.5A22.52492,22.52492,0,0,0,1280,952.5Zm3.33606,0A19.16394,19.16394,0,1,1,1302.5,971.664,19.18571,19.18571,0,0,1,1283.33606,952.5Z" />
    <path class="cls-1" d="M1521,590.5a22.5,22.5,0,1,0,22.5-22.5A22.52492,22.52492,0,0,0,1521,590.5Zm3.33606,0A19.16394,19.16394,0,1,1,1543.5,609.664,19.18571,19.18571,0,0,1,1524.33606,590.5Z" />
    <path class="cls-1" d="M1692,260.5a22.5,22.5,0,1,0,22.5-22.5A22.5249,22.5249,0,0,0,1692,260.5Zm3.33606,0A19.16394,19.16394,0,1,1,1714.5,279.664,19.18572,19.18572,0,0,1,1695.33606,260.5Z" />
    <path class="cls-1" d="M853,794.5A22.5,22.5,0,1,0,875.5,772,22.52492,22.52492,0,0,0,853,794.5Zm3.336,0A19.164,19.164,0,1,1,875.5,813.664,19.18576,19.18576,0,0,1,856.336,794.5Z" />
    <path class="cls-1" d="M1420,395a14,14,0,1,0,14-14A14.01539,14.01539,0,0,0,1420,395Zm2.076,0A11.924,11.924,0,1,1,1434,406.924,11.93739,11.93739,0,0,1,1422.076,395Z" />
    <path class="cls-1" d="M1077,96a14,14,0,1,0,14-14A14.01539,14.01539,0,0,0,1077,96Zm2.076,0A11.924,11.924,0,1,1,1091,107.924,11.93739,11.93739,0,0,1,1079.076,96Z" />
    <path class="cls-1" d="M1625,856a14,14,0,1,0,14-14A14.01541,14.01541,0,0,0,1625,856Zm2.076,0A11.924,11.924,0,1,1,1639,867.924,11.93739,11.93739,0,0,1,1627.076,856Z" />
</svg>