<svg xmlns="http://www.w3.org/2000/svg" viewBox="0 0 1784.99501 963.00602">
    <defs>
        <style>.cls-1{fill:#ff1a5d;fill-rule:evenodd;}</style>
    </defs>
    <path class="cls-1" d="M1006.026,668.615H986.084V646.994l-7.121,7.495v14.126H959.021v7.206h19.942v20.18h7.121v-20.18h19.942Z" />
    <path class="cls-1" d="M653.998,849.896H639.582V834.022l-5.149,5.503v10.371H620.017V855.188h14.416v14.816h5.149V855.188h14.416Z" />
    <path class="cls-1" d="M1401,949.043h-10.176V938.019l-3.634,3.821v7.203h-10.1759v3.674H1387.19v10.289h3.634V952.717H1401Z" />
    <path class="cls-1" d="M446.998,409.896H432.582V394.022l-5.149,5.503v10.371H413.017v5.292h14.416v14.816h5.149V415.188h14.416Z" />
    <path class="cls-1" d="M228.992,297.027H205.235v-26.03l-8.485,9.024v17.006H172.993v8.677H196.75v24.294h8.485V305.704h23.757Z" />
    <path class="cls-1" d="M669.998,102.563H656.847V88.004l-4.697,5.047v9.512H638.999v4.853H652.15v13.588h4.697V107.416h13.151Z" />
    <path class="cls-1" d="M1173.995,21.177h-19.09106V0l-6.818,7.341V21.177h-19.09v7.059h19.09V48.001h6.818V28.236H1173.995Z" />
    <path class="cls-1" d="M1784.995,710.177H1765.904V689l-6.818,7.341v13.836h-19.09v7.059h19.09v19.765h6.818V717.236H1784.995Z" />
    <path class="cls-1" d="M27.999,732.24H16.121V719.004l-4.243,4.589v8.647H0v4.412H11.878v12.353h4.243V736.652H27.999Z" />
</svg>