<svg xmlns="http://www.w3.org/2000/svg" viewBox="0 0 363.10999 100">
    <path fill="#fff" d="M50,0a50,50,0,1,0,50,50A50,50,0,0,0,50,0ZM66.5,52.803H52.2879V67.0152H47.2121V52.803H33V47.72729H47.2121V37.77881L52.2879,32.5V47.72729H66.5Z" />
    <path fill="#fff" d="M157.192,57H151.9V49.888a3.76086,3.76086,0,0,0-.56-2.324,1.87878,1.87878,0,0,0-1.596-.7,2.12878,2.12878,0,0,0-1.876.84,3.81644,3.81644,0,0,0-.56,2.156v4.424h1.68V57h-5.292V49.888a3.76086,3.76086,0,0,0-.56-2.324,1.87879,1.87879,0,0,0-1.596-.7,2.08626,2.08626,0,0,0-1.876.84,3.81644,3.81644,0,0,0-.56,2.156v4.424h2.408V57h-7.7V54.284h1.68V47.116H133.84V44.372h5.264v1.904a4.07481,4.07481,0,0,1,3.836-2.156,4.89664,4.89664,0,0,1,2.52.672,3.54594,3.54594,0,0,1,1.596,2.044,4.09724,4.09724,0,0,1,4.116-2.716,4.67258,4.67258,0,0,1,3.024,1.064,3.99832,3.99832,0,0,1,1.316,3.304v5.796h1.68Z" />
    <path fill="#fff" d="M159.963,42.132V38.38h3.612v3.752ZM165.395,57h-6.972V54.284h1.68V47.116h-1.82V44.372h5.432v9.912h1.68Z" />
    <path fill="#fff" d="M177.263,53.08a4.71047,4.71047,0,0,1-1.512,3.192,4.881,4.881,0,0,1-3.192,1.008,5.35873,5.35873,0,0,1-3.416-1.036,3.7,3.7,0,0,1-1.288-3.024V46.948h-1.792V44.372h1.792V40.536h3.612v3.836h4.536v2.576h-4.536v5.656q0,1.65195,1.512,1.652a2.17165,2.17165,0,0,0,.896-.28q.588-.308.756-1.708Z" />
    <path fill="#fff" d="M191.135,50.7a6.17484,6.17484,0,0,1-1.96,4.788,7.10154,7.10154,0,0,1-4.984,1.792,6.80192,6.80192,0,0,1-4.76-1.68,6.20744,6.20744,0,0,1-1.82-4.76,7.13316,7.13316,0,0,1,1.68-4.76,6.2985,6.2985,0,0,1,5.096-1.988,6.215,6.215,0,0,1,5.068,1.988A6.87319,6.87319,0,0,1,191.135,50.7Zm-3.724-.112a3.86668,3.86668,0,0,0-.896-2.828,2.97419,2.97419,0,0,0-2.184-.896,2.68712,2.68712,0,0,0-2.212,1.008,4.33471,4.33471,0,0,0-.784,2.772,4.92391,4.92391,0,0,0,.728,2.744,2.52587,2.52587,0,0,0,2.24,1.12,2.73782,2.73782,0,0,0,2.24-1.036A4.43312,4.43312,0,0,0,187.411,50.588Z" />
    <path fill="#fff" d="M192.743,57V52.436h4.284V57Z" />
    <path fill="#fff" d="M216.041,52.296a6.4844,6.4844,0,0,1-1.512,3.36q-1.28852,1.62405-4.34,1.624a6.5638,6.5638,0,0,1-4.536-1.596,6.134,6.134,0,0,1-1.764-4.788,6.40926,6.40926,0,0,1,1.932-5.068,6.8129,6.8129,0,0,1,4.676-1.708,9.57355,9.57355,0,0,1,2.212.28,8.76712,8.76712,0,0,1,2.352.868l.56,3.836-2.884.308-.42-2.072a6.15243,6.15243,0,0,0-1.904-.364,2.5501,2.5501,0,0,0-1.96.896,4.10815,4.10815,0,0,0-.812,2.856q0,3.696,2.884,3.696,2.127,0,2.492-2.688Z" />
    <path fill="#fff" d="M223.956,57h-6.972V54.284h1.68V40.48h-1.82V37.736h5.432V54.284h1.68Z" />
    <path fill="#fff" d="M237.429,53.024a4.31577,4.31577,0,0,1-1.652,2.968,6.32281,6.32281,0,0,1-4.228,1.288,6.89907,6.89907,0,0,1-4.676-1.596,5.99607,5.99607,0,0,1-1.82-4.76,7.19378,7.19378,0,0,1,1.652-4.844,5.82871,5.82871,0,0,1,4.676-1.96,5.99541,5.99541,0,0,1,4.256,1.512,5.22283,5.22283,0,0,1,1.68,3.976,8.47048,8.47048,0,0,1-.196,1.82h-8.288q.3075,2.996,2.968,2.996a2.28346,2.28346,0,0,0,1.96-.7,3.2268,3.2268,0,0,0,.644-1.26Zm-3.836-3.696a2.67317,2.67317,0,0,0-.42-1.792,1.9153,1.9153,0,0,0-1.792-.84,2.1494,2.1494,0,0,0-1.736.728,3.683,3.683,0,0,0-.784,1.904Z" />
    <path fill="#fff" d="M252.177,47.088h-1.288L246.381,57h-2.604l-4.76-9.912h-1.344V44.372h6.44v2.716h-1.204l2.464,5.292h.168l1.876-5.292h-1.008V44.372h5.768Z" />
    <path fill="#fff" d="M264.909,53.024a4.3157,4.3157,0,0,1-1.652,2.968,6.32284,6.32284,0,0,1-4.228,1.288,6.8991,6.8991,0,0,1-4.676-1.596,5.99607,5.99607,0,0,1-1.82-4.76,7.19377,7.19377,0,0,1,1.652-4.844,5.82871,5.82871,0,0,1,4.676-1.96,5.9938,5.9938,0,0,1,4.256,1.512,5.216,5.216,0,0,1,1.68,3.976,8.47174,8.47174,0,0,1-.196,1.82h-8.288q.309,2.996,2.968,2.996a2.28343,2.28343,0,0,0,1.96-.7,3.21318,3.21318,0,0,0,.644-1.26Zm-3.836-3.696a2.67321,2.67321,0,0,0-.42-1.792,1.91539,1.91539,0,0,0-1.792-.84,2.15075,2.15075,0,0,0-1.736.728,3.69123,3.69123,0,0,0-.784,1.904Z" />
    <path fill="#fff" d="M274.272,44.204a4.68883,4.68883,0,0,1,1.176.168,4.152,4.152,0,0,1,1.316.532l.56,4.424-2.744.308-.476-2.156a1.9771,1.9771,0,0,0-.98-.336,1.50418,1.50418,0,0,0-1.092.476,1.97421,1.97421,0,0,0-.448,1.4v5.264h2.24V57h-7.532V54.284h1.68V47.116h-1.82V44.372h5.152V46.78a4.39678,4.39678,0,0,1,.98-1.82A2.57637,2.57637,0,0,1,274.272,44.204Z" />
    <path fill="#fff" d="M293.993,53.08a4.71049,4.71049,0,0,1-1.512,3.192,4.87716,4.87716,0,0,1-3.192,1.008,5.35884,5.35884,0,0,1-3.416-1.036,3.70009,3.70009,0,0,1-1.288-3.024V46.948h-1.792V44.372h1.792V40.536h3.612v3.836h4.536v2.576h-4.536v5.656q0,1.65195,1.512,1.652a2.16757,2.16757,0,0,0,.896-.28q.588-.308.756-1.708Z" />
    <path fill="#fff" d="M309.685,57h-6.972V54.284h1.68V49.888a3.6225,3.6225,0,0,0-.588-2.324,1.95569,1.95569,0,0,0-1.624-.7,2.504,2.504,0,0,0-1.932.756,3.10752,3.10752,0,0,0-.728,1.988v4.676h1.68V57h-6.972V54.284h1.68V40.48h-1.68V37.736h5.292v8.568a4.33381,4.33381,0,0,1,4.06-2.184,4.79122,4.79122,0,0,1,3.108,1.064,3.99539,3.99539,0,0,1,1.316,3.304v5.796h1.68Z" />
    <path fill="#fff" d="M312.487,42.132V38.38h3.612v3.752ZM317.919,57h-6.972V54.284h1.68V47.116h-1.82V44.372h5.432v9.912h1.68Z" />
    <path fill="#fff" d="M334.686,57h-6.972V54.284h1.68V49.888a3.76092,3.76092,0,0,0-.56-2.324,1.87882,1.87882,0,0,0-1.596-.7,2.48254,2.48254,0,0,0-1.988.812,3.10115,3.10115,0,0,0-.728,2.072v4.536h1.68V57H319.23V54.284h1.68V47.116h-1.82V44.372h5.432v1.932a4.33281,4.33281,0,0,1,4.06-2.184,4.79123,4.79123,0,0,1,3.108,1.064,3.99836,3.99836,0,0,1,1.316,3.304v5.796h1.68Z" />
    <path fill="#fff" d="M350.556,47.116h-1.68v9.24a7.10328,7.10328,0,0,1-1.708,4.928q-1.70851,1.932-5.264,1.932a8.98726,8.98726,0,0,1-3.752-.812,4.89,4.89,0,0,1-2.604-2.968l2.772-1.568a4.04238,4.04238,0,0,0,3.612,2.492,3.00868,3.00868,0,0,0,2.38-1.064,4.19215,4.19215,0,0,0,.952-2.94V54.704a4.54621,4.54621,0,0,1-1.484,1.624,4.63907,4.63907,0,0,1-2.66.672,5.485,5.485,0,0,1-3.864-1.54,5.90061,5.90061,0,0,1-1.652-4.536,7.72313,7.72313,0,0,1,1.512-4.816,4.95,4.95,0,0,1,4.172-1.988,4.55355,4.55355,0,0,1,2.464.616,4.27621,4.27621,0,0,1,1.512,1.596v-1.96h5.292Zm-5.292,3.5v-.308a3.43048,3.43048,0,0,0-.812-2.436,2.55771,2.55771,0,0,0-2.016-.896,2.60966,2.60966,0,0,0-2.016.896,4.22782,4.22782,0,0,0-.784,2.828,3.99977,3.99977,0,0,0,.7,2.632,2.40312,2.40312,0,0,0,1.876.812,2.64494,2.64494,0,0,0,2.268-1.064A4.04715,4.04715,0,0,0,345.264,50.616Z" />
    <path fill="#fff" d="M363.11,53.136a3.43764,3.43764,0,0,1-1.68,3.136,8.194,8.194,0,0,1-4.312,1.008,14.09933,14.09933,0,0,1-2.772-.28,11.10159,11.10159,0,0,1-2.632-.952l.504-3.528,2.8.308v1.568a4.88375,4.88375,0,0,0,1.064.224q.55948.02805.84.028a4.38807,4.38807,0,0,0,1.792-.336,1.08088,1.08088,0,0,0,.756-1.008q0-.81195-1.148-1.064-1.149-.252-2.66-.504a6.56155,6.56155,0,0,1-2.66-1.036,2.98494,2.98494,0,0,1-1.148-2.66,3.05332,3.05332,0,0,1,1.792-3.108,9.11636,9.11636,0,0,1,3.752-.812,10.12653,10.12653,0,0,1,4.732,1.148l.308,3.22-2.8.308-.224-1.764a6.25079,6.25079,0,0,0-1.988-.308,2.26424,2.26424,0,0,0-1.204.308.96051.96051,0,0,0-.476.896q0,.81195,1.092,1.092,1.119.252,2.576.504a6.10014,6.10014,0,0,1,2.576,1.036A2.88013,2.88013,0,0,1,363.11,53.136Z" />
</svg>